<?xml version="1.0" encoding="UTF-8" standalone="no"?>
<!DOCTYPE svg PUBLIC "-//W3C//DTD SVG 1.1//EN" "http://www.w3.org/Graphics/SVG/1.1/DTD/svg11.dtd">
<svg xmlns="http://www.w3.org/2000/svg" version="1.1" viewBox="0 0 259 116">
<g stroke-width="2.00" fill="none" stroke-linecap="butt">
<path stroke="#879dbd" vector-effect="non-scaling-stroke" d="
  M 2.04 9.50
  L 2.03 106.63"
/>
<path stroke="#df829d" vector-effect="non-scaling-stroke" d="
  M 2.03 106.63
  L 2.00 113.49
  A 0.52 0.51 0.0 0 0 2.52 114.00
  L 257.12 114.00
  A 0.83 0.75 -1.0 0 0 257.95 113.22
  L 257.72 106.42"
/>
<path stroke="#879dbd" vector-effect="non-scaling-stroke" d="
  M 257.72 106.42
  L 257.71 9.50"
/>
<path stroke="#df829d" vector-effect="non-scaling-stroke" d="
  M 257.71 9.50
  Q 258.41 6.02 257.78 2.55
  A 0.60 0.60 -5.2 0 0 257.19 2.06
  L 2.77 2.00
  A 0.72 0.69 0.0 0 0 2.05 2.69
  L 2.04 9.50"
/>
<path stroke="#67205a" vector-effect="non-scaling-stroke" d="
  M 257.71 9.50
  Q 169.85 9.33 82.00 9.75
  Q 65.22 9.83 2.04 9.50"
/>
<path stroke="#67205a" vector-effect="non-scaling-stroke" d="
  M 257.72 106.42
  L 2.03 106.63"
/>
<path stroke="#82647e" vector-effect="non-scaling-stroke" d="
  M 184.75 37.46
  Q 180.64 42.55 179.54 49.00"
/>
<path stroke="#8093b0" vector-effect="non-scaling-stroke" d="
  M 179.54 49.00
  Q 175.36 66.95 187.00 80.79"
/>
<path stroke="#7487a5" vector-effect="non-scaling-stroke" d="
  M 187.00 80.79
  Q 195.44 90.33 208.00 92.71"
/>
<path stroke="#6a455c" vector-effect="non-scaling-stroke" d="
  M 208.00 92.71
  L 209.25 92.71"
/>
<path stroke="#7083a1" vector-effect="non-scaling-stroke" d="
  M 209.25 92.71
  Q 212.14 93.79 216.00 93.50
  Q 236.96 91.91 246.79 74.00"
/>
<path stroke="#5f6e8a" vector-effect="non-scaling-stroke" d="
  M 246.79 74.00
  L 248.04 72.25"
/>
<path stroke="#5c2e46" vector-effect="non-scaling-stroke" d="
  M 248.04 72.25
  Q 249.58 71.06 248.96 69.00"
/>
<path stroke="#65516a" vector-effect="non-scaling-stroke" d="
  M 248.96 69.00
  Q 249.57 68.09 249.46 67.00"
/>
<path stroke="#7083a1" vector-effect="non-scaling-stroke" d="
  M 249.46 67.00
  Q 252.42 57.59 249.69 48.06
  Q 247.62 40.82 242.58 35.01"
/>
<path stroke="#65516a" vector-effect="non-scaling-stroke" d="
  M 242.58 35.01
  Q 241.84 33.47 240.25 32.54"
/>
<path stroke="#788ca9" vector-effect="non-scaling-stroke" d="
  M 240.25 32.54
  Q 232.77 24.95 222.29 23.00"
/>
<path stroke="#8093b0" vector-effect="non-scaling-stroke" d="
  M 222.29 23.00
  Q 198.71 18.80 184.75 37.46"
/>
<path stroke="#e9e4df" vector-effect="non-scaling-stroke" d="
  M 222.29 23.00
  Q 221.35 24.75 219.44 23.81
  Q 218.84 23.52 218.40 23.82
  A 0.46 0.38 45.4 0 0 218.46 24.49
  Q 220.30 25.99 220.89 28.27
  A 0.98 0.89 -33.4 0 1 220.67 29.12
  Q 219.45 30.53 218.33 32.01
  Q 217.49 33.13 216.87 35.31
  Q 216.27 37.41 215.00 39.21"
/>
<path stroke="#f38b82" vector-effect="non-scaling-stroke" d="
  M 215.00 39.21
  L 214.50 39.54"
/>
<path stroke="#e9e4df" vector-effect="non-scaling-stroke" d="
  M 214.50 39.54
  Q 213.74 40.62 212.50 40.54"
/>
<path stroke="#f38b82" vector-effect="non-scaling-stroke" d="
  M 212.50 40.54
  Q 209.76 38.21 211.35 41.06
  Q 211.49 41.32 211.90 41.69
  Q 212.61 42.33 212.25 43.29"
/>
<path stroke="#d0c7c0" vector-effect="non-scaling-stroke" d="
  M 212.25 43.29
  Q 211.31 43.19 210.50 42.71"
/>
<path stroke="#f38b82" vector-effect="non-scaling-stroke" d="
  M 210.50 42.71
  L 208.50 39.46
  A 1.05 0.91 72.3 0 0 207.70 38.97
  Q 207.16 38.95 207.22 39.53
  Q 207.26 39.85 207.60 40.23
  Q 209.47 42.31 207.21 44.00"
/>
<path stroke="#e9e4df" vector-effect="non-scaling-stroke" d="
  M 207.21 44.00
  Q 206.18 44.33 205.25 43.71"
/>
<path stroke="#f29990" vector-effect="non-scaling-stroke" d="
  M 205.25 43.71
  Q 206.89 41.99 205.61 40.08
  Q 205.34 39.68 205.29 39.19
  Q 205.20 38.17 204.69 38.27
  A 0.69 0.55 81.7 0 0 204.26 39.00
  L 204.65 42.26
  A 0.79 0.73 71.1 0 1 204.32 43.00
  Q 202.26 44.30 202.38 46.85"
/>
<path stroke="#e9e4df" vector-effect="non-scaling-stroke" d="
  M 202.38 46.85
  Q 196.56 55.28 193.31 57.81
  Q 191.16 59.49 186.50 60.75
  Q 183.58 61.54 182.69 65.19
  Q 182.59 65.57 182.15 65.95
  A 0.97 0.83 -26.8 0 0 181.82 66.74
  Q 182.40 70.74 182.75 72.00
  Q 183.59 75.05 186.00 77.04"
/>
<path stroke="#e4e0db" vector-effect="non-scaling-stroke" d="
  M 186.00 77.04
  Q 187.33 78.79 187.00 80.79"
/>
<path stroke="#f3bcb4" vector-effect="non-scaling-stroke" d="
  M 179.54 49.00
  Q 180.24 48.17 180.70 47.21
  Q 180.90 46.81 180.92 46.12
  Q 180.96 44.80 181.91 45.39
  A 0.41 0.40 28.3 0 0 182.50 45.22
  Q 183.49 43.06 185.94 43.35
  A 0.77 0.76 19.9 0 0 186.68 43.01
  Q 187.63 41.53 188.38 43.23
  Q 188.56 43.63 188.70 43.21
  Q 189.36 41.29 191.47 39.51
  A 1.11 0.55 89.0 0 0 191.76 38.90
  L 192.32 35.80
  Q 192.57 34.38 191.55 35.31
  Q 190.68 36.11 190.82 37.26
  Q 190.92 38.08 190.85 38.38
  Q 190.54 39.66 189.55 38.41
  A 0.97 0.81 -57.5 0 1 189.44 37.54
  Q 189.81 36.51 189.62 35.49
  Q 189.53 35.00 189.22 35.41
  Q 188.38 36.54 186.96 37.00"
/>
<path stroke="#e0dcd7" vector-effect="non-scaling-stroke" d="
  M 186.96 37.00
  L 185.79 37.75"
/>
<path stroke="#f3bcb4" vector-effect="non-scaling-stroke" d="
  M 185.79 37.75
  Q 185.36 37.35 184.75 37.46"
/>
<path stroke="#e3ada5" vector-effect="non-scaling-stroke" d="
  M 185.79 37.75
  Q 186.23 38.71 185.69 40.19
  Q 184.95 42.21 186.40 41.68
  Q 186.96 41.48 187.24 40.94
  Q 188.26 38.99 186.96 37.00"
/>
<path stroke="#d2675b" vector-effect="non-scaling-stroke" d="
  M 210.50 42.71
  Q 210.16 42.88 210.21 43.25"
/>
<path stroke="#ca9e94" vector-effect="non-scaling-stroke" d="
  M 202.96 90.50
  Q 204.20 91.99 204.25 90.29"
/>
<path stroke="#ce9287" vector-effect="non-scaling-stroke" d="
  M 205.04 89.33
  L 208.00 92.71"
/>
<path stroke="#da8575" vector-effect="non-scaling-stroke" d="
  M 223.64 48.47
  Q 225.34 45.81 226.00 42.96"
/>
<path stroke="#da8575" vector-effect="non-scaling-stroke" d="
  M 227.46 43.00
  Q 227.11 45.13 227.67 47.20
  A 0.35 0.32 62.1 0 0 228.21 47.39
  Q 229.15 46.51 228.78 44.99
  Q 228.44 43.57 229.29 42.50"
/>
<path stroke="#d2675b" vector-effect="non-scaling-stroke" d="
  M 212.00 43.79
  Q 212.35 43.64 212.25 43.29"
/>
<path stroke="#cea299" vector-effect="non-scaling-stroke" d="
  M 240.25 32.54
  Q 240.85 34.93 238.98 36.29
  A 0.48 0.42 -38.3 0 0 238.86 36.95
  L 240.04 38.25"
/>
<path stroke="#d9d5d0" vector-effect="non-scaling-stroke" d="
  M 240.04 38.25
  Q 240.02 38.81 239.54 39.00"
/>
<path stroke="#d3978b" vector-effect="non-scaling-stroke" d="
  M 239.54 39.00
  Q 238.88 38.00 237.80 37.67
  A 0.60 0.55 17.4 0 0 237.08 38.01
  Q 236.80 38.88 238.04 39.25"
/>
<path stroke="#ddd9d4" vector-effect="non-scaling-stroke" d="
  M 238.04 39.25
  Q 237.80 39.78 237.25 39.79"
/>
<path stroke="#d19083" vector-effect="non-scaling-stroke" d="
  M 237.25 39.79
  Q 236.75 39.28 236.12 38.98
  Q 235.69 38.78 235.24 38.92
  Q 233.91 39.33 235.75 40.21"
/>
<path stroke="#ddd9d4" vector-effect="non-scaling-stroke" d="
  M 235.75 40.21
  L 235.00 40.29"
/>
<path stroke="#df897a" vector-effect="non-scaling-stroke" d="
  M 235.00 40.29
  Q 233.90 39.20 232.50 39.21
  Q 231.99 39.22 232.38 39.57
  Q 235.03 41.95 234.00 45.71"
/>
<path stroke="#ddd9d4" vector-effect="non-scaling-stroke" d="
  M 234.00 45.71
  Q 233.29 46.51 232.29 46.50"
/>
<path stroke="#df897a" vector-effect="non-scaling-stroke" d="
  M 232.29 46.50
  L 232.09 43.74
  Q 232.05 43.20 232.15 42.78
  Q 232.51 41.29 231.07 40.43
  Q 225.94 37.36 230.54 41.50"
/>
<path stroke="#ddd9d4" vector-effect="non-scaling-stroke" d="
  M 230.54 41.50
  Q 230.57 43.10 229.29 42.50"
/>
<path stroke="#df897a" vector-effect="non-scaling-stroke" d="
  M 229.29 42.50
  Q 227.56 40.23 226.25 39.75
  Q 224.83 39.23 225.32 40.26
  A 1.69 0.76 19.5 0 0 226.00 40.91
  Q 227.18 41.61 227.46 43.00"
/>
<path stroke="#ddd9d4" vector-effect="non-scaling-stroke" d="
  M 227.46 43.00
  L 226.00 42.96"
/>
<path stroke="#df897a" vector-effect="non-scaling-stroke" d="
  M 226.00 42.96
  Q 224.45 40.48 223.25 40.00
  Q 221.88 39.45 222.65 40.63
  Q 223.14 41.39 223.69 42.10
  A 1.05 1.03 -56.3 0 1 223.86 42.99
  Q 223.13 45.71 223.64 48.47"
/>
<path stroke="#ddd9d4" vector-effect="non-scaling-stroke" d="
  M 223.64 48.47
  Q 223.99 50.27 222.07 50.33
  Q 220.62 50.37 219.98 50.56
  Q 217.63 51.26 215.26 51.88
  Q 212.28 52.67 212.35 55.75
  Q 212.42 58.80 212.56 59.44
  Q 213.49 63.58 209.25 63.72
  Q 203.99 63.90 198.74 63.61
  Q 191.36 63.21 188.91 69.53
  Q 188.06 71.73 187.97 71.93
  Q 187.19 73.81 187.06 75.06
  Q 186.92 76.44 186.00 77.04"
/>
<path stroke="#eb9289" vector-effect="non-scaling-stroke" d="
  M 202.38 46.85
  L 205.25 43.71"
/>
<path stroke="#eb847b" vector-effect="non-scaling-stroke" d="
  M 207.21 44.00
  L 206.34 46.51
  A 0.82 0.65 -65.6 0 0 206.56 47.40
  Q 206.97 47.67 207.62 47.00
  A 3.44 3.42 72.2 0 0 208.56 45.16
  Q 208.92 43.09 210.21 43.25"
/>
<path stroke="#c8c0b9" vector-effect="non-scaling-stroke" d="
  M 210.21 43.25
  Q 211.01 43.81 212.00 43.79"
/>
<path stroke="#eb847b" vector-effect="non-scaling-stroke" d="
  M 212.00 43.79
  L 210.83 45.89
  A 1.87 0.83 -49.8 0 0 210.56 46.82
  Q 210.64 47.95 211.49 47.49
  Q 211.90 47.27 212.17 46.71
  Q 213.02 44.97 213.80 43.20
  A 1.07 0.70 -56.9 0 0 213.80 42.28
  L 212.50 40.54"
/>
<path stroke="#eb847b" vector-effect="non-scaling-stroke" d="
  M 214.50 39.54
  Q 214.95 40.96 216.06 41.94
  Q 217.54 43.24 215.76 44.35
  A 2.58 2.58 77.4 0 0 214.55 46.26
  Q 214.27 48.87 215.38 47.98
  Q 215.76 47.68 216.01 47.00
  Q 216.78 44.84 217.98 42.92
  A 0.74 0.56 -53.5 0 0 217.97 42.09
  L 215.00 39.21"
/>
<path stroke="#cd8b7f" vector-effect="non-scaling-stroke" d="
  M 237.25 39.79
  Q 238.56 41.67 238.68 43.94
  A 1.46 1.21 67.5 0 1 238.40 44.85
  Q 237.56 45.86 237.31 43.94
  Q 236.96 41.16 235.75 40.21"
/>
<path stroke="#ce9287" vector-effect="non-scaling-stroke" d="
  M 240.68 43.53
  L 238.04 39.25"
/>
<path stroke="#da8575" vector-effect="non-scaling-stroke" d="
  M 232.29 46.50
  Q 231.59 47.74 231.14 46.66
  Q 231.00 46.32 231.09 45.83
  Q 231.48 43.60 230.54 41.50"
/>
<path stroke="#c69a91" vector-effect="non-scaling-stroke" d="
  M 249.46 67.00
  Q 246.63 66.44 246.72 69.25
  A 1.66 1.35 -33.4 0 1 246.44 70.14
  Q 245.69 71.24 246.29 72.50"
/>
<path stroke="#c0b7b1" vector-effect="non-scaling-stroke" d="
  M 246.29 72.50
  Q 246.83 73.15 246.79 74.00"
/>
<path stroke="#ca8e83" vector-effect="non-scaling-stroke" d="
  M 209.25 92.71
  Q 209.95 91.88 211.53 91.51"
/>
<path stroke="#c0b7b1" vector-effect="non-scaling-stroke" d="
  M 211.53 91.51
  Q 219.11 92.53 221.50 92.00
  Q 233.85 89.28 241.61 79.54
  Q 242.70 78.17 241.18 79.05
  Q 238.17 80.79 235.49 82.52
  Q 227.70 87.53 218.70 89.60
  Q 217.92 89.77 217.31 89.61
  Q 216.63 89.41 216.00 89.04"
/>
<path stroke="#c9877b" vector-effect="non-scaling-stroke" d="
  M 216.00 89.04
  Q 213.96 87.12 213.56 85.44
  Q 213.39 84.69 212.98 84.79
  A 0.77 0.54 81.5 0 0 212.59 85.56
  Q 212.88 88.45 215.50 89.79"
/>
<path stroke="#c0b7b1" vector-effect="non-scaling-stroke" d="
  M 215.50 89.79
  Q 215.80 89.97 215.98 90.23
  Q 216.31 90.70 215.69 90.75
  Q 214.16 90.86 212.75 90.21"
/>
<path stroke="#c9877b" vector-effect="non-scaling-stroke" d="
  M 212.75 90.21
  Q 211.22 88.66 210.27 86.71
  Q 209.90 85.97 209.53 86.34
  A 0.99 0.71 64.7 0 0 209.37 87.24
  Q 209.83 88.82 211.04 90.00"
/>
<path stroke="#c0b7b1" vector-effect="non-scaling-stroke" d="
  M 211.04 90.00
  Q 211.07 90.42 210.75 90.54"
/>
<path stroke="#ca8e83" vector-effect="non-scaling-stroke" d="
  M 210.75 90.54
  Q 208.85 90.06 207.99 88.22
  Q 207.67 87.53 207.20 87.56
  A 0.56 0.45 79.2 0 0 206.84 88.24
  Q 207.14 89.40 208.10 90.10
  A 0.80 0.58 24.1 0 1 208.45 90.70
  Q 208.39 91.38 207.69 90.58
  Q 206.60 89.35 205.04 89.33"
/>
<path stroke="#d4d0cc" vector-effect="non-scaling-stroke" d="
  M 205.04 89.33
  Q 205.16 90.54 204.25 90.29"
/>
<path stroke="#c69a91" vector-effect="non-scaling-stroke" d="
  M 204.25 90.29
  Q 203.07 88.72 202.96 90.50"
/>
<path stroke="#d4d0cc" vector-effect="non-scaling-stroke" d="
  M 202.96 90.50
  L 197.26 87.39
  Q 196.87 87.18 197.30 87.10
  Q 198.53 86.85 199.69 86.41
  Q 200.01 86.29 202.52 85.55
  Q 204.85 84.86 206.31 82.56
  Q 207.90 80.07 210.77 76.75
  Q 212.76 74.45 215.73 73.68
  Q 219.08 72.81 222.47 72.10
  Q 226.30 71.29 227.25 68.50
  Q 228.89 63.69 233.70 62.18
  Q 235.55 61.60 236.24 59.80
  Q 239.27 51.96 240.68 43.53"
/>
<path stroke="#ca8e83" vector-effect="non-scaling-stroke" d="
  M 240.68 43.53
  L 239.54 39.00"
/>
<path stroke="#da8575" vector-effect="non-scaling-stroke" d="
  M 235.00 40.29
  Q 235.87 41.97 235.61 43.87
  Q 235.53 44.53 235.51 45.14
  Q 235.45 47.29 234.00 45.71"
/>
<path stroke="#c69a91" vector-effect="non-scaling-stroke" d="
  M 242.58 35.01
  Q 242.40 37.40 240.81 36.34
  A 1.31 0.97 50.4 0 0 239.97 36.13
  Q 238.30 36.43 240.25 37.00
  Q 241.14 37.26 242.12 38.42
  A 1.56 1.38 -11.3 0 0 242.93 38.89
  Q 245.00 39.34 244.75 41.44
  Q 244.65 42.29 244.13 41.61
  Q 241.53 38.16 242.93 41.39
  Q 243.22 42.07 242.92 42.25
  A 0.69 0.46 59.5 0 1 242.17 41.89
  L 240.04 38.25"
/>
<path stroke="#ba796c" vector-effect="non-scaling-stroke" d="
  M 211.53 91.51
  Q 211.56 91.01 210.75 90.54"
/>
<path stroke="#b87264" vector-effect="non-scaling-stroke" d="
  M 211.04 90.00
  Q 211.87 91.27 212.75 90.21"
/>
<path stroke="#b87264" vector-effect="non-scaling-stroke" d="
  M 215.50 89.79
  Q 215.83 89.47 216.00 89.04"
/>
<path stroke="#b24435" vector-effect="non-scaling-stroke" d="
  M 248.96 69.00
  Q 247.96 69.79 247.71 71.00"
/>
<path stroke="#b58579" vector-effect="non-scaling-stroke" d="
  M 247.71 71.00
  L 246.29 72.50"
/>
<path stroke="#ac6255" vector-effect="non-scaling-stroke" d="
  M 248.04 72.25
  Q 248.11 71.54 247.71 71.00"
/>
<path stroke="#879dbd" vector-effect="non-scaling-stroke" d="
  M 109.72 76.61
  Q 105.44 78.24 104.44 79.19
  Q 100.89 82.55 96.09 82.95
  Q 96.05 82.96 94.42 82.86
  Q 92.05 82.71 91.33 86.04
  Q 91.22 86.54 90.96 86.98
  Q 89.91 88.76 90.18 90.30
  Q 90.31 91.10 90.83 92.60
  Q 91.57 94.72 93.57 93.02
  A 1.79 1.14 87.8 0 0 94.05 92.20
  Q 94.63 90.08 96.60 89.63
  Q 98.73 89.13 98.84 89.09
  Q 107.06 85.96 114.99 82.15
  A 1.50 1.06 -8.0 0 0 115.68 81.50
  L 118.66 75.03
  A 1.25 1.16 -52.1 0 1 120.70 74.70
  Q 126.81 82.87 133.70 89.59
  A 0.73 0.70 -56.5 0 1 133.85 90.39
  Q 132.41 93.69 135.69 93.63
  Q 138.11 93.58 138.30 93.59
  Q 140.67 93.65 142.96 93.07
  A 1.54 1.49 11.1 0 0 143.76 92.55
  Q 146.87 88.71 141.81 88.91
  A 0.88 0.84 72.2 0 1 141.05 88.50
  Q 139.70 86.35 137.50 85.16
  Q 137.05 84.92 136.79 84.51
  Q 130.33 74.26 124.05 63.89
  Q 122.58 61.46 120.64 59.51
  A 2.67 2.66 32.1 0 1 120.00 56.76
  Q 121.01 53.77 119.50 51.01
  A 1.42 1.41 57.1 0 1 119.88 49.22
  Q 121.73 47.81 124.00 47.35
  A 1.55 1.55 -0.3 0 0 125.20 46.14
  Q 125.81 43.02 125.32 40.80
  Q 124.77 38.36 127.24 38.00
  Q 137.57 36.48 147.75 34.25
  Q 150.78 33.59 149.06 31.15
  A 0.90 0.84 -20.3 0 0 148.25 30.81
  Q 139.72 31.95 133.75 34.50
  Q 127.99 36.96 125.56 36.69
  Q 119.63 36.03 114.04 38.01
  A 0.62 0.54 -22.2 0 1 113.30 37.76
  Q 112.87 36.84 113.81 36.31
  Q 117.21 34.44 113.67 33.44
  A 1.14 1.13 84.9 0 1 112.98 32.86
  Q 111.23 29.24 106.98 30.42
  Q 101.18 32.03 102.68 37.83
  A 0.54 0.52 -16.6 0 1 102.33 38.46
  Q 99.46 39.43 99.15 41.93
  Q 98.95 43.52 100.44 46.16
  Q 104.86 53.99 105.69 57.06
  Q 106.20 58.99 107.69 59.26
  A 0.51 0.49 -81.2 0 1 108.08 59.81
  L 107.56 64.94
  A 1.53 0.93 40.3 0 0 107.86 65.84
  Q 111.07 70.32 110.27 75.94
  A 0.87 0.83 -6.8 0 1 109.72 76.61"
/>
<path stroke="#879dbd" vector-effect="non-scaling-stroke" d="
  M 50.47 41.62
  Q 45.92 39.25 38.25 39.25
  Q 32.50 39.25 25.47 39.25
  A 0.72 0.72 0.0 0 0 24.75 39.97
  L 24.75 79.11
  A 0.87 0.87 1.0 0 0 25.59 79.98
  Q 32.50 80.16 38.99 79.89
  Q 47.13 79.54 51.13 77.37
  Q 59.20 73.01 59.89 62.26
  Q 59.95 61.24 59.75 57.00
  Q 59.23 46.17 50.47 41.62"
/>
<path stroke="#879dbd" vector-effect="non-scaling-stroke" d="
  M 84.25 76.19
  Q 87.77 82.24 94.53 79.45
  A 0.84 0.64 -15.4 0 0 95.06 78.75
  L 94.88 76.48
  Q 94.82 75.76 94.87 75.51
  Q 95.09 74.28 94.23 73.89
  A 1.42 0.59 -25.0 0 0 93.28 73.93
  Q 92.30 74.22 91.68 73.61
  Q 91.26 73.20 91.21 72.25
  Q 90.82 65.26 90.92 58.25
  Q 91.02 50.85 84.75 49.25
  Q 75.29 46.84 67.33 52.96
  A 1.56 1.55 -35.7 0 0 66.98 55.06
  L 69.12 58.28
  A 0.94 0.93 53.1 0 0 70.49 58.48
  Q 76.15 53.76 81.96 55.42
  A 1.52 1.48 -9.7 0 1 82.75 55.96
  Q 84.77 58.70 81.69 60.44
  Q 80.24 61.25 75.49 61.94
  Q 70.79 62.63 68.01 65.18
  Q 66.00 67.02 65.79 69.74
  Q 65.10 78.80 73.25 80.50
  Q 79.76 81.86 83.72 76.16
  A 0.32 0.31 47.7 0 1 84.25 76.19"
/>
<path stroke="#879dbd" vector-effect="non-scaling-stroke" d="
  M 157.25 76.18
  Q 161.00 82.23 167.72 79.39
  A 0.75 0.63 -16.3 0 0 168.19 78.68
  L 167.55 74.17
  A 0.61 0.56 -14.3 0 0 166.75 73.74
  Q 165.14 74.35 164.54 73.37
  Q 164.25 72.89 164.25 71.57
  Q 164.25 64.91 164.18 58.25
  Q 164.14 54.39 161.92 51.85
  Q 160.06 49.72 156.33 48.95
  Q 147.08 47.05 139.86 53.66
  A 0.64 0.59 -38.6 0 0 139.74 54.45
  L 142.26 58.28
  A 1.08 0.97 -36.6 0 0 143.78 58.42
  Q 149.36 53.81 154.96 55.41
  A 1.49 1.41 -8.9 0 1 155.74 55.95
  Q 157.47 58.35 155.71 59.82
  Q 154.86 60.53 152.47 61.05
  Q 146.14 62.41 144.25 63.25
  Q 137.36 66.32 139.24 73.94
  Q 140.64 79.62 146.51 80.46
  Q 153.17 81.40 156.73 76.16
  A 0.31 0.31 46.8 0 1 157.25 76.18"
/>
<path stroke="#f29990" vector-effect="non-scaling-stroke" d="
  M 192.60 39.54
  L 189.96 43.70
  A 0.53 0.43 -57.6 0 0 190.04 44.38
  Q 190.30 44.54 190.59 43.89
  Q 191.50 41.93 193.16 40.62
  A 1.98 1.31 -19.5 0 0 193.74 39.85
  Q 194.36 38.09 194.09 36.24
  Q 194.01 35.69 193.67 36.12
  Q 192.79 37.21 192.88 38.69
  A 1.52 0.82 -43.3 0 1 192.60 39.54"
/>
<path stroke="#f29990" vector-effect="non-scaling-stroke" d="
  M 195.19 39.19
  Q 195.08 40.52 192.83 42.91
  Q 192.46 43.30 192.34 43.71
  Q 192.01 44.90 192.97 44.62
  A 1.34 0.91 -76.7 0 0 193.66 43.99
  Q 194.59 42.26 196.10 41.05
  A 1.40 1.19 -17.8 0 0 196.60 40.25
  Q 196.91 38.62 196.72 36.73
  Q 196.54 34.79 195.77 36.58
  Q 195.32 37.63 195.19 39.19"
/>
<path stroke="#f29990" vector-effect="non-scaling-stroke" d="
  M 197.25 41.91
  Q 195.60 42.86 195.16 44.70
  A 0.57 0.46 -79.1 0 0 195.52 45.38
  Q 196.07 45.44 196.39 44.59
  Q 197.17 42.57 199.04 41.69
  A 0.70 0.66 -16.0 0 0 199.44 41.01
  Q 199.34 39.88 199.49 38.75
  Q 199.85 35.99 198.83 37.09
  Q 198.51 37.43 198.39 38.02
  Q 198.08 39.60 197.78 41.20
  A 1.11 1.00 -11.1 0 1 197.25 41.91"
/>
<path stroke="#f29990" vector-effect="non-scaling-stroke" d="
  M 200.77 42.72
  Q 199.21 43.89 198.78 45.84
  Q 198.74 46.02 198.81 46.16
  Q 198.90 46.35 199.04 46.42
  A 0.65 0.27 -55.0 0 0 199.61 46.06
  L 202.43 42.15
  A 1.40 0.74 -41.6 0 0 202.74 41.32
  L 202.44 37.81
  A 0.66 0.51 88.5 0 0 201.94 37.20
  Q 201.39 37.18 201.25 37.75
  Q 200.97 38.93 201.16 41.94
  A 0.99 0.88 -21.5 0 1 200.77 42.72"
/>
<path stroke="#eb847b" vector-effect="non-scaling-stroke" d="
  M 218.90 39.89
  Q 218.01 39.49 218.42 40.37
  Q 218.87 41.35 219.87 41.89
  A 1.59 1.59 30.7 0 1 220.45 44.15
  Q 219.20 46.07 219.35 47.57
  A 0.58 0.44 80.0 0 0 219.93 48.11
  Q 220.57 47.92 220.98 46.25
  Q 221.26 45.13 221.70 44.06
  Q 222.69 41.60 218.90 39.89"
/>
<path stroke="#879dbd" vector-effect="non-scaling-stroke" d="
  M 117.91 40.90
  Q 116.52 40.05 115.14 40.96
  A 0.42 0.41 50.4 0 0 115.09 41.61
  Q 117.53 44.02 121.08 43.19
  A 0.99 0.90 2.1 0 0 121.77 42.61
  Q 122.09 41.80 121.90 40.98
  A 0.56 0.42 -11.5 0 0 121.28 40.69
  L 118.81 41.19
  A 1.39 0.53 38.8 0 1 117.91 40.90"
/>
<path stroke="#bc776d" vector-effect="non-scaling-stroke" d="
  M 243.04 72.75
  Q 243.20 67.28 241.16 73.60
  A 1.55 1.54 43.2 0 0 241.20 74.65
  Q 243.05 79.24 242.79 73.75"
/>
<path stroke="#c9877b" vector-effect="non-scaling-stroke" d="
  M 242.79 73.75
  Q 244.03 73.64 244.28 74.76
  Q 244.33 74.98 244.42 75.07
  Q 244.74 75.40 244.79 74.68
  Q 244.97 71.96 245.41 69.28
  Q 245.60 68.10 244.72 68.55
  A 1.25 1.24 -19.9 0 0 244.06 69.94
  Q 244.68 72.60 243.04 72.75"
/>
<path stroke="#b53220" vector-effect="non-scaling-stroke" d="
  M 242.79 73.75
  L 243.04 72.75"
/>
<path stroke="#bc776d" vector-effect="non-scaling-stroke" d="
  M 239.50 75.00
  Q 239.16 74.28 240.06 72.06
  Q 240.44 71.14 239.92 71.10
  A 0.71 0.54 -80.7 0 0 239.31 71.67
  L 238.40 75.69
  A 0.95 0.91 29.6 0 0 238.66 76.55
  Q 241.72 79.76 239.50 75.00"
/>
<path stroke="#bc776d" vector-effect="non-scaling-stroke" d="
  M 235.67 77.75
  Q 237.47 79.70 237.85 78.55
  A 0.95 0.64 36.0 0 0 237.55 77.73
  Q 236.18 76.44 236.77 74.58
  Q 237.08 73.60 237.11 73.39
  Q 237.26 72.18 236.54 72.20
  A 0.72 0.45 -84.4 0 0 236.06 72.82
  L 235.44 76.68
  A 1.42 0.89 -70.0 0 0 235.67 77.75"
/>
<path stroke="#c9877b" vector-effect="non-scaling-stroke" d="
  M 233.38 78.03
  Q 233.73 76.71 233.43 75.18
  A 0.66 0.45 77.0 0 0 232.82 74.62
  Q 232.49 74.72 232.42 75.33
  Q 232.23 77.00 232.10 78.69
  A 0.92 0.82 -72.4 0 0 232.46 79.49
  Q 233.35 80.08 234.44 80.17
  A 0.62 0.37 0.2 0 0 235.14 79.75
  Q 235.06 79.40 234.07 79.16
  A 0.93 0.92 -76.5 0 1 233.38 78.03"
/>
<path stroke="#c9877b" vector-effect="non-scaling-stroke" d="
  M 230.74 80.74
  A 1.07 1.05 -73.8 0 1 230.26 79.85
  Q 230.24 75.13 229.06 76.36
  A 1.10 0.78 67.5 0 0 228.86 77.23
  Q 229.12 78.79 228.29 80.09
  A 0.52 0.48 -57.2 0 0 228.41 80.78
  Q 229.37 81.40 230.44 81.80
  Q 230.86 81.96 231.21 81.89
  Q 232.22 81.67 230.74 80.74"
/>
<path stroke="#ca8e83" vector-effect="non-scaling-stroke" d="
  M 227.20 81.19
  Q 226.91 79.86 226.70 78.51
  Q 226.54 77.50 225.96 77.78
  A 0.92 0.72 80.4 0 0 225.53 78.57
  L 225.55 82.18
  A 0.98 0.95 4.6 0 0 226.38 83.12
  Q 230.27 83.74 227.73 81.97
  A 1.37 1.28 12.8 0 1 227.20 81.19"
/>
<path stroke="#ca8e83" vector-effect="non-scaling-stroke" d="
  M 223.79 83.44
  Q 223.64 80.76 223.50 80.25
  Q 223.19 79.17 222.63 79.68
  A 1.33 0.93 76.2 0 0 222.29 80.56
  L 222.24 84.26
  A 0.80 0.78 -77.8 0 0 222.69 84.98
  Q 224.23 85.70 225.68 85.26
  Q 226.74 84.95 225.66 84.60
  L 224.26 84.15
  A 0.82 0.66 -84.9 0 1 223.79 83.44"
/>
<path stroke="#c9877b" vector-effect="non-scaling-stroke" d="
  M 219.75 86.71
  Q 218.24 87.95 216.28 84.59
  Q 215.93 84.00 215.39 83.59
  Q 215.05 83.33 214.91 83.77
  A 1.85 1.83 -54.0 0 0 215.16 85.43
  Q 217.87 89.22 220.25 86.96"
/>
<path stroke="#ca8e83" vector-effect="non-scaling-stroke" d="
  M 220.25 86.96
  Q 221.60 87.38 222.37 86.69
  Q 222.74 86.35 222.19 86.23
  Q 220.28 85.81 220.57 83.96
  Q 220.73 82.95 220.69 82.54
  Q 220.42 80.10 219.56 81.43
  Q 219.24 81.93 219.28 82.65
  Q 219.40 84.69 219.75 86.71"
/>
<path stroke="#c34936" vector-effect="non-scaling-stroke" d="
  M 220.25 86.96
  Q 220.10 86.66 219.75 86.71"
/>
<path stroke="#879dbd" vector-effect="non-scaling-stroke" d="
  M 48.81 69.31
  Q 50.77 67.04 51.25 63.25
  Q 51.80 58.94 51.16 55.21
  Q 50.42 50.96 47.78 48.66
  Q 44.78 46.06 40.25 46.03
  Q 36.88 46.00 33.52 46.00
  A 0.52 0.52 0.0 0 0 33.00 46.52
  L 32.93 72.72
  A 0.54 0.53 1.1 0 0 33.45 73.25
  Q 37.38 73.36 41.26 73.07
  Q 45.86 72.74 48.81 69.31"
/>
<path stroke="#879dbd" vector-effect="non-scaling-stroke" d="
  M 76.77 74.60
  Q 78.60 74.98 80.20 74.20
  Q 82.27 73.18 83.07 70.72
  Q 83.82 68.40 83.37 65.40
  A 0.43 0.42 -13.5 0 0 82.81 65.06
  Q 80.39 65.89 78.08 66.51
  Q 75.06 67.31 74.05 68.59
  Q 72.52 70.53 74.09 72.80
  Q 75.10 74.24 76.77 74.60"
/>
<path stroke="#879dbd" vector-effect="non-scaling-stroke" d="
  M 150.63 74.63
  Q 155.05 74.88 156.27 69.94
  Q 156.71 68.13 156.77 65.36
  A 0.38 0.37 -8.4 0 0 156.28 65.00
  Q 153.69 65.83 151.41 66.45
  Q 148.31 67.30 147.20 68.60
  Q 145.42 70.66 147.27 72.94
  Q 148.55 74.51 150.63 74.63"
/>
</g>
<path fill="#ffffff" d="
  M 0.00 0.00
  L 259.00 0.00
  L 259.00 116.00
  L 0.00 116.00
  L 0.00 0.00
  Z
  M 2.04 9.50
  L 2.03 106.63
  L 2.00 113.49
  A 0.52 0.51 0.0 0 0 2.52 114.00
  L 257.12 114.00
  A 0.83 0.75 -1.0 0 0 257.95 113.22
  L 257.72 106.42
  L 257.71 9.50
  Q 258.41 6.02 257.78 2.55
  A 0.60 0.60 -5.2 0 0 257.19 2.06
  L 2.77 2.00
  A 0.72 0.69 0.0 0 0 2.05 2.69
  L 2.04 9.50
  Z"
/>
<path fill="#be053a" d="
  M 257.71 9.50
  Q 169.85 9.33 82.00 9.75
  Q 65.22 9.83 2.04 9.50
  L 2.05 2.69
  A 0.72 0.69 -0.0 0 1 2.77 2.00
  L 257.19 2.06
  A 0.60 0.60 -5.2 0 1 257.78 2.55
  Q 258.41 6.02 257.71 9.50
  Z"
/>
<path fill="#0f3a7a" d="
  M 2.04 9.50
  Q 65.22 9.83 82.00 9.75
  Q 169.85 9.33 257.71 9.50
  L 257.72 106.42
  L 2.03 106.63
  L 2.04 9.50
  Z
  M 184.75 37.46
  Q 180.64 42.55 179.54 49.00
  Q 175.36 66.95 187.00 80.79
  Q 195.44 90.33 208.00 92.71
  L 209.25 92.71
  Q 212.14 93.79 216.00 93.50
  Q 236.96 91.91 246.79 74.00
  L 248.04 72.25
  Q 249.58 71.06 248.96 69.00
  Q 249.57 68.09 249.46 67.00
  Q 252.42 57.59 249.69 48.06
  Q 247.62 40.82 242.58 35.01
  Q 241.84 33.47 240.25 32.54
  Q 232.77 24.95 222.29 23.00
  Q 198.71 18.80 184.75 37.46
  Z
  M 109.72 76.61
  Q 105.44 78.24 104.44 79.19
  Q 100.89 82.55 96.09 82.95
  Q 96.05 82.96 94.42 82.86
  Q 92.05 82.71 91.33 86.04
  Q 91.22 86.54 90.96 86.98
  Q 89.91 88.76 90.18 90.30
  Q 90.31 91.10 90.83 92.60
  Q 91.57 94.72 93.57 93.02
  A 1.79 1.14 87.8 0 0 94.05 92.20
  Q 94.63 90.08 96.60 89.63
  Q 98.73 89.13 98.84 89.09
  Q 107.06 85.96 114.99 82.15
  A 1.50 1.06 -8.0 0 0 115.68 81.50
  L 118.66 75.03
  A 1.25 1.16 -52.1 0 1 120.70 74.70
  Q 126.81 82.87 133.70 89.59
  A 0.73 0.70 -56.5 0 1 133.85 90.39
  Q 132.41 93.69 135.69 93.63
  Q 138.11 93.58 138.30 93.59
  Q 140.67 93.65 142.96 93.07
  A 1.54 1.49 11.1 0 0 143.76 92.55
  Q 146.87 88.71 141.81 88.91
  A 0.88 0.84 72.2 0 1 141.05 88.50
  Q 139.70 86.35 137.50 85.16
  Q 137.05 84.92 136.79 84.51
  Q 130.33 74.26 124.05 63.89
  Q 122.58 61.46 120.64 59.51
  A 2.67 2.66 32.1 0 1 120.00 56.76
  Q 121.01 53.77 119.50 51.01
  A 1.42 1.41 57.1 0 1 119.88 49.22
  Q 121.73 47.81 124.00 47.35
  A 1.55 1.55 -0.3 0 0 125.20 46.14
  Q 125.81 43.02 125.32 40.80
  Q 124.77 38.36 127.24 38.00
  Q 137.57 36.48 147.75 34.25
  Q 150.78 33.59 149.06 31.15
  A 0.90 0.84 -20.3 0 0 148.25 30.81
  Q 139.72 31.95 133.75 34.50
  Q 127.99 36.96 125.56 36.69
  Q 119.63 36.03 114.04 38.01
  A 0.62 0.54 -22.2 0 1 113.30 37.76
  Q 112.87 36.84 113.81 36.31
  Q 117.21 34.44 113.67 33.44
  A 1.14 1.13 84.9 0 1 112.98 32.86
  Q 111.23 29.24 106.98 30.42
  Q 101.18 32.03 102.68 37.83
  A 0.54 0.52 -16.6 0 1 102.33 38.46
  Q 99.46 39.43 99.15 41.93
  Q 98.95 43.52 100.44 46.16
  Q 104.86 53.99 105.69 57.06
  Q 106.20 58.99 107.69 59.26
  A 0.51 0.49 -81.2 0 1 108.08 59.81
  L 107.56 64.94
  A 1.53 0.93 40.3 0 0 107.86 65.84
  Q 111.07 70.32 110.27 75.94
  A 0.87 0.83 -6.8 0 1 109.72 76.61
  Z
  M 50.47 41.62
  Q 45.92 39.25 38.25 39.25
  Q 32.50 39.25 25.47 39.25
  A 0.72 0.72 0.0 0 0 24.75 39.97
  L 24.75 79.11
  A 0.87 0.87 1.0 0 0 25.59 79.98
  Q 32.50 80.16 38.99 79.89
  Q 47.13 79.54 51.13 77.37
  Q 59.20 73.01 59.89 62.26
  Q 59.95 61.24 59.75 57.00
  Q 59.23 46.17 50.47 41.62
  Z
  M 84.25 76.19
  Q 87.77 82.24 94.53 79.45
  A 0.84 0.64 -15.4 0 0 95.06 78.75
  L 94.88 76.48
  Q 94.82 75.76 94.87 75.51
  Q 95.09 74.28 94.23 73.89
  A 1.42 0.59 -25.0 0 0 93.28 73.93
  Q 92.30 74.22 91.68 73.61
  Q 91.26 73.20 91.21 72.25
  Q 90.82 65.26 90.92 58.25
  Q 91.02 50.85 84.75 49.25
  Q 75.29 46.84 67.33 52.96
  A 1.56 1.55 -35.7 0 0 66.98 55.06
  L 69.12 58.28
  A 0.94 0.93 53.1 0 0 70.49 58.48
  Q 76.15 53.76 81.96 55.42
  A 1.52 1.48 -9.7 0 1 82.75 55.96
  Q 84.77 58.70 81.69 60.44
  Q 80.24 61.25 75.49 61.94
  Q 70.79 62.63 68.01 65.18
  Q 66.00 67.02 65.79 69.74
  Q 65.10 78.80 73.25 80.50
  Q 79.76 81.86 83.72 76.16
  A 0.32 0.31 47.7 0 1 84.25 76.19
  Z
  M 157.25 76.18
  Q 161.00 82.23 167.72 79.39
  A 0.75 0.63 -16.3 0 0 168.19 78.68
  L 167.55 74.17
  A 0.61 0.56 -14.3 0 0 166.75 73.74
  Q 165.14 74.35 164.54 73.37
  Q 164.25 72.89 164.25 71.57
  Q 164.25 64.91 164.18 58.25
  Q 164.14 54.39 161.92 51.85
  Q 160.06 49.72 156.33 48.95
  Q 147.08 47.05 139.86 53.66
  A 0.64 0.59 -38.6 0 0 139.74 54.45
  L 142.26 58.28
  A 1.08 0.97 -36.6 0 0 143.78 58.42
  Q 149.36 53.81 154.96 55.41
  A 1.49 1.41 -8.9 0 1 155.74 55.95
  Q 157.47 58.35 155.71 59.82
  Q 154.86 60.53 152.47 61.05
  Q 146.14 62.41 144.25 63.25
  Q 137.36 66.32 139.24 73.94
  Q 140.64 79.62 146.51 80.46
  Q 153.17 81.40 156.73 76.16
  A 0.31 0.31 46.8 0 1 157.25 76.18
  Z"
/>
<path fill="#f0ebe6" d="
  M 222.29 23.00
  Q 221.35 24.75 219.44 23.81
  Q 218.84 23.52 218.40 23.82
  A 0.46 0.38 45.4 0 0 218.46 24.49
  Q 220.30 25.99 220.89 28.27
  A 0.98 0.89 -33.4 0 1 220.67 29.12
  Q 219.45 30.53 218.33 32.01
  Q 217.49 33.13 216.87 35.31
  Q 216.27 37.41 215.00 39.21
  L 214.50 39.54
  Q 213.74 40.62 212.50 40.54
  Q 209.76 38.21 211.35 41.06
  Q 211.49 41.32 211.90 41.69
  Q 212.61 42.33 212.25 43.29
  Q 211.31 43.19 210.50 42.71
  L 208.50 39.46
  A 1.05 0.91 72.3 0 0 207.70 38.97
  Q 207.16 38.95 207.22 39.53
  Q 207.26 39.85 207.60 40.23
  Q 209.47 42.31 207.21 44.00
  Q 206.18 44.33 205.25 43.71
  Q 206.89 41.99 205.61 40.08
  Q 205.34 39.68 205.29 39.19
  Q 205.20 38.17 204.69 38.27
  A 0.69 0.55 81.7 0 0 204.26 39.00
  L 204.65 42.26
  A 0.79 0.73 71.1 0 1 204.32 43.00
  Q 202.26 44.30 202.38 46.85
  Q 196.56 55.28 193.31 57.81
  Q 191.16 59.49 186.50 60.75
  Q 183.58 61.54 182.69 65.19
  Q 182.59 65.57 182.15 65.95
  A 0.97 0.83 -26.8 0 0 181.82 66.74
  Q 182.40 70.74 182.75 72.00
  Q 183.59 75.05 186.00 77.04
  Q 187.33 78.79 187.00 80.79
  Q 175.36 66.95 179.54 49.00
  Q 180.24 48.17 180.70 47.21
  Q 180.90 46.81 180.92 46.12
  Q 180.96 44.80 181.91 45.39
  A 0.41 0.40 28.3 0 0 182.50 45.22
  Q 183.49 43.06 185.94 43.35
  A 0.77 0.76 19.9 0 0 186.68 43.01
  Q 187.63 41.53 188.38 43.23
  Q 188.56 43.63 188.70 43.21
  Q 189.36 41.29 191.47 39.51
  A 1.11 0.55 89.0 0 0 191.76 38.90
  L 192.32 35.80
  Q 192.57 34.38 191.55 35.31
  Q 190.68 36.11 190.82 37.26
  Q 190.92 38.08 190.85 38.38
  Q 190.54 39.66 189.55 38.41
  A 0.97 0.81 -57.5 0 1 189.44 37.54
  Q 189.81 36.51 189.62 35.49
  Q 189.53 35.00 189.22 35.41
  Q 188.38 36.54 186.96 37.00
  L 185.79 37.75
  Q 185.36 37.35 184.75 37.46
  Q 198.71 18.80 222.29 23.00
  Z
  M 192.60 39.54
  L 189.96 43.70
  A 0.53 0.43 -57.6 0 0 190.04 44.38
  Q 190.30 44.54 190.59 43.89
  Q 191.50 41.93 193.16 40.62
  A 1.98 1.31 -19.5 0 0 193.74 39.85
  Q 194.36 38.09 194.09 36.24
  Q 194.01 35.69 193.67 36.12
  Q 192.79 37.21 192.88 38.69
  A 1.52 0.82 -43.3 0 1 192.60 39.54
  Z
  M 195.19 39.19
  Q 195.08 40.52 192.83 42.91
  Q 192.46 43.30 192.34 43.71
  Q 192.01 44.90 192.97 44.62
  A 1.34 0.91 -76.7 0 0 193.66 43.99
  Q 194.59 42.26 196.10 41.05
  A 1.40 1.19 -17.8 0 0 196.60 40.25
  Q 196.91 38.62 196.72 36.73
  Q 196.54 34.79 195.77 36.58
  Q 195.32 37.63 195.19 39.19
  Z
  M 197.25 41.91
  Q 195.60 42.86 195.16 44.70
  A 0.57 0.46 -79.1 0 0 195.52 45.38
  Q 196.07 45.44 196.39 44.59
  Q 197.17 42.57 199.04 41.69
  A 0.70 0.66 -16.0 0 0 199.44 41.01
  Q 199.34 39.88 199.49 38.75
  Q 199.85 35.99 198.83 37.09
  Q 198.51 37.43 198.39 38.02
  Q 198.08 39.60 197.78 41.20
  A 1.11 1.00 -11.1 0 1 197.25 41.91
  Z
  M 200.77 42.72
  Q 199.21 43.89 198.78 45.84
  Q 198.74 46.02 198.81 46.16
  Q 198.90 46.35 199.04 46.42
  A 0.65 0.27 -55.0 0 0 199.61 46.06
  L 202.43 42.15
  A 1.40 0.74 -41.6 0 0 202.74 41.32
  L 202.44 37.81
  A 0.66 0.51 88.5 0 0 201.94 37.20
  Q 201.39 37.18 201.25 37.75
  Q 200.97 38.93 201.16 41.94
  A 0.99 0.88 -21.5 0 1 200.77 42.72
  Z"
/>
<path fill="#e1ddd8" d="
  M 222.29 23.00
  Q 232.77 24.95 240.25 32.54
  Q 240.85 34.93 238.98 36.29
  A 0.48 0.42 -38.3 0 0 238.86 36.95
  L 240.04 38.25
  Q 240.02 38.81 239.54 39.00
  Q 238.88 38.00 237.80 37.67
  A 0.60 0.55 17.4 0 0 237.08 38.01
  Q 236.80 38.88 238.04 39.25
  Q 237.80 39.78 237.25 39.79
  Q 236.75 39.28 236.12 38.98
  Q 235.69 38.78 235.24 38.92
  Q 233.91 39.33 235.75 40.21
  L 235.00 40.29
  Q 233.90 39.20 232.50 39.21
  Q 231.99 39.22 232.38 39.57
  Q 235.03 41.95 234.00 45.71
  Q 233.29 46.51 232.29 46.50
  L 232.09 43.74
  Q 232.05 43.20 232.15 42.78
  Q 232.51 41.29 231.07 40.43
  Q 225.94 37.36 230.54 41.50
  Q 230.57 43.10 229.29 42.50
  Q 227.56 40.23 226.25 39.75
  Q 224.83 39.23 225.32 40.26
  A 1.69 0.76 19.5 0 0 226.00 40.91
  Q 227.18 41.61 227.46 43.00
  L 226.00 42.96
  Q 224.45 40.48 223.25 40.00
  Q 221.88 39.45 222.65 40.63
  Q 223.14 41.39 223.69 42.10
  A 1.05 1.03 -56.3 0 1 223.86 42.99
  Q 223.13 45.71 223.64 48.47
  Q 223.99 50.27 222.07 50.33
  Q 220.62 50.37 219.98 50.56
  Q 217.63 51.26 215.26 51.88
  Q 212.28 52.67 212.35 55.75
  Q 212.42 58.80 212.56 59.44
  Q 213.49 63.58 209.25 63.72
  Q 203.99 63.90 198.74 63.61
  Q 191.36 63.21 188.91 69.53
  Q 188.06 71.73 187.97 71.93
  Q 187.19 73.81 187.06 75.06
  Q 186.92 76.44 186.00 77.04
  Q 183.59 75.05 182.75 72.00
  Q 182.40 70.74 181.82 66.74
  A 0.97 0.83 -26.8 0 1 182.15 65.95
  Q 182.59 65.57 182.69 65.19
  Q 183.58 61.54 186.50 60.75
  Q 191.16 59.49 193.31 57.81
  Q 196.56 55.28 202.38 46.85
  L 205.25 43.71
  Q 206.18 44.33 207.21 44.00
  L 206.34 46.51
  A 0.82 0.65 -65.6 0 0 206.56 47.40
  Q 206.97 47.67 207.62 47.00
  A 3.44 3.42 72.2 0 0 208.56 45.16
  Q 208.92 43.09 210.21 43.25
  Q 211.01 43.81 212.00 43.79
  L 210.83 45.89
  A 1.87 0.83 -49.8 0 0 210.56 46.82
  Q 210.64 47.95 211.49 47.49
  Q 211.90 47.27 212.17 46.71
  Q 213.02 44.97 213.80 43.20
  A 1.07 0.70 -56.9 0 0 213.80 42.28
  L 212.50 40.54
  Q 213.74 40.62 214.50 39.54
  Q 214.95 40.96 216.06 41.94
  Q 217.54 43.24 215.76 44.35
  A 2.58 2.58 77.4 0 0 214.55 46.26
  Q 214.27 48.87 215.38 47.98
  Q 215.76 47.68 216.01 47.00
  Q 216.78 44.84 217.98 42.92
  A 0.74 0.56 -53.5 0 0 217.97 42.09
  L 215.00 39.21
  Q 216.27 37.41 216.87 35.31
  Q 217.49 33.13 218.33 32.01
  Q 219.45 30.53 220.67 29.12
  A 0.98 0.89 -33.4 0 0 220.89 28.27
  Q 220.30 25.99 218.46 24.49
  A 0.46 0.38 45.4 0 1 218.40 23.82
  Q 218.84 23.52 219.44 23.81
  Q 221.35 24.75 222.29 23.00
  Z
  M 218.90 39.89
  Q 218.01 39.49 218.42 40.37
  Q 218.87 41.35 219.87 41.89
  A 1.59 1.59 30.7 0 1 220.45 44.15
  Q 219.20 46.07 219.35 47.57
  A 0.58 0.44 80.0 0 0 219.93 48.11
  Q 220.57 47.92 220.98 46.25
  Q 221.26 45.13 221.70 44.06
  Q 222.69 41.60 218.90 39.89
  Z"
/>
<path fill="#ffffff" d="
  M 110.27 75.94
  Q 111.07 70.32 107.86 65.84
  A 1.53 0.93 40.3 0 1 107.56 64.94
  L 108.08 59.81
  A 0.51 0.49 -81.2 0 0 107.69 59.26
  Q 106.20 58.99 105.69 57.06
  Q 104.86 53.99 100.44 46.16
  Q 98.95 43.52 99.15 41.93
  Q 99.46 39.43 102.33 38.46
  A 0.54 0.52 -16.6 0 0 102.68 37.83
  Q 101.18 32.03 106.98 30.42
  Q 111.23 29.24 112.98 32.86
  A 1.14 1.13 84.9 0 0 113.67 33.44
  Q 117.21 34.44 113.81 36.31
  Q 112.87 36.84 113.30 37.76
  A 0.62 0.54 -22.2 0 0 114.04 38.01
  Q 119.63 36.03 125.56 36.69
  Q 127.99 36.96 133.75 34.50
  Q 139.72 31.95 148.25 30.81
  A 0.90 0.84 -20.3 0 1 149.06 31.15
  Q 150.78 33.59 147.75 34.25
  Q 137.57 36.48 127.24 38.00
  Q 124.77 38.36 125.32 40.80
  Q 125.81 43.02 125.20 46.14
  A 1.55 1.55 -0.3 0 1 124.00 47.35
  Q 121.73 47.81 119.88 49.22
  A 1.42 1.41 57.1 0 0 119.50 51.01
  Q 121.01 53.77 120.00 56.76
  A 2.67 2.66 32.1 0 0 120.64 59.51
  Q 122.58 61.46 124.05 63.89
  Q 130.33 74.26 136.79 84.51
  Q 137.05 84.92 137.50 85.16
  Q 139.70 86.35 141.05 88.50
  A 0.88 0.84 72.2 0 0 141.81 88.91
  Q 146.87 88.71 143.76 92.55
  A 1.54 1.49 11.1 0 1 142.96 93.07
  Q 140.67 93.65 138.30 93.59
  Q 138.11 93.58 135.69 93.63
  Q 132.41 93.69 133.85 90.39
  A 0.73 0.70 -56.5 0 0 133.70 89.59
  Q 126.81 82.87 120.70 74.70
  A 1.25 1.16 -52.1 0 0 118.66 75.03
  L 115.68 81.50
  A 1.50 1.06 -8.0 0 1 114.99 82.15
  Q 107.06 85.96 98.84 89.09
  Q 98.73 89.13 96.60 89.63
  Q 94.63 90.08 94.05 92.20
  A 1.79 1.14 87.8 0 1 93.57 93.02
  Q 91.57 94.72 90.83 92.60
  Q 90.31 91.10 90.18 90.30
  Q 89.91 88.76 90.96 86.98
  Q 91.22 86.54 91.33 86.04
  Q 92.05 82.71 94.42 82.86
  Q 96.05 82.96 96.09 82.95
  Q 100.89 82.55 104.44 79.19
  Q 105.44 78.24 109.72 76.61
  A 0.87 0.83 -6.8 0 0 110.27 75.94
  Z
  M 117.91 40.90
  Q 116.52 40.05 115.14 40.96
  A 0.42 0.41 50.4 0 0 115.09 41.61
  Q 117.53 44.02 121.08 43.19
  A 0.99 0.90 2.1 0 0 121.77 42.61
  Q 122.09 41.80 121.90 40.98
  A 0.56 0.42 -11.5 0 0 121.28 40.69
  L 118.81 41.19
  A 1.39 0.53 38.8 0 1 117.91 40.90
  Z"
/>
<path fill="#bb6759" d="
  M 240.25 32.54
  Q 241.84 33.47 242.58 35.01
  Q 242.40 37.40 240.81 36.34
  A 1.31 0.97 50.4 0 0 239.97 36.13
  Q 238.30 36.43 240.25 37.00
  Q 241.14 37.26 242.12 38.42
  A 1.56 1.38 -11.3 0 0 242.93 38.89
  Q 245.00 39.34 244.75 41.44
  Q 244.65 42.29 244.13 41.61
  Q 241.53 38.16 242.93 41.39
  Q 243.22 42.07 242.92 42.25
  A 0.69 0.46 59.5 0 1 242.17 41.89
  L 240.04 38.25
  L 238.86 36.95
  A 0.48 0.42 -38.3 0 1 238.98 36.29
  Q 240.85 34.93 240.25 32.54
  Z"
/>
<path fill="#f58d81" d="
  M 179.54 49.00
  Q 180.64 42.55 184.75 37.46
  Q 185.36 37.35 185.79 37.75
  Q 186.23 38.71 185.69 40.19
  Q 184.95 42.21 186.40 41.68
  Q 186.96 41.48 187.24 40.94
  Q 188.26 38.99 186.96 37.00
  Q 188.38 36.54 189.22 35.41
  Q 189.53 35.00 189.62 35.49
  Q 189.81 36.51 189.44 37.54
  A 0.97 0.81 -57.5 0 0 189.55 38.41
  Q 190.54 39.66 190.85 38.38
  Q 190.92 38.08 190.82 37.26
  Q 190.68 36.11 191.55 35.31
  Q 192.57 34.38 192.32 35.80
  L 191.76 38.90
  A 1.11 0.55 89.0 0 1 191.47 39.51
  Q 189.36 41.29 188.70 43.21
  Q 188.56 43.63 188.38 43.23
  Q 187.63 41.53 186.68 43.01
  A 0.77 0.76 19.9 0 1 185.94 43.35
  Q 183.49 43.06 182.50 45.22
  A 0.41 0.40 28.3 0 1 181.91 45.39
  Q 180.96 44.80 180.92 46.12
  Q 180.90 46.81 180.70 47.21
  Q 180.24 48.17 179.54 49.00
  Z"
/>
<path fill="#d0ccc8" d="
  M 242.58 35.01
  Q 247.62 40.82 249.69 48.06
  Q 252.42 57.59 249.46 67.00
  Q 246.63 66.44 246.72 69.25
  A 1.66 1.35 -33.4 0 1 246.44 70.14
  Q 245.69 71.24 246.29 72.50
  Q 246.83 73.15 246.79 74.00
  Q 236.96 91.91 216.00 93.50
  Q 212.14 93.79 209.25 92.71
  Q 209.95 91.88 211.53 91.51
  Q 219.11 92.53 221.50 92.00
  Q 233.85 89.28 241.61 79.54
  Q 242.70 78.17 241.18 79.05
  Q 238.17 80.79 235.49 82.52
  Q 227.70 87.53 218.70 89.60
  Q 217.92 89.77 217.31 89.61
  Q 216.63 89.41 216.00 89.04
  Q 213.96 87.12 213.56 85.44
  Q 213.39 84.69 212.98 84.79
  A 0.77 0.54 81.5 0 0 212.59 85.56
  Q 212.88 88.45 215.50 89.79
  Q 215.80 89.97 215.98 90.23
  Q 216.31 90.70 215.69 90.75
  Q 214.16 90.86 212.75 90.21
  Q 211.22 88.66 210.27 86.71
  Q 209.90 85.97 209.53 86.34
  A 0.99 0.71 64.7 0 0 209.37 87.24
  Q 209.83 88.82 211.04 90.00
  Q 211.07 90.42 210.75 90.54
  Q 208.85 90.06 207.99 88.22
  Q 207.67 87.53 207.20 87.56
  A 0.56 0.45 79.2 0 0 206.84 88.24
  Q 207.14 89.40 208.10 90.10
  A 0.80 0.58 24.1 0 1 208.45 90.70
  Q 208.39 91.38 207.69 90.58
  Q 206.60 89.35 205.04 89.33
  Q 205.16 90.54 204.25 90.29
  Q 203.07 88.72 202.96 90.50
  L 197.26 87.39
  Q 196.87 87.18 197.30 87.10
  Q 198.53 86.85 199.69 86.41
  Q 200.01 86.29 202.52 85.55
  Q 204.85 84.86 206.31 82.56
  Q 207.90 80.07 210.77 76.75
  Q 212.76 74.45 215.73 73.68
  Q 219.08 72.81 222.47 72.10
  Q 226.30 71.29 227.25 68.50
  Q 228.89 63.69 233.70 62.18
  Q 235.55 61.60 236.24 59.80
  Q 239.27 51.96 240.68 43.53
  L 239.54 39.00
  Q 240.02 38.81 240.04 38.25
  L 242.17 41.89
  A 0.69 0.46 59.5 0 0 242.92 42.25
  Q 243.22 42.07 242.93 41.39
  Q 241.53 38.16 244.13 41.61
  Q 244.65 42.29 244.75 41.44
  Q 245.00 39.34 242.93 38.89
  A 1.56 1.38 -11.3 0 1 242.12 38.42
  Q 241.14 37.26 240.25 37.00
  Q 238.30 36.43 239.97 36.13
  A 1.31 0.97 50.4 0 1 240.81 36.34
  Q 242.40 37.40 242.58 35.01
  Z
  M 243.04 72.75
  Q 243.20 67.28 241.16 73.60
  A 1.55 1.54 43.2 0 0 241.20 74.65
  Q 243.05 79.24 242.79 73.75
  Q 244.03 73.64 244.28 74.76
  Q 244.33 74.98 244.42 75.07
  Q 244.74 75.40 244.79 74.68
  Q 244.97 71.96 245.41 69.28
  Q 245.60 68.10 244.72 68.55
  A 1.25 1.24 -19.9 0 0 244.06 69.94
  Q 244.68 72.60 243.04 72.75
  Z
  M 239.50 75.00
  Q 239.16 74.28 240.06 72.06
  Q 240.44 71.14 239.92 71.10
  A 0.71 0.54 -80.7 0 0 239.31 71.67
  L 238.40 75.69
  A 0.95 0.91 29.6 0 0 238.66 76.55
  Q 241.72 79.76 239.50 75.00
  Z
  M 235.67 77.75
  Q 237.47 79.70 237.85 78.55
  A 0.95 0.64 36.0 0 0 237.55 77.73
  Q 236.18 76.44 236.77 74.58
  Q 237.08 73.60 237.11 73.39
  Q 237.26 72.18 236.54 72.20
  A 0.72 0.45 -84.4 0 0 236.06 72.82
  L 235.44 76.68
  A 1.42 0.89 -70.0 0 0 235.67 77.75
  Z
  M 233.38 78.03
  Q 233.73 76.71 233.43 75.18
  A 0.66 0.45 77.0 0 0 232.82 74.62
  Q 232.49 74.72 232.42 75.33
  Q 232.23 77.00 232.10 78.69
  A 0.92 0.82 -72.4 0 0 232.46 79.49
  Q 233.35 80.08 234.44 80.17
  A 0.62 0.37 0.2 0 0 235.14 79.75
  Q 235.06 79.40 234.07 79.16
  A 0.93 0.92 -76.5 0 1 233.38 78.03
  Z
  M 230.74 80.74
  A 1.07 1.05 -73.8 0 1 230.26 79.85
  Q 230.24 75.13 229.06 76.36
  A 1.10 0.78 67.5 0 0 228.86 77.23
  Q 229.12 78.79 228.29 80.09
  A 0.52 0.48 -57.2 0 0 228.41 80.78
  Q 229.37 81.40 230.44 81.80
  Q 230.86 81.96 231.21 81.89
  Q 232.22 81.67 230.74 80.74
  Z
  M 227.20 81.19
  Q 226.91 79.86 226.70 78.51
  Q 226.54 77.50 225.96 77.78
  A 0.92 0.72 80.4 0 0 225.53 78.57
  L 225.55 82.18
  A 0.98 0.95 4.6 0 0 226.38 83.12
  Q 230.27 83.74 227.73 81.97
  A 1.37 1.28 12.8 0 1 227.20 81.19
  Z
  M 223.79 83.44
  Q 223.64 80.76 223.50 80.25
  Q 223.19 79.17 222.63 79.68
  A 1.33 0.93 76.2 0 0 222.29 80.56
  L 222.24 84.26
  A 0.80 0.78 -77.8 0 0 222.69 84.98
  Q 224.23 85.70 225.68 85.26
  Q 226.74 84.95 225.66 84.60
  L 224.26 84.15
  A 0.82 0.66 -84.9 0 1 223.79 83.44
  Z
  M 219.75 86.71
  Q 218.24 87.95 216.28 84.59
  Q 215.93 84.00 215.39 83.59
  Q 215.05 83.33 214.91 83.77
  A 1.85 1.83 -54.0 0 0 215.16 85.43
  Q 217.87 89.22 220.25 86.96
  Q 221.60 87.38 222.37 86.69
  Q 222.74 86.35 222.19 86.23
  Q 220.28 85.81 220.57 83.96
  Q 220.73 82.95 220.69 82.54
  Q 220.42 80.10 219.56 81.43
  Q 219.24 81.93 219.28 82.65
  Q 219.40 84.69 219.75 86.71
  Z"
/>
<path fill="#f4473a" d="
  M 192.88 38.69
  Q 192.79 37.21 193.67 36.12
  Q 194.01 35.69 194.09 36.24
  Q 194.36 38.09 193.74 39.85
  A 1.98 1.31 -19.5 0 1 193.16 40.62
  Q 191.50 41.93 190.59 43.89
  Q 190.30 44.54 190.04 44.38
  A 0.53 0.43 -57.6 0 1 189.96 43.70
  L 192.60 39.54
  A 1.52 0.82 -43.3 0 0 192.88 38.69
  Z"
/>
<path fill="#f4473a" d="
  M 195.19 39.19
  Q 195.32 37.63 195.77 36.58
  Q 196.54 34.79 196.72 36.73
  Q 196.91 38.62 196.60 40.25
  A 1.40 1.19 -17.8 0 1 196.10 41.05
  Q 194.59 42.26 193.66 43.99
  A 1.34 0.91 -76.7 0 1 192.97 44.62
  Q 192.01 44.90 192.34 43.71
  Q 192.46 43.30 192.83 42.91
  Q 195.08 40.52 195.19 39.19
  Z"
/>
<path fill="#f4473a" d="
  M 197.78 41.20
  Q 198.08 39.60 198.39 38.02
  Q 198.51 37.43 198.83 37.09
  Q 199.85 35.99 199.49 38.75
  Q 199.34 39.88 199.44 41.01
  A 0.70 0.66 -16.0 0 1 199.04 41.69
  Q 197.17 42.57 196.39 44.59
  Q 196.07 45.44 195.52 45.38
  A 0.57 0.46 -79.1 0 1 195.16 44.70
  Q 195.60 42.86 197.25 41.91
  A 1.11 1.00 -11.1 0 0 197.78 41.20
  Z"
/>
<path fill="#d0ccc8" d="
  M 186.96 37.00
  Q 188.26 38.99 187.24 40.94
  Q 186.96 41.48 186.40 41.68
  Q 184.95 42.21 185.69 40.19
  Q 186.23 38.71 185.79 37.75
  L 186.96 37.00
  Z"
/>
<path fill="#f4473a" d="
  M 201.16 41.94
  Q 200.97 38.93 201.25 37.75
  Q 201.39 37.18 201.94 37.20
  A 0.66 0.51 88.5 0 1 202.44 37.81
  L 202.74 41.32
  A 1.40 0.74 -41.6 0 1 202.43 42.15
  L 199.61 46.06
  A 0.65 0.27 -55.0 0 1 199.04 46.42
  Q 198.90 46.35 198.81 46.16
  Q 198.74 46.02 198.78 45.84
  Q 199.21 43.89 200.77 42.72
  A 0.99 0.88 -21.5 0 0 201.16 41.94
  Z"
/>
<path fill="#c4503e" d="
  M 239.54 39.00
  L 240.68 43.53
  L 238.04 39.25
  Q 236.80 38.88 237.08 38.01
  A 0.60 0.55 17.4 0 1 237.80 37.67
  Q 238.88 38.00 239.54 39.00
  Z"
/>
<path fill="#f4473a" d="
  M 205.25 43.71
  L 202.38 46.85
  Q 202.26 44.30 204.32 43.00
  A 0.79 0.73 71.1 0 0 204.65 42.26
  L 204.26 39.00
  A 0.69 0.55 81.7 0 1 204.69 38.27
  Q 205.20 38.17 205.29 39.19
  Q 205.34 39.68 205.61 40.08
  Q 206.89 41.99 205.25 43.71
  Z"
/>
<path fill="#c1422e" d="
  M 237.25 39.79
  Q 238.56 41.67 238.68 43.94
  A 1.46 1.21 67.5 0 1 238.40 44.85
  Q 237.56 45.86 237.31 43.94
  Q 236.96 41.16 235.75 40.21
  Q 233.91 39.33 235.24 38.92
  Q 235.69 38.78 236.12 38.98
  Q 236.75 39.28 237.25 39.79
  Z"
/>
<path fill="#ffffff" d="
  M 50.47 41.62
  Q 59.23 46.17 59.75 57.00
  Q 59.95 61.24 59.89 62.26
  Q 59.20 73.01 51.13 77.37
  Q 47.13 79.54 38.99 79.89
  Q 32.50 80.16 25.59 79.98
  A 0.87 0.87 1.0 0 1 24.75 79.11
  L 24.75 39.97
  A 0.72 0.72 0.0 0 1 25.47 39.25
  Q 32.50 39.25 38.25 39.25
  Q 45.92 39.25 50.47 41.62
  Z
  M 48.81 69.31
  Q 50.77 67.04 51.25 63.25
  Q 51.80 58.94 51.16 55.21
  Q 50.42 50.96 47.78 48.66
  Q 44.78 46.06 40.25 46.03
  Q 36.88 46.00 33.52 46.00
  A 0.52 0.52 0.0 0 0 33.00 46.52
  L 32.93 72.72
  A 0.54 0.53 1.1 0 0 33.45 73.25
  Q 37.38 73.36 41.26 73.07
  Q 45.86 72.74 48.81 69.31
  Z"
/>
<path fill="#f52b1d" d="
  M 210.50 42.71
  Q 210.16 42.88 210.21 43.25
  Q 208.92 43.09 208.56 45.16
  A 3.44 3.42 72.2 0 1 207.62 47.00
  Q 206.97 47.67 206.56 47.40
  A 0.82 0.65 -65.6 0 1 206.34 46.51
  L 207.21 44.00
  Q 209.47 42.31 207.60 40.23
  Q 207.26 39.85 207.22 39.53
  Q 207.16 38.95 207.70 38.97
  A 1.05 0.91 72.3 0 1 208.50 39.46
  L 210.50 42.71
  Z"
/>
<path fill="#dc351b" d="
  M 232.29 46.50
  Q 231.59 47.74 231.14 46.66
  Q 231.00 46.32 231.09 45.83
  Q 231.48 43.60 230.54 41.50
  Q 225.94 37.36 231.07 40.43
  Q 232.51 41.29 232.15 42.78
  Q 232.05 43.20 232.09 43.74
  L 232.29 46.50
  Z"
/>
<path fill="#dc351b" d="
  M 235.00 40.29
  Q 235.87 41.97 235.61 43.87
  Q 235.53 44.53 235.51 45.14
  Q 235.45 47.29 234.00 45.71
  Q 235.03 41.95 232.38 39.57
  Q 231.99 39.22 232.50 39.21
  Q 233.90 39.20 235.00 40.29
  Z"
/>
<path fill="#f52b1d" d="
  M 215.00 39.21
  L 217.97 42.09
  A 0.74 0.56 -53.5 0 1 217.98 42.92
  Q 216.78 44.84 216.01 47.00
  Q 215.76 47.68 215.38 47.98
  Q 214.27 48.87 214.55 46.26
  A 2.58 2.58 77.4 0 1 215.76 44.35
  Q 217.54 43.24 216.06 41.94
  Q 214.95 40.96 214.50 39.54
  L 215.00 39.21
  Z"
/>
<path fill="#d8d4cf" d="
  M 238.04 39.25
  L 240.68 43.53
  Q 239.27 51.96 236.24 59.80
  Q 235.55 61.60 233.70 62.18
  Q 228.89 63.69 227.25 68.50
  Q 226.30 71.29 222.47 72.10
  Q 219.08 72.81 215.73 73.68
  Q 212.76 74.45 210.77 76.75
  Q 207.90 80.07 206.31 82.56
  Q 204.85 84.86 202.52 85.55
  Q 200.01 86.29 199.69 86.41
  Q 198.53 86.85 197.30 87.10
  Q 196.87 87.18 197.26 87.39
  L 202.96 90.50
  Q 204.20 91.99 204.25 90.29
  Q 205.16 90.54 205.04 89.33
  L 208.00 92.71
  Q 195.44 90.33 187.00 80.79
  Q 187.33 78.79 186.00 77.04
  Q 186.92 76.44 187.06 75.06
  Q 187.19 73.81 187.97 71.93
  Q 188.06 71.73 188.91 69.53
  Q 191.36 63.21 198.74 63.61
  Q 203.99 63.90 209.25 63.72
  Q 213.49 63.58 212.56 59.44
  Q 212.42 58.80 212.35 55.75
  Q 212.28 52.67 215.26 51.88
  Q 217.63 51.26 219.98 50.56
  Q 220.62 50.37 222.07 50.33
  Q 223.99 50.27 223.64 48.47
  Q 225.34 45.81 226.00 42.96
  L 227.46 43.00
  Q 227.11 45.13 227.67 47.20
  A 0.35 0.32 62.1 0 0 228.21 47.39
  Q 229.15 46.51 228.78 44.99
  Q 228.44 43.57 229.29 42.50
  Q 230.57 43.10 230.54 41.50
  Q 231.48 43.60 231.09 45.83
  Q 231.00 46.32 231.14 46.66
  Q 231.59 47.74 232.29 46.50
  Q 233.29 46.51 234.00 45.71
  Q 235.45 47.29 235.51 45.14
  Q 235.53 44.53 235.61 43.87
  Q 235.87 41.97 235.00 40.29
  L 235.75 40.21
  Q 236.96 41.16 237.31 43.94
  Q 237.56 45.86 238.40 44.85
  A 1.46 1.21 67.5 0 0 238.68 43.94
  Q 238.56 41.67 237.25 39.79
  Q 237.80 39.78 238.04 39.25
  Z"
/>
<path fill="#f52b1d" d="
  M 212.50 40.54
  L 213.80 42.28
  A 1.07 0.70 -56.9 0 1 213.80 43.20
  Q 213.02 44.97 212.17 46.71
  Q 211.90 47.27 211.49 47.49
  Q 210.64 47.95 210.56 46.82
  A 1.87 0.83 -49.8 0 1 210.83 45.89
  L 212.00 43.79
  Q 212.35 43.64 212.25 43.29
  Q 212.61 42.33 211.90 41.69
  Q 211.49 41.32 211.35 41.06
  Q 209.76 38.21 212.50 40.54
  Z"
/>
<path fill="#dc351b" d="
  M 229.29 42.50
  Q 228.44 43.57 228.78 44.99
  Q 229.15 46.51 228.21 47.39
  A 0.35 0.32 62.1 0 1 227.67 47.20
  Q 227.11 45.13 227.46 43.00
  Q 227.18 41.61 226.00 40.91
  A 1.69 0.76 19.5 0 1 225.32 40.26
  Q 224.83 39.23 226.25 39.75
  Q 227.56 40.23 229.29 42.50
  Z"
/>
<path fill="#f52b1d" d="
  M 218.90 39.89
  Q 222.69 41.60 221.70 44.06
  Q 221.26 45.13 220.98 46.25
  Q 220.57 47.92 219.93 48.11
  A 0.58 0.44 80.0 0 1 219.35 47.57
  Q 219.20 46.07 220.45 44.15
  A 1.59 1.59 30.7 0 0 219.87 41.89
  Q 218.87 41.35 218.42 40.37
  Q 218.01 39.49 218.90 39.89
  Z"
/>
<path fill="#dc351b" d="
  M 226.00 42.96
  Q 225.34 45.81 223.64 48.47
  Q 223.13 45.71 223.86 42.99
  A 1.05 1.03 -56.3 0 0 223.69 42.10
  Q 223.14 41.39 222.65 40.63
  Q 221.88 39.45 223.25 40.00
  Q 224.45 40.48 226.00 42.96
  Z"
/>
<path fill="#0f3a7a" d="
  M 118.81 41.19
  L 121.28 40.69
  A 0.56 0.42 -11.5 0 1 121.90 40.98
  Q 122.09 41.80 121.77 42.61
  A 0.99 0.90 2.1 0 1 121.08 43.19
  Q 117.53 44.02 115.09 41.61
  A 0.42 0.41 50.4 0 1 115.14 40.96
  Q 116.52 40.05 117.91 40.90
  A 1.39 0.53 38.8 0 0 118.81 41.19
  Z"
/>
<path fill="#afa299" d="
  M 210.50 42.71
  Q 211.31 43.19 212.25 43.29
  Q 212.35 43.64 212.00 43.79
  Q 211.01 43.81 210.21 43.25
  Q 210.16 42.88 210.50 42.71
  Z"
/>
<path fill="#0f3a7a" d="
  M 48.81 69.31
  Q 45.86 72.74 41.26 73.07
  Q 37.38 73.36 33.45 73.25
  A 0.54 0.53 1.1 0 1 32.93 72.72
  L 33.00 46.52
  A 0.52 0.52 0.0 0 1 33.52 46.00
  Q 36.88 46.00 40.25 46.03
  Q 44.78 46.06 47.78 48.66
  Q 50.42 50.96 51.16 55.21
  Q 51.80 58.94 51.25 63.25
  Q 50.77 67.04 48.81 69.31
  Z"
/>
<path fill="#ffffff" d="
  M 83.72 76.16
  Q 79.76 81.86 73.25 80.50
  Q 65.10 78.80 65.79 69.74
  Q 66.00 67.02 68.01 65.18
  Q 70.79 62.63 75.49 61.94
  Q 80.24 61.25 81.69 60.44
  Q 84.77 58.70 82.75 55.96
  A 1.52 1.48 -9.7 0 0 81.96 55.42
  Q 76.15 53.76 70.49 58.48
  A 0.94 0.93 53.1 0 1 69.12 58.28
  L 66.98 55.06
  A 1.56 1.55 -35.7 0 1 67.33 52.96
  Q 75.29 46.84 84.75 49.25
  Q 91.02 50.85 90.92 58.25
  Q 90.82 65.26 91.21 72.25
  Q 91.26 73.20 91.68 73.61
  Q 92.30 74.22 93.28 73.93
  A 1.42 0.59 -25.0 0 1 94.23 73.89
  Q 95.09 74.28 94.87 75.51
  Q 94.82 75.76 94.88 76.48
  L 95.06 78.75
  A 0.84 0.64 -15.4 0 1 94.53 79.45
  Q 87.77 82.24 84.25 76.19
  A 0.32 0.31 47.7 0 0 83.72 76.16
  Z
  M 76.77 74.60
  Q 78.60 74.98 80.20 74.20
  Q 82.27 73.18 83.07 70.72
  Q 83.82 68.40 83.37 65.40
  A 0.43 0.42 -13.5 0 0 82.81 65.06
  Q 80.39 65.89 78.08 66.51
  Q 75.06 67.31 74.05 68.59
  Q 72.52 70.53 74.09 72.80
  Q 75.10 74.24 76.77 74.60
  Z"
/>
<path fill="#ffffff" d="
  M 156.73 76.16
  Q 153.17 81.40 146.51 80.46
  Q 140.64 79.62 139.24 73.94
  Q 137.36 66.32 144.25 63.25
  Q 146.14 62.41 152.47 61.05
  Q 154.86 60.53 155.71 59.82
  Q 157.47 58.35 155.74 55.95
  A 1.49 1.41 -8.9 0 0 154.96 55.41
  Q 149.36 53.81 143.78 58.42
  A 1.08 0.97 -36.6 0 1 142.26 58.28
  L 139.74 54.45
  A 0.64 0.59 -38.6 0 1 139.86 53.66
  Q 147.08 47.05 156.33 48.95
  Q 160.06 49.72 161.92 51.85
  Q 164.14 54.39 164.18 58.25
  Q 164.25 64.91 164.25 71.57
  Q 164.25 72.89 164.54 73.37
  Q 165.14 74.35 166.75 73.74
  A 0.61 0.56 -14.3 0 1 167.55 74.17
  L 168.19 78.68
  A 0.75 0.63 -16.3 0 1 167.72 79.39
  Q 161.00 82.23 157.25 76.18
  A 0.31 0.31 46.8 0 0 156.73 76.16
  Z
  M 150.63 74.63
  Q 155.05 74.88 156.27 69.94
  Q 156.71 68.13 156.77 65.36
  A 0.38 0.37 -8.4 0 0 156.28 65.00
  Q 153.69 65.83 151.41 66.45
  Q 148.31 67.30 147.20 68.60
  Q 145.42 70.66 147.27 72.94
  Q 148.55 74.51 150.63 74.63
  Z"
/>
<path fill="#0f3a7a" d="
  M 74.09 72.80
  Q 72.52 70.53 74.05 68.59
  Q 75.06 67.31 78.08 66.51
  Q 80.39 65.89 82.81 65.06
  A 0.43 0.42 -13.5 0 1 83.37 65.40
  Q 83.82 68.40 83.07 70.72
  Q 82.27 73.18 80.20 74.20
  Q 78.60 74.98 76.77 74.60
  Q 75.10 74.24 74.09 72.80
  Z"
/>
<path fill="#0f3a7a" d="
  M 147.27 72.94
  Q 145.42 70.66 147.20 68.60
  Q 148.31 67.30 151.41 66.45
  Q 153.69 65.83 156.28 65.00
  A 0.38 0.37 -8.4 0 1 156.77 65.36
  Q 156.71 68.13 156.27 69.94
  Q 155.05 74.88 150.63 74.63
  Q 148.55 74.51 147.27 72.94
  Z"
/>
<path fill="#bb6759" d="
  M 249.46 67.00
  Q 249.57 68.09 248.96 69.00
  Q 247.96 69.79 247.71 71.00
  L 246.29 72.50
  Q 245.69 71.24 246.44 70.14
  A 1.66 1.35 -33.4 0 0 246.72 69.25
  Q 246.63 66.44 249.46 67.00
  Z"
/>
<path fill="#c1422e" d="
  M 242.79 73.75
  L 243.04 72.75
  Q 244.68 72.60 244.06 69.94
  A 1.25 1.24 -19.9 0 1 244.72 68.55
  Q 245.60 68.10 245.41 69.28
  Q 244.97 71.96 244.79 74.68
  Q 244.74 75.40 244.42 75.07
  Q 244.33 74.98 244.28 74.76
  Q 244.03 73.64 242.79 73.75
  Z"
/>
<path fill="#a82111" d="
  M 248.96 69.00
  Q 249.58 71.06 248.04 72.25
  Q 248.11 71.54 247.71 71.00
  Q 247.96 69.79 248.96 69.00
  Z"
/>
<path fill="#a82111" d="
  M 243.04 72.75
  L 242.79 73.75
  Q 243.05 79.24 241.20 74.65
  A 1.55 1.54 43.2 0 1 241.16 73.60
  Q 243.20 67.28 243.04 72.75
  Z"
/>
<path fill="#a82111" d="
  M 239.50 75.00
  Q 241.72 79.76 238.66 76.55
  A 0.95 0.91 29.6 0 1 238.40 75.69
  L 239.31 71.67
  A 0.71 0.54 -80.7 0 1 239.92 71.10
  Q 240.44 71.14 240.06 72.06
  Q 239.16 74.28 239.50 75.00
  Z"
/>
<path fill="#afa299" d="
  M 247.71 71.00
  Q 248.11 71.54 248.04 72.25
  L 246.79 74.00
  Q 246.83 73.15 246.29 72.50
  L 247.71 71.00
  Z"
/>
<path fill="#a82111" d="
  M 235.67 77.75
  A 1.42 0.89 -70.0 0 1 235.44 76.68
  L 236.06 72.82
  A 0.72 0.45 -84.4 0 1 236.54 72.20
  Q 237.26 72.18 237.11 73.39
  Q 237.08 73.60 236.77 74.58
  Q 236.18 76.44 237.55 77.73
  A 0.95 0.64 36.0 0 1 237.85 78.55
  Q 237.47 79.70 235.67 77.75
  Z"
/>
<path fill="#c1422e" d="
  M 233.38 78.03
  A 0.93 0.92 -76.5 0 0 234.07 79.16
  Q 235.06 79.40 235.14 79.75
  A 0.62 0.37 0.2 0 1 234.44 80.17
  Q 233.35 80.08 232.46 79.49
  A 0.92 0.82 -72.4 0 1 232.10 78.69
  Q 232.23 77.00 232.42 75.33
  Q 232.49 74.72 232.82 74.62
  A 0.66 0.45 77.0 0 1 233.43 75.18
  Q 233.73 76.71 233.38 78.03
  Z"
/>
<path fill="#c1422e" d="
  M 230.74 80.74
  Q 232.22 81.67 231.21 81.89
  Q 230.86 81.96 230.44 81.80
  Q 229.37 81.40 228.41 80.78
  A 0.52 0.48 -57.2 0 1 228.29 80.09
  Q 229.12 78.79 228.86 77.23
  A 1.10 0.78 67.5 0 1 229.06 76.36
  Q 230.24 75.13 230.26 79.85
  A 1.07 1.05 -73.8 0 0 230.74 80.74
  Z"
/>
<path fill="#c4503e" d="
  M 227.73 81.97
  Q 230.27 83.74 226.38 83.12
  A 0.98 0.95 4.6 0 1 225.55 82.18
  L 225.53 78.57
  A 0.92 0.72 80.4 0 1 225.96 77.78
  Q 226.54 77.50 226.70 78.51
  Q 226.91 79.86 227.20 81.19
  A 1.37 1.28 12.8 0 0 227.73 81.97
  Z"
/>
<path fill="#afa299" d="
  M 211.53 91.51
  Q 211.56 91.01 210.75 90.54
  Q 211.07 90.42 211.04 90.00
  Q 211.87 91.27 212.75 90.21
  Q 214.16 90.86 215.69 90.75
  Q 216.31 90.70 215.98 90.23
  Q 215.80 89.97 215.50 89.79
  Q 215.83 89.47 216.00 89.04
  Q 216.63 89.41 217.31 89.61
  Q 217.92 89.77 218.70 89.60
  Q 227.70 87.53 235.49 82.52
  Q 238.17 80.79 241.18 79.05
  Q 242.70 78.17 241.61 79.54
  Q 233.85 89.28 221.50 92.00
  Q 219.11 92.53 211.53 91.51
  Z"
/>
<path fill="#c4503e" d="
  M 224.26 84.15
  L 225.66 84.60
  Q 226.74 84.95 225.68 85.26
  Q 224.23 85.70 222.69 84.98
  A 0.80 0.78 -77.8 0 1 222.24 84.26
  L 222.29 80.56
  A 1.33 0.93 76.2 0 1 222.63 79.68
  Q 223.19 79.17 223.50 80.25
  Q 223.64 80.76 223.79 83.44
  A 0.82 0.66 -84.9 0 0 224.26 84.15
  Z"
/>
<path fill="#c4503e" d="
  M 220.25 86.96
  Q 220.10 86.66 219.75 86.71
  Q 219.40 84.69 219.28 82.65
  Q 219.24 81.93 219.56 81.43
  Q 220.42 80.10 220.69 82.54
  Q 220.73 82.95 220.57 83.96
  Q 220.28 85.81 222.19 86.23
  Q 222.74 86.35 222.37 86.69
  Q 221.60 87.38 220.25 86.96
  Z"
/>
<path fill="#c1422e" d="
  M 219.75 86.71
  Q 220.10 86.66 220.25 86.96
  Q 217.87 89.22 215.16 85.43
  A 1.85 1.83 -54.0 0 1 214.91 83.77
  Q 215.05 83.33 215.39 83.59
  Q 215.93 84.00 216.28 84.59
  Q 218.24 87.95 219.75 86.71
  Z"
/>
<path fill="#c1422e" d="
  M 216.00 89.04
  Q 215.83 89.47 215.50 89.79
  Q 212.88 88.45 212.59 85.56
  A 0.77 0.54 81.5 0 1 212.98 84.79
  Q 213.39 84.69 213.56 85.44
  Q 213.96 87.12 216.00 89.04
  Z"
/>
<path fill="#c1422e" d="
  M 212.75 90.21
  Q 211.87 91.27 211.04 90.00
  Q 209.83 88.82 209.37 87.24
  A 0.99 0.71 64.7 0 1 209.53 86.34
  Q 209.90 85.97 210.27 86.71
  Q 211.22 88.66 212.75 90.21
  Z"
/>
<path fill="#c4503e" d="
  M 210.75 90.54
  Q 211.56 91.01 211.53 91.51
  Q 209.95 91.88 209.25 92.71
  L 208.00 92.71
  L 205.04 89.33
  Q 206.60 89.35 207.69 90.58
  Q 208.39 91.38 208.45 90.70
  A 0.80 0.58 24.1 0 0 208.10 90.10
  Q 207.14 89.40 206.84 88.24
  A 0.56 0.45 79.2 0 1 207.20 87.56
  Q 207.67 87.53 207.99 88.22
  Q 208.85 90.06 210.75 90.54
  Z"
/>
<path fill="#bb6759" d="
  M 204.25 90.29
  Q 204.20 91.99 202.96 90.50
  Q 203.07 88.72 204.25 90.29
  Z"
/>
<path fill="#be053a" d="
  M 257.72 106.42
  L 257.95 113.22
  A 0.83 0.75 -1.0 0 1 257.12 114.00
  L 2.52 114.00
  A 0.52 0.51 -0.0 0 1 2.00 113.49
  L 2.03 106.63
  L 257.72 106.42
  Z"
/>
</svg>
