<?xml version="1.0" encoding="UTF-8" standalone="no"?>
<!DOCTYPE svg PUBLIC "-//W3C//DTD SVG 1.1//EN" "http://www.w3.org/Graphics/SVG/1.1/DTD/svg11.dtd">
<svg xmlns="http://www.w3.org/2000/svg" version="1.1" viewBox="0 0 246 247">
<g stroke-width="2.00" fill="none" stroke-linecap="butt">
<path stroke="#ebe7e2" vector-effect="non-scaling-stroke" d="
  M 135.75 6.04
  Q 134.48 8.42 135.81 9.94
  Q 139.50 14.13 143.14 18.35
  Q 145.61 21.22 146.84 24.77
  A 1.35 1.34 46.4 0 1 146.82 25.72
  Q 145.20 29.86 141.69 32.69
  Q 138.19 35.53 135.40 39.03
  Q 133.90 40.92 133.27 42.91
  Q 132.68 44.80 132.25 47.25
  Q 131.07 53.99 125.85 59.10
  Q 123.11 61.78 119.95 63.95
  Q 119.41 64.32 119.18 64.70
  Q 118.51 65.85 120.47 65.55
  Q 120.77 65.50 121.02 65.54
  Q 123.66 65.95 120.50 66.29"
/>
<path stroke="#798dad" vector-effect="non-scaling-stroke" d="
  M 120.50 66.29
  L 117.00 66.21"
/>
<path stroke="#f19d95" vector-effect="non-scaling-stroke" d="
  M 117.00 66.21
  Q 115.73 64.11 112.71 62.47
  Q 111.15 61.63 111.52 63.36
  Q 111.86 64.93 113.00 66.21"
/>
<path stroke="#798dad" vector-effect="non-scaling-stroke" d="
  M 113.00 66.21
  Q 109.49 66.82 106.00 66.21"
/>
<path stroke="#f19d95" vector-effect="non-scaling-stroke" d="
  M 106.00 66.21
  Q 104.76 62.49 101.56 60.91
  Q 99.29 59.78 99.68 62.29
  Q 100.08 64.87 101.50 66.46"
/>
<path stroke="#798dad" vector-effect="non-scaling-stroke" d="
  M 101.50 66.46
  L 94.00 66.21"
/>
<path stroke="#f19d95" vector-effect="non-scaling-stroke" d="
  M 94.00 66.21
  L 91.07 57.29
  Q 90.83 56.55 90.58 57.29
  Q 88.31 63.98 91.04 69.00"
/>
<path stroke="#798dad" vector-effect="non-scaling-stroke" d="
  M 91.04 69.00
  L 89.50 76.21"
/>
<path stroke="#f19d95" vector-effect="non-scaling-stroke" d="
  M 89.50 76.21
  Q 86.22 78.30 83.19 83.19
  Q 82.25 84.70 83.13 85.67
  A 1.75 1.15 29.5 0 1 83.55 86.49
  L 84.00 89.46"
/>
<path stroke="#ebe7e2" vector-effect="non-scaling-stroke" d="
  M 84.00 89.46
  Q 83.45 89.77 82.88 90.05
  Q 82.30 90.33 81.92 90.80
  Q 74.33 100.09 66.81 109.43
  Q 58.31 119.99 57.47 120.85
  Q 52.25 126.20 45.44 129.69
  Q 43.14 130.86 32.49 134.26
  Q 26.02 136.33 23.21 138.57
  Q 16.05 144.29 15.65 154.51
  Q 15.34 162.55 17.00 173.50
  Q 17.31 175.57 15.25 175.04"
/>
<path stroke="#db988a" vector-effect="non-scaling-stroke" d="
  M 4.04 103.75
  Q 7.29 101.59 5.21 98.00"
/>
<path stroke="#eb9c8c" vector-effect="non-scaling-stroke" d="
  M 6.25 94.21
  Q 7.02 94.57 7.81 94.59
  A 0.59 0.57 -86.2 0 0 8.39 94.07
  Q 8.60 92.20 7.71 90.50"
/>
<path stroke="#e39a8c" vector-effect="non-scaling-stroke" d="
  M 9.00 88.71
  Q 11.67 90.51 10.98 87.97
  Q 10.75 87.13 10.71 86.49
  Q 10.63 85.24 10.46 84.00"
/>
<path stroke="#dfb8b0" vector-effect="non-scaling-stroke" d="
  M 12.29 78.75
  Q 13.25 77.54 14.75 77.29"
/>
<path stroke="#f19d95" vector-effect="non-scaling-stroke" d="
  M 14.75 77.29
  Q 13.40 80.50 14.67 83.78
  Q 15.26 85.29 15.75 84.69
  A 1.38 0.75 72.8 0 0 15.94 83.75
  Q 15.47 79.72 17.05 75.97
  A 1.94 1.60 56.5 0 0 17.15 75.01
  Q 16.79 72.70 19.21 72.00"
/>
<path stroke="#f19d95" vector-effect="non-scaling-stroke" d="
  M 19.21 72.00
  Q 17.88 75.47 19.00 79.00
  Q 19.55 80.74 19.75 79.00
  Q 20.44 73.07 23.50 68.05
  Q 23.60 67.90 24.29 67.23
  Q 24.82 66.70 24.50 65.96"
/>
<path stroke="#f4f2ef" vector-effect="non-scaling-stroke" d="
  M 24.50 65.96
  Q 24.65 65.61 25.00 65.46"
/>
<path stroke="#f19d95" vector-effect="non-scaling-stroke" d="
  M 25.00 65.46
  Q 26.23 65.36 27.14 64.60
  A 0.78 0.68 60.8 0 0 27.31 63.78
  Q 26.00 60.26 27.34 56.65
  Q 28.01 54.87 26.50 55.46"
/>
<path stroke="#793d5a" vector-effect="non-scaling-stroke" d="
  M 117.00 66.21
  L 113.00 66.21"
/>
<path stroke="#793d5a" vector-effect="non-scaling-stroke" d="
  M 106.00 66.21
  L 101.50 66.46"
/>
<path stroke="#793d5a" vector-effect="non-scaling-stroke" d="
  M 94.00 66.21
  Q 91.13 66.03 91.04 69.00"
/>
<path stroke="#f4a29c" vector-effect="non-scaling-stroke" d="
  M 25.00 65.46
  Q 23.39 61.54 24.96 57.50"
/>
<path stroke="#e0dcd8" vector-effect="non-scaling-stroke" d="
  M 180.49 18.86
  Q 178.04 20.26 178.85 22.61
  Q 179.67 24.98 179.70 25.12
  Q 180.25 27.69 181.10 30.18
  Q 183.43 36.99 181.05 43.77
  Q 177.74 53.21 173.46 62.25"
/>
<path stroke="#e49586" vector-effect="non-scaling-stroke" d="
  M 173.46 62.25
  Q 172.06 61.76 170.80 60.96
  Q 169.97 60.44 169.83 60.94
  A 1.08 0.66 38.5 0 0 170.15 61.81
  Q 172.32 64.13 178.06 68.69
  Q 181.05 71.06 180.12 75.26
  Q 180.01 75.76 180.15 76.22
  Q 181.81 81.71 180.21 87.25"
/>
<path stroke="#e0dcd8" vector-effect="non-scaling-stroke" d="
  M 180.21 87.25
  Q 179.70 87.66 179.46 88.25"
/>
<path stroke="#7287a7" vector-effect="non-scaling-stroke" d="
  M 179.46 88.25
  Q 175.53 81.76 169.99 76.95"
/>
<path stroke="#e49586" vector-effect="non-scaling-stroke" d="
  M 169.99 76.95
  Q 173.40 74.40 177.36 74.48
  Q 177.64 74.49 178.11 74.60
  Q 179.00 74.80 178.89 74.27
  A 1.05 0.77 7.4 0 0 178.22 73.63
  Q 176.21 72.98 173.99 73.95
  A 0.41 0.40 -14.6 0 1 173.42 73.62
  Q 173.23 71.74 172.06 70.34
  Q 171.91 70.17 169.64 67.94
  Q 166.21 64.57 161.56 63.16
  Q 160.90 62.96 160.42 63.11
  Q 159.21 63.47 160.75 64.75
  Q 164.54 67.90 169.69 74.06
  Q 170.71 75.29 168.75 75.79"
/>
<path stroke="#7287a7" vector-effect="non-scaling-stroke" d="
  M 168.75 75.79
  L 160.75 71.21"
/>
<path stroke="#e49586" vector-effect="non-scaling-stroke" d="
  M 160.75 71.21
  Q 156.82 66.05 151.25 63.46
  Q 149.28 62.54 150.31 64.42
  L 152.50 68.46"
/>
<path stroke="#7287a7" vector-effect="non-scaling-stroke" d="
  M 152.50 68.46
  L 143.25 66.71"
/>
<path stroke="#eb978f" vector-effect="non-scaling-stroke" d="
  M 143.25 66.71
  Q 140.98 63.93 137.55 63.16
  A 0.40 0.40 5.0 0 0 137.06 63.57
  Q 137.11 65.09 138.00 66.46"
/>
<path stroke="#7287a7" vector-effect="non-scaling-stroke" d="
  M 138.00 66.46
  L 131.50 66.21"
/>
<path stroke="#eb978f" vector-effect="non-scaling-stroke" d="
  M 131.50 66.21
  Q 129.60 62.76 125.81 62.13
  A 0.76 0.73 18.8 0 0 125.04 62.49
  Q 124.06 64.25 125.25 66.21"
/>
<path stroke="#7287a7" vector-effect="non-scaling-stroke" d="
  M 125.25 66.21
  Q 122.88 66.86 120.50 66.29"
/>
<path stroke="#6e83a3" vector-effect="non-scaling-stroke" d="
  M 112.25 188.54
  L 66.39 188.50
  A 0.40 0.39 6.4 0 1 66.00 188.02
  L 75.21 144.50"
/>
<path stroke="#7287a7" vector-effect="non-scaling-stroke" d="
  M 75.21 144.50
  L 88.00 83.79"
/>
<path stroke="#793d5a" vector-effect="non-scaling-stroke" d="
  M 88.00 83.79
  L 89.50 76.21"
/>
<path stroke="#f14d41" vector-effect="non-scaling-stroke" d="
  M 19.21 72.00
  Q 19.48 71.17 20.49 70.20"
/>
<path stroke="#f4a29c" vector-effect="non-scaling-stroke" d="
  M 20.49 70.20
  Q 19.93 68.26 18.25 66.96"
/>
<path stroke="#e0dcd8" vector-effect="non-scaling-stroke" d="
  M 75.21 144.50
  Q 69.26 143.70 64.25 144.00
  Q 55.78 144.52 49.46 149.25
  Q 44.55 152.93 40.18 161.09
  Q 36.64 167.71 33.44 176.19
  Q 29.85 185.70 31.90 194.44
  Q 32.25 195.92 31.91 196.69
  Q 31.40 197.87 30.00 198.29"
/>
<path stroke="#eb978f" vector-effect="non-scaling-stroke" d="
  M 88.00 83.79
  Q 85.93 85.93 85.25 88.25
  Q 84.91 89.40 84.00 89.46"
/>
<path stroke="#df675c" vector-effect="non-scaling-stroke" d="
  M 14.75 77.29
  Q 15.22 76.59 14.96 75.75"
/>
<path stroke="#e38f88" vector-effect="non-scaling-stroke" d="
  M 14.96 75.75
  Q 15.93 74.83 15.71 73.50"
/>
<path stroke="#f4a29c" vector-effect="non-scaling-stroke" d="
  M 24.50 65.96
  Q 21.37 68.54 22.00 64.25
  Q 22.08 63.73 21.96 61.50"
/>
<path stroke="#793d5a" vector-effect="non-scaling-stroke" d="
  M 131.50 66.21
  L 125.25 66.21"
/>
<path stroke="#723c51" vector-effect="non-scaling-stroke" d="
  M 160.75 71.21
  L 152.50 68.46"
/>
<path stroke="#c58b7f" vector-effect="non-scaling-stroke" d="
  M 212.41 40.82
  Q 211.12 40.70 210.56 40.44
  Q 209.51 39.94 209.44 40.50
  A 0.97 0.78 22.9 0 0 209.88 41.32
  L 216.50 45.71"
/>
<path stroke="#c58b7f" vector-effect="non-scaling-stroke" d="
  M 218.21 49.00
  Q 214.76 46.82 211.16 46.08
  Q 209.13 45.67 210.67 47.05
  Q 214.56 50.53 219.50 52.29"
/>
<path stroke="#d9d5d1" vector-effect="non-scaling-stroke" d="
  M 219.50 52.29
  Q 221.24 55.07 218.25 55.54"
/>
<path stroke="#c58b7f" vector-effect="non-scaling-stroke" d="
  M 218.25 55.54
  Q 216.85 52.50 214.94 51.56
  Q 213.89 51.05 207.99 49.29
  Q 207.04 49.01 206.72 49.47
  A 0.47 0.37 24.1 0 0 207.04 50.08
  Q 213.35 52.07 218.21 56.50"
/>
<path stroke="#d9d5d1" vector-effect="non-scaling-stroke" d="
  M 218.21 56.50
  Q 219.46 57.59 218.54 57.95
  A 1.04 0.69 -83.9 0 0 218.04 58.56
  L 217.75 59.46"
/>
<path stroke="#c58b7f" vector-effect="non-scaling-stroke" d="
  M 217.75 59.46
  Q 216.35 60.96 215.63 59.34
  Q 213.83 55.32 209.73 54.22
  Q 207.85 53.71 207.78 53.69
  Q 204.70 52.72 204.00 52.75
  Q 202.62 52.81 203.67 53.34
  Q 209.11 56.09 213.40 60.40
  A 0.91 0.62 38.0 0 1 213.67 61.24
  L 213.11 62.54
  A 0.91 0.71 -54.3 0 0 213.14 63.32
  L 216.29 67.91"
/>
<path stroke="#d9d5d1" vector-effect="non-scaling-stroke" d="
  M 216.29 67.91
  Q 213.85 66.90 212.98 68.36
  A 2.06 2.05 -40.4 0 0 212.83 70.17
  Q 214.66 74.86 212.79 74.00"
/>
<path stroke="#d18d80" vector-effect="non-scaling-stroke" d="
  M 212.79 74.00
  Q 212.21 70.33 210.44 68.31
  Q 208.47 66.07 210.26 64.65
  A 1.07 1.07 49.1 0 0 210.37 63.09
  Q 205.42 57.74 200.01 56.71
  Q 198.95 56.51 198.31 57.12
  A 0.43 0.39 37.6 0 0 198.43 57.76
  Q 202.95 60.58 207.30 63.65
  Q 209.54 65.24 207.44 66.72
  A 1.40 1.39 51.5 0 0 207.21 68.79
  Q 211.12 73.16 212.79 78.25"
/>
<path stroke="#d9d5d1" vector-effect="non-scaling-stroke" d="
  M 212.79 78.25
  Q 211.74 78.35 211.50 79.75
  Q 209.06 93.72 202.61 118.97
  Q 201.47 123.45 199.83 127.78
  Q 195.31 139.72 182.64 142.02
  A 2.21 2.20 -90.0 0 0 180.86 143.81
  Q 180.25 147.20 177.14 149.97"
/>
<path stroke="#6e83a3" vector-effect="non-scaling-stroke" d="
  M 177.14 149.97
  Q 183.15 135.72 184.75 119.50
  Q 186.39 102.85 179.46 88.25"
/>
<path stroke="#e09182" vector-effect="non-scaling-stroke" d="
  M 180.21 87.25
  Q 180.13 87.82 180.29 88.30
  A 0.74 0.65 -8.9 0 0 181.00 88.75
  Q 184.36 88.60 184.29 85.00
  Q 184.19 80.47 182.67 76.22
  A 1.07 1.03 -39.8 0 1 182.77 75.33
  Q 184.32 72.76 183.79 69.80
  A 1.51 1.38 17.3 0 0 183.31 68.98
  Q 178.84 64.97 173.46 62.25"
/>
<path stroke="#723c51" vector-effect="non-scaling-stroke" d="
  M 169.99 76.95
  Q 169.09 76.50 168.75 75.79"
/>
<path stroke="#793d5a" vector-effect="non-scaling-stroke" d="
  M 143.25 66.71
  L 138.00 66.46"
/>
<path stroke="#c2877c" vector-effect="non-scaling-stroke" d="
  M 225.50 59.46
  Q 224.10 58.51 223.03 57.21
  Q 222.79 56.92 222.53 56.72
  Q 220.00 54.83 221.95 57.53
  Q 223.73 59.99 225.73 62.26
  Q 226.52 63.15 227.25 62.21"
/>
<path stroke="#b66d6c" vector-effect="non-scaling-stroke" d="
  M 241.46 154.50
  Q 239.73 154.71 239.69 156.94
  Q 239.61 161.84 236.75 167.22
  Q 235.93 168.74 234.29 169.00"
/>
<path stroke="#b66d6c" vector-effect="non-scaling-stroke" d="
  M 234.29 169.00
  Q 233.97 168.29 234.27 167.55
  Q 236.40 162.14 236.26 156.33
  Q 236.25 155.97 236.11 155.72
  Q 235.58 154.71 235.28 156.11
  Q 233.98 162.29 231.69 168.19
  Q 231.41 168.89 230.15 170.31
  A 0.59 0.57 45.9 0 0 230.15 171.07
  Q 232.95 174.42 231.33 178.55
  A 0.45 0.26 -61.6 0 0 231.34 178.94
  Q 231.46 179.07 231.65 178.89
  Q 234.25 176.40 233.75 172.75
  Q 233.48 170.76 234.29 170.00"
/>
<path stroke="#b66d6c" vector-effect="non-scaling-stroke" d="
  M 234.29 170.00
  Q 236.27 169.09 238.60 171.59"
/>
<path stroke="#c7c0bb" vector-effect="non-scaling-stroke" d="
  M 166.97 236.53
  Q 169.71 234.14 172.96 232.58
  Q 177.96 230.17 179.25 229.35
  Q 194.65 219.45 208.86 207.89
  Q 214.36 203.42 217.60 197.35
  Q 218.92 194.89 216.26 195.75
  Q 212.29 197.03 208.77 199.24
  Q 198.20 205.87 187.52 212.31
  Q 176.75 218.79 169.98 221.87
  Q 153.63 229.27 135.81 232.56
  Q 135.14 232.69 133.25 231.79"
/>
<path stroke="#cd8a7d" vector-effect="non-scaling-stroke" d="
  M 133.25 231.79
  Q 128.59 230.32 125.31 228.19
  Q 123.62 227.09 124.64 225.58
  A 0.65 0.63 -49.0 0 0 124.60 224.81
  Q 121.36 221.16 120.50 216.25
  Q 120.05 213.66 118.81 215.81
  Q 118.10 217.04 117.87 218.40
  Q 117.65 219.63 118.20 221.03
  Q 119.49 224.29 121.90 226.88
  A 0.58 0.56 -46.7 0 1 121.91 227.63
  Q 120.60 229.25 122.56 230.19
  Q 126.36 232.00 131.25 232.04"
/>
<path stroke="#c7c0bb" vector-effect="non-scaling-stroke" d="
  M 131.25 232.04
  L 133.03 233.14
  Q 133.49 233.43 132.93 233.46
  Q 128.37 233.66 124.03 234.89"
/>
<path stroke="#cd8a7d" vector-effect="non-scaling-stroke" d="
  M 124.03 234.89
  Q 118.45 234.25 113.98 231.23
  A 0.68 0.60 29.0 0 1 113.71 230.47
  L 114.03 229.69
  A 0.72 0.67 -57.8 0 0 113.88 228.91
  Q 110.97 226.16 109.69 221.81
  Q 108.88 219.07 107.56 221.31
  Q 106.32 223.43 108.00 226.75
  Q 108.78 228.29 111.58 231.08
  A 0.60 0.55 -50.2 0 1 111.62 231.82
  Q 110.81 232.99 112.06 233.94
  Q 112.60 234.35 115.75 235.04"
/>
<path stroke="#c7c0bb" vector-effect="non-scaling-stroke" d="
  M 115.75 235.04
  Q 115.87 236.25 114.74 236.11
  A 1.62 0.56 15.4 0 0 113.77 236.17
  L 112.50 236.79"
/>
<path stroke="#cd8a7d" vector-effect="non-scaling-stroke" d="
  M 112.50 236.79
  L 106.47 234.48
  A 1.66 1.56 86.1 0 1 105.64 233.71
  Q 102.98 228.42 100.05 225.17
  Q 98.98 223.99 98.91 225.58
  Q 98.60 232.26 105.21 235.43"
/>
<path stroke="#c7c0bb" vector-effect="non-scaling-stroke" d="
  M 105.21 235.43
  Q 103.72 236.20 102.62 235.82
  Q 101.34 235.38 101.32 235.38
  Q 100.36 235.31 99.50 235.79"
/>
<path stroke="#cd8a7d" vector-effect="non-scaling-stroke" d="
  M 99.50 235.79
  Q 95.87 232.78 92.64 229.35
  Q 91.10 227.71 91.92 229.42
  Q 93.23 232.15 94.79 235.16"
/>
<path stroke="#c7c0bb" vector-effect="non-scaling-stroke" d="
  M 94.79 235.16
  Q 92.26 234.66 90.29 236.00"
/>
<path stroke="#cd8a7d" vector-effect="non-scaling-stroke" d="
  M 90.29 236.00
  Q 88.57 233.83 86.70 231.79
  Q 85.17 230.12 85.81 232.02
  Q 86.25 233.29 86.85 234.88"
/>
<path stroke="#c7c0bb" vector-effect="non-scaling-stroke" d="
  M 86.85 234.88
  L 82.00 235.29"
/>
<path stroke="#cd8a7d" vector-effect="non-scaling-stroke" d="
  M 82.00 235.29
  Q 80.22 233.74 78.83 231.82
  Q 78.52 231.39 78.22 231.11
  Q 76.20 229.20 77.14 231.53
  Q 77.27 231.86 77.60 232.27
  Q 78.50 233.38 78.62 234.79"
/>
<path stroke="#cd8a7d" vector-effect="non-scaling-stroke" d="
  M 73.50 232.71
  L 73.04 228.80
  A 0.89 0.80 8.4 0 0 72.48 228.13
  Q 68.69 226.72 71.22 231.42"
/>
<path stroke="#b87372" vector-effect="non-scaling-stroke" d="
  M 65.46 228.50
  Q 66.22 224.37 62.50 226.79"
/>
<path stroke="#d9d5d1" vector-effect="non-scaling-stroke" d="
  M 55.78 222.48
  Q 65.03 221.18 76.25 220.75
  Q 86.94 220.34 93.94 212.19
  Q 96.42 209.30 107.66 192.85
  A 1.34 1.16 60.4 0 0 107.84 191.95
  Q 107.51 189.84 109.31 190.00
  Q 111.26 190.18 112.98 189.41
  A 0.38 0.33 -36.2 0 0 113.12 188.81
  Q 112.79 188.56 112.25 188.54"
/>
<path stroke="#6b7fa0" vector-effect="non-scaling-stroke" d="
  M 112.25 188.54
  Q 124.87 187.97 132.50 186.25
  Q 163.90 179.16 177.14 149.97"
/>
<path stroke="#cd8a7d" vector-effect="non-scaling-stroke" d="
  M 212.79 78.25
  Q 213.41 76.16 212.79 74.00"
/>
<path stroke="#c2877c" vector-effect="non-scaling-stroke" d="
  M 216.29 67.91
  Q 218.95 70.67 219.45 74.75
  Q 219.51 75.26 219.72 74.81
  Q 221.06 71.90 219.39 69.07
  Q 217.50 65.87 215.50 62.75
  Q 214.34 60.94 216.19 61.31
  Q 219.74 62.03 221.56 65.13
  Q 223.30 68.08 225.38 70.79
  Q 225.70 71.20 225.64 70.69
  Q 224.84 62.87 217.75 59.46"
/>
<path stroke="#f4a29c" vector-effect="non-scaling-stroke" d="
  M 20.49 70.20
  Q 18.73 70.11 18.04 71.12
  A 1.64 0.56 -64.1 0 1 17.37 71.80
  Q 15.61 72.60 15.96 70.00"
/>
<path stroke="#d1aaa3" vector-effect="non-scaling-stroke" d="
  M 14.96 75.75
  Q 13.91 76.63 12.71 76.00"
/>
<path stroke="#c2877c" vector-effect="non-scaling-stroke" d="
  M 220.25 52.21
  L 219.50 52.29"
/>
<path stroke="#c2877c" vector-effect="non-scaling-stroke" d="
  M 218.25 55.54
  L 218.21 56.50"
/>
<path stroke="#bf796a" vector-effect="non-scaling-stroke" d="
  M 90.29 236.00
  L 94.50 240.21"
/>
<path stroke="#bf796a" vector-effect="non-scaling-stroke" d="
  M 91.07 239.14
  Q 88.42 237.48 86.85 234.88"
/>
<path stroke="#bf796a" vector-effect="non-scaling-stroke" d="
  M 105.50 241.79
  Q 108.98 240.35 105.18 239.35
  Q 101.74 238.45 99.50 235.79"
/>
<path stroke="#bf796a" vector-effect="non-scaling-stroke" d="
  M 105.21 235.43
  Q 105.12 237.43 106.64 237.57
  Q 107.64 237.65 107.71 237.67
  Q 110.67 238.26 113.69 238.41
  A 0.35 0.33 -9.4 0 0 114.04 237.95
  Q 113.64 237.04 112.50 236.79"
/>
<path stroke="#bf796a" vector-effect="non-scaling-stroke" d="
  M 115.75 235.04
  Q 119.92 235.66 124.03 234.89"
/>
<path stroke="#bf796a" vector-effect="non-scaling-stroke" d="
  M 131.25 232.04
  Q 132.49 232.48 133.25 231.79"
/>
<path stroke="#96090a" vector-effect="non-scaling-stroke" d="
  M 234.29 170.00
  L 234.29 169.00"
/>
<path stroke="#bf796a" vector-effect="non-scaling-stroke" d="
  M 82.00 235.29
  Q 82.43 236.52 83.50 237.21"
/>
<path stroke="#bf796a" vector-effect="non-scaling-stroke" d="
  M 102.75 241.46
  Q 101.37 239.41 99.50 238.75
  Q 96.24 237.60 94.79 235.16"
/>
<path stroke="#f19d95" vector-effect="non-scaling-stroke" d="
  M 43.75 63.04
  L 42.29 62.75"
/>
<path stroke="#f19d95" vector-effect="non-scaling-stroke" d="
  M 42.29 62.75
  L 40.49 62.18
  A 1.01 0.68 87.8 0 1 39.96 61.45
  Q 38.89 55.93 41.14 50.78
  Q 41.53 49.89 41.58 49.15
  Q 41.80 45.87 40.17 47.81
  Q 39.19 48.97 39.15 49.02
  Q 33.87 54.95 36.25 62.79"
/>
<path stroke="#f19d95" vector-effect="non-scaling-stroke" d="
  M 36.25 62.79
  Q 34.54 62.85 33.41 61.80
  A 1.01 0.93 -66.3 0 1 33.12 60.95
  L 34.18 52.99
  A 1.47 1.06 -65.2 0 0 34.00 52.07
  Q 33.26 50.99 32.41 51.84
  Q 31.98 52.26 31.66 53.16
  Q 30.05 57.69 31.03 62.65
  A 1.27 1.01 1.1 0 0 32.04 63.49
  L 35.04 64.00"
/>
<path stroke="#f19d95" vector-effect="non-scaling-stroke" d="
  M 35.04 64.00
  Q 32.17 66.83 29.80 70.09
  Q 27.43 73.35 28.90 76.81
  Q 29.46 78.13 30.05 76.83
  Q 33.04 70.25 37.10 63.94
  A 0.95 0.95 -73.7 0 1 37.90 63.50
  L 41.96 63.50"
/>
<path stroke="#f19d95" vector-effect="non-scaling-stroke" d="
  M 41.96 63.50
  Q 41.87 64.27 41.19 64.68
  Q 36.22 67.70 34.50 73.25
  Q 33.80 75.50 34.81 77.44
  Q 35.57 78.89 36.11 77.16
  Q 38.41 69.66 43.54 63.75"
/>
<path stroke="#f19d95" vector-effect="non-scaling-stroke" d="
  M 43.54 63.75
  Q 47.24 63.22 49.79 65.75"
/>
<path stroke="#f19d95" vector-effect="non-scaling-stroke" d="
  M 49.79 65.75
  Q 45.33 68.28 42.63 72.60
  Q 40.87 75.41 41.25 78.77
  Q 41.58 81.62 42.77 79.01
  Q 45.58 72.86 50.09 67.59
  Q 53.33 63.80 57.78 67.10
  A 0.35 0.35 -43.3 0 1 57.76 67.68
  Q 52.79 70.97 49.94 75.94
  Q 48.97 77.62 49.92 78.88
  A 1.42 1.08 34.0 0 1 50.21 79.74
  Q 50.14 80.96 50.31 81.73
  Q 50.69 83.50 51.52 81.89
  Q 55.14 74.87 60.24 68.30
  A 1.23 1.22 -62.0 0 1 61.58 67.88
  Q 63.26 68.41 63.94 67.89
  A 1.01 0.62 72.4 0 0 64.16 67.01
  Q 62.84 59.85 64.54 52.81
  Q 64.80 51.77 64.66 51.17
  Q 64.34 49.73 62.84 50.36
  A 2.77 2.77 86.8 0 0 61.26 52.13
  Q 59.20 59.12 59.52 65.86
  A 0.38 0.37 10.0 0 1 59.00 66.21
  L 55.53 64.83
  A 0.72 0.65 12.0 0 1 55.07 64.19
  Q 55.16 56.65 56.35 48.56
  Q 56.49 47.62 55.83 48.30
  Q 49.37 54.98 51.54 64.82"
/>
<path stroke="#f19d95" vector-effect="non-scaling-stroke" d="
  M 51.54 64.82
  L 46.64 62.80
  A 0.81 0.74 -79.7 0 1 46.18 62.07
  Q 46.13 56.73 48.04 51.81
  Q 48.41 50.86 49.48 49.56
  Q 50.35 48.50 50.97 47.27
  Q 51.21 46.80 50.71 46.96
  Q 45.92 48.56 44.33 52.99
  Q 43.70 54.74 43.93 57.57
  Q 44.12 59.91 44.36 62.24
  Q 44.44 63.06 43.75 63.04"
/>
<path stroke="#f14d41" vector-effect="non-scaling-stroke" d="
  M 51.54 64.82
  Q 50.23 65.11 49.79 65.75"
/>
<path stroke="#f14d41" vector-effect="non-scaling-stroke" d="
  M 43.54 63.75
  L 43.75 63.04"
/>
<path stroke="#f14d41" vector-effect="non-scaling-stroke" d="
  M 42.29 62.75
  Q 42.25 63.18 41.96 63.50"
/>
<path stroke="#f14d41" vector-effect="non-scaling-stroke" d="
  M 35.04 64.00
  L 36.25 62.79"
/>
<path stroke="#f19d95" vector-effect="non-scaling-stroke" d="
  M 68.70 69.04
  Q 67.83 69.31 67.54 70.21
  A 1.27 0.99 -89.7 0 1 66.99 70.91
  Q 62.46 73.26 60.03 77.79
  Q 58.91 79.87 59.45 83.65
  Q 59.71 85.50 60.51 83.82
  Q 63.44 77.66 67.44 72.69
  Q 69.04 70.70 71.02 70.40
  Q 72.17 70.23 74.76 71.45
  Q 76.87 72.45 79.00 72.75
  Q 79.47 72.82 79.67 72.64
  A 0.49 0.29 30.2 0 0 79.34 72.06
  L 73.10 69.32
  A 0.79 0.66 -77.5 0 1 72.71 68.56
  L 74.05 53.63
  Q 74.24 51.51 72.95 53.17
  Q 67.74 59.89 69.10 68.44
  A 0.57 0.52 -14.1 0 1 68.70 69.04"
/>
<path stroke="#f19d95" vector-effect="non-scaling-stroke" d="
  M 82.31 72.81
  Q 85.26 72.67 84.69 70.06
  Q 83.14 63.05 83.45 56.83
  Q 83.50 55.80 83.11 55.28
  Q 82.39 54.35 81.23 55.03
  A 1.46 1.18 88.4 0 0 80.65 55.79
  Q 78.25 63.22 80.43 70.51
  Q 81.09 72.71 79.11 73.88
  Q 74.89 76.39 72.78 80.43
  Q 70.98 83.88 72.57 87.45
  Q 72.91 88.22 73.19 87.43
  Q 75.97 79.49 81.48 73.19
  A 1.21 1.07 16.8 0 1 82.31 72.81"
/>
<path stroke="#f19d95" vector-effect="non-scaling-stroke" d="
  M 28.03 65.49
  Q 24.12 68.47 22.83 73.99
  A 2.70 2.68 -59.3 0 0 23.43 76.39
  Q 25.14 78.32 25.30 76.47
  Q 25.41 75.18 25.41 75.17
  Q 26.40 69.44 30.69 63.98
  Q 31.11 63.45 30.44 63.60
  Q 28.65 64.00 28.42 64.69
  A 1.19 0.22 -74.4 0 1 28.03 65.49"
/>
<path stroke="#d18d80" vector-effect="non-scaling-stroke" d="
  M 200.57 63.68
  Q 196.20 60.96 191.24 59.63
  A 0.96 0.49 19.6 0 0 190.33 59.75
  Q 190.11 60.04 190.76 60.52
  Q 195.72 64.15 200.31 68.23
  A 0.83 0.80 -63.1 0 1 200.56 69.04
  Q 200.26 70.26 200.44 70.81
  Q 202.34 76.80 203.50 83.02
  Q 203.77 84.42 204.33 83.11
  Q 207.01 76.82 203.31 70.69
  Q 202.52 69.37 203.62 68.32
  A 0.79 0.67 -35.0 0 0 203.83 67.53
  Q 202.85 65.09 200.57 63.68"
/>
<path stroke="#d89082" vector-effect="non-scaling-stroke" d="
  M 191.84 71.48
  Q 189.72 77.84 190.44 84.51
  A 1.20 1.16 -75.3 0 0 190.89 85.31
  Q 193.83 87.56 194.86 84.89
  Q 195.26 83.84 195.24 81.55
  Q 195.21 76.90 195.02 72.26
  Q 194.94 70.31 196.08 69.45
  A 0.77 0.77 -40.6 0 0 196.17 68.29
  Q 190.68 62.80 184.24 60.75
  Q 181.78 59.96 183.29 62.05
  Q 184.92 64.30 187.56 66.44
  Q 190.60 68.89 191.74 70.58
  A 1.13 0.95 -56.1 0 1 191.84 71.48"
/>
<path stroke="#b87372" vector-effect="non-scaling-stroke" d="
  M 220.05 176.73
  A 0.78 0.78 9.9 0 1 219.36 175.75
  Q 220.83 170.36 220.55 165.25
  Q 220.50 164.36 220.07 163.89
  Q 219.28 163.03 218.35 163.88
  A 1.57 1.17 79.4 0 0 217.93 164.74
  Q 217.38 168.92 217.09 173.13
  Q 216.83 176.85 216.19 178.11
  Q 214.85 180.71 211.57 181.14
  Q 211.23 181.18 211.55 181.29
  L 216.44 183.00
  A 1.98 1.78 -77.9 0 1 217.61 185.03
  Q 217.01 190.46 218.78 187.64
  Q 219.18 187.00 219.26 186.11
  Q 219.62 182.26 220.12 178.43
  A 0.52 0.50 -82.6 0 1 220.68 177.98
  Q 224.80 178.49 224.67 183.69
  Q 224.65 184.45 225.21 183.94
  Q 228.79 180.64 226.94 175.72
  A 1.95 1.61 43.8 0 1 226.83 174.76
  Q 227.14 172.93 227.32 171.08
  Q 227.44 169.91 228.19 167.02
  Q 228.99 163.93 228.10 160.72
  Q 227.66 159.10 227.01 160.17
  Q 226.82 160.49 226.77 161.00
  Q 226.16 166.94 224.86 172.78
  Q 223.91 177.06 220.05 176.73"
/>
<path stroke="#c2877c" vector-effect="non-scaling-stroke" d="
  M 206.44 188.88
  Q 207.30 190.33 207.96 191.72
  A 1.56 1.54 -24.4 0 0 209.99 192.47
  Q 213.16 191.08 211.67 188.57
  Q 210.32 186.30 208.84 184.10
  A 0.86 0.81 -49.2 0 1 208.80 183.25
  Q 210.42 180.18 210.50 176.25
  Q 210.59 171.55 210.52 169.26
  A 1.09 0.81 -79.8 0 0 210.11 168.43
  Q 209.34 167.96 208.81 169.06
  Q 207.26 172.33 206.50 180.25
  Q 206.24 183.00 203.88 186.05
  A 0.49 0.49 -52.6 0 0 203.97 186.75
  Q 204.53 187.17 205.12 187.55
  Q 205.98 188.12 206.44 188.88"
/>
<path stroke="#c2877c" vector-effect="non-scaling-stroke" d="
  M 198.50 187.72
  Q 200.82 181.86 200.35 175.62
  Q 200.27 174.43 199.64 173.56
  Q 197.51 170.64 196.90 174.75
  Q 196.69 176.11 196.84 177.47
  Q 197.60 184.65 194.32 190.04
  A 0.93 0.92 -46.5 0 0 194.34 191.04
  Q 196.98 195.00 201.63 196.46
  Q 204.78 197.45 203.69 194.33
  Q 202.33 190.42 198.75 188.42
  A 0.57 0.56 -64.7 0 1 198.50 187.72"
/>
<path stroke="#c2877c" vector-effect="non-scaling-stroke" d="
  M 182.46 196.75
  Q 179.55 197.58 175.69 197.16
  Q 175.28 197.12 175.55 196.81
  Q 177.52 194.55 176.94 191.54
  Q 176.66 190.06 176.64 189.94
  Q 176.22 187.03 175.69 186.06
  Q 174.71 184.29 173.84 185.61
  Q 173.51 186.11 173.42 186.98
  Q 172.95 191.86 173.45 196.75
  A 1.33 1.23 -31.5 0 1 173.20 197.64
  L 170.46 201.52
  A 1.42 0.87 -68.3 0 1 169.71 202.08
  L 166.56 202.65
  A 0.48 0.43 84.2 0 1 166.05 202.19
  Q 165.93 197.21 164.15 192.59
  Q 163.92 192.00 163.46 191.72
  Q 162.29 190.99 162.23 192.41
  Q 162.19 193.43 162.17 193.59
  Q 161.50 199.12 162.44 203.56
  Q 162.80 205.30 162.00 206.46"
/>
<path stroke="#cd8a7d" vector-effect="non-scaling-stroke" d="
  M 162.00 206.46
  L 160.94 208.05
  Q 160.65 208.49 161.25 208.52
  Q 165.14 208.72 168.59 210.64
  Q 171.07 212.01 173.23 209.90
  A 0.61 0.59 33.5 0 0 173.01 208.92
  L 166.16 206.20
  A 1.73 1.50 36.6 0 0 164.62 206.32
  Q 163.07 207.39 163.21 206.25"
/>
<path stroke="#c2877c" vector-effect="non-scaling-stroke" d="
  M 163.21 206.25
  Q 165.26 203.67 168.75 203.73
  Q 170.44 203.76 171.65 202.82
  A 1.48 1.48 -45.5 0 1 173.42 202.80
  Q 176.29 204.88 179.75 205.49
  Q 181.90 205.87 182.54 204.29
  A 0.57 0.54 23.9 0 0 182.25 203.59
  L 174.61 199.96
  Q 173.23 199.30 174.73 199.00
  L 182.50 197.46"
/>
<path stroke="#c2877c" vector-effect="non-scaling-stroke" d="
  M 182.50 197.46
  L 192.77 200.25
  Q 196.27 201.21 193.70 198.54
  Q 191.32 196.06 186.56 195.49
  A 0.47 0.43 10.0 0 1 186.15 194.95
  Q 186.52 193.56 188.00 193.30
  Q 188.72 193.18 188.98 193.09
  Q 195.39 190.90 188.24 191.75
  A 0.39 0.38 -86.4 0 1 187.82 191.27
  Q 189.15 186.21 187.57 181.46
  Q 186.62 178.62 185.75 181.48
  Q 184.56 185.41 184.87 189.49
  Q 185.18 193.65 182.46 196.75"
/>
<path stroke="#ae3d29" vector-effect="non-scaling-stroke" d="
  M 182.50 197.46
  L 182.46 196.75"
/>
<path stroke="#ba402b" vector-effect="non-scaling-stroke" d="
  M 163.21 206.25
  Q 162.57 206.17 162.00 206.46"
/>
<path stroke="#cd8a7d" vector-effect="non-scaling-stroke" d="
  M 153.29 210.75
  Q 151.74 212.72 148.81 213.74
  Q 147.77 214.09 148.75 214.59
  Q 153.56 217.03 158.44 217.31
  Q 161.60 217.50 163.33 215.92
  Q 163.72 215.57 163.19 215.59
  Q 157.95 215.86 153.76 212.76
  Q 152.85 212.08 153.79 211.25"
/>
<path stroke="#cd8a7d" vector-effect="non-scaling-stroke" d="
  M 153.79 211.25
  Q 155.29 210.86 156.66 210.13
  Q 157.63 209.60 156.94 209.35
  Q 156.81 209.31 156.08 209.39
  L 155.07 209.50
  A 0.52 0.44 89.9 0 1 154.60 208.94
  Q 154.95 203.27 152.94 198.56
  Q 152.52 197.58 151.71 197.80
  A 0.86 0.67 88.5 0 0 151.19 198.50
  Q 150.59 203.68 150.99 208.87
  Q 151.07 209.87 151.64 210.28
  Q 152.31 210.77 153.29 210.75"
/>
<path stroke="#c5422c" vector-effect="non-scaling-stroke" d="
  M 153.79 211.25
  Q 153.64 210.90 153.29 210.75"
/>
<path stroke="#cd8a7d" vector-effect="non-scaling-stroke" d="
  M 141.90 202.85
  A 0.15 0.14 -71.7 0 0 141.69 202.96
  Q 140.67 209.08 141.72 215.19
  A 0.60 0.58 83.8 0 0 142.32 215.69
  Q 145.74 215.60 145.16 211.82
  Q 144.70 208.86 144.19 205.92
  Q 143.83 203.89 141.90 202.85"
/>
<path stroke="#cd8a7d" vector-effect="non-scaling-stroke" d="
  M 133.21 221.30
  L 133.47 220.89
  A 0.57 0.52 -54.1 0 0 133.39 220.19
  Q 129.77 216.96 128.19 212.31
  Q 127.33 209.80 126.19 212.44
  Q 125.70 213.57 125.70 214.77
  Q 125.70 215.81 126.34 216.99
  Q 128.09 220.24 131.09 222.46
  A 0.52 0.48 -55.4 0 1 131.19 223.14
  Q 130.74 223.84 130.91 224.48
  Q 131.09 225.13 132.07 225.47
  Q 137.30 227.27 143.53 226.10
  Q 144.77 225.87 143.52 225.75
  Q 138.67 225.29 133.79 222.94
  A 1.23 1.10 28.7 0 1 133.21 221.30"
/>
<path stroke="#cd8a7d" vector-effect="non-scaling-stroke" d="
  M 150.57 220.61
  Q 147.34 220.19 143.93 217.77
  A 0.69 0.65 39.1 0 0 143.07 217.83
  L 141.07 219.86
  A 0.43 0.41 37.5 0 0 141.17 220.51
  Q 147.17 224.14 153.69 221.44
  Q 155.49 220.69 153.54 220.75
  Q 152.03 220.80 150.57 220.61"
/>
<path stroke="#7287a7" vector-effect="non-scaling-stroke" d="
  M 111.04 89.75
  L 95.21 164.75"
/>
<path stroke="#6e83a3" vector-effect="non-scaling-stroke" d="
  M 95.21 164.75
  L 94.58 167.69
  A 0.49 0.42 5.8 0 0 95.07 168.20
  Q 110.09 168.66 119.75 167.75
  Q 142.96 165.57 153.26 144.29
  Q 156.70 137.18 159.00 126.50
  Q 161.30 115.84 159.79 107.00"
/>
<path stroke="#7287a7" vector-effect="non-scaling-stroke" d="
  M 159.79 107.00
  Q 157.74 93.96 145.50 89.29"
/>
<path stroke="#793d5a" vector-effect="non-scaling-stroke" d="
  M 145.50 89.29
  L 139.94 87.72"
/>
<path stroke="#7287a7" vector-effect="non-scaling-stroke" d="
  M 139.94 87.72
  Q 135.57 86.55 130.25 86.79"
/>
<path stroke="#793d5a" vector-effect="non-scaling-stroke" d="
  M 130.25 86.79
  L 124.75 86.79"
/>
<path stroke="#7287a7" vector-effect="non-scaling-stroke" d="
  M 124.75 86.79
  L 116.75 86.79"
/>
<path stroke="#793d5a" vector-effect="non-scaling-stroke" d="
  M 116.75 86.79
  L 112.56 86.59
  A 0.86 0.77 14.0 0 0 111.80 86.99
  Q 111.09 88.25 111.04 89.75"
/>
<path stroke="#eb978f" vector-effect="non-scaling-stroke" d="
  M 116.75 86.79
  Q 115.57 92.19 111.04 89.75"
/>
<path stroke="#eb978f" vector-effect="non-scaling-stroke" d="
  M 124.75 86.79
  Q 124.02 88.31 124.21 90.00
  Q 124.76 94.93 128.06 91.31
  Q 129.13 90.14 130.25 86.79"
/>
<path stroke="#eb978f" vector-effect="non-scaling-stroke" d="
  M 139.94 87.72
  Q 141.12 96.54 145.50 89.29"
/>
<path stroke="#e0dcd8" vector-effect="non-scaling-stroke" d="
  M 159.79 107.00
  Q 159.89 110.08 158.94 107.56
  Q 158.37 106.07 158.17 105.08
  Q 157.66 102.66 157.64 102.61
  Q 156.48 99.57 154.60 96.91
  Q 154.04 96.12 153.40 96.45
  A 1.16 0.37 -79.4 0 0 152.97 97.25
  Q 152.84 97.78 152.21 98.00
  Q 146.08 100.17 139.69 101.42
  Q 133.08 102.72 126.68 104.79
  Q 120.06 106.94 118.09 112.52
  Q 117.04 115.48 117.86 123.04
  Q 118.85 132.22 118.69 135.19
  Q 118.30 142.50 111.34 144.42
  Q 106.84 145.67 102.11 145.31
  A 1.88 1.88 -80.8 0 0 100.13 146.74
  Q 98.29 154.23 96.87 162.29
  Q 96.85 162.45 96.78 163.70
  Q 96.69 165.20 95.21 164.75"
/>
</g>
<path fill="#f1ede8" d="
  M 135.75 6.04
  Q 134.48 8.42 135.81 9.94
  Q 139.50 14.13 143.14 18.35
  Q 145.61 21.22 146.84 24.77
  A 1.35 1.34 46.4 0 1 146.82 25.72
  Q 145.20 29.86 141.69 32.69
  Q 138.19 35.53 135.40 39.03
  Q 133.90 40.92 133.27 42.91
  Q 132.68 44.80 132.25 47.25
  Q 131.07 53.99 125.85 59.10
  Q 123.11 61.78 119.95 63.95
  Q 119.41 64.32 119.18 64.70
  Q 118.51 65.85 120.47 65.55
  Q 120.77 65.50 121.02 65.54
  Q 123.66 65.95 120.50 66.29
  L 117.00 66.21
  Q 115.73 64.11 112.71 62.47
  Q 111.15 61.63 111.52 63.36
  Q 111.86 64.93 113.00 66.21
  Q 109.49 66.82 106.00 66.21
  Q 104.76 62.49 101.56 60.91
  Q 99.29 59.78 99.68 62.29
  Q 100.08 64.87 101.50 66.46
  L 94.00 66.21
  L 91.07 57.29
  Q 90.83 56.55 90.58 57.29
  Q 88.31 63.98 91.04 69.00
  L 89.50 76.21
  Q 86.22 78.30 83.19 83.19
  Q 82.25 84.70 83.13 85.67
  A 1.75 1.15 29.5 0 1 83.55 86.49
  L 84.00 89.46
  Q 83.45 89.77 82.88 90.05
  Q 82.30 90.33 81.92 90.80
  Q 74.33 100.09 66.81 109.43
  Q 58.31 119.99 57.47 120.85
  Q 52.25 126.20 45.44 129.69
  Q 43.14 130.86 32.49 134.26
  Q 26.02 136.33 23.21 138.57
  Q 16.05 144.29 15.65 154.51
  Q 15.34 162.55 17.00 173.50
  Q 17.31 175.57 15.25 175.04
  Q 8.45 161.18 5.69 147.06
  Q 5.18 144.46 4.46 142.40
  Q 3.50 139.61 3.34 137.80
  Q 1.88 120.75 4.04 103.75
  Q 7.29 101.59 5.21 98.00
  L 6.25 94.21
  Q 7.02 94.57 7.81 94.59
  A 0.59 0.57 -86.2 0 0 8.39 94.07
  Q 8.60 92.20 7.71 90.50
  Q 8.13 89.42 9.00 88.71
  Q 11.67 90.51 10.98 87.97
  Q 10.75 87.13 10.71 86.49
  Q 10.63 85.24 10.46 84.00
  L 12.29 78.75
  Q 13.25 77.54 14.75 77.29
  Q 13.40 80.50 14.67 83.78
  Q 15.26 85.29 15.75 84.69
  A 1.38 0.75 72.8 0 0 15.94 83.75
  Q 15.47 79.72 17.05 75.97
  A 1.94 1.60 56.5 0 0 17.15 75.01
  Q 16.79 72.70 19.21 72.00
  Q 17.88 75.47 19.00 79.00
  Q 19.55 80.74 19.75 79.00
  Q 20.44 73.07 23.50 68.05
  Q 23.60 67.90 24.29 67.23
  Q 24.82 66.70 24.50 65.96
  Q 24.65 65.61 25.00 65.46
  Q 26.23 65.36 27.14 64.60
  A 0.78 0.68 60.8 0 0 27.31 63.78
  Q 26.00 60.26 27.34 56.65
  Q 28.01 54.87 26.50 55.46
  Q 30.21 49.95 33.31 46.56
  Q 74.19 1.88 135.75 6.04
  Z
  M 43.75 63.04
  L 42.29 62.75
  L 40.49 62.18
  A 1.01 0.68 87.8 0 1 39.96 61.45
  Q 38.89 55.93 41.14 50.78
  Q 41.53 49.89 41.58 49.15
  Q 41.80 45.87 40.17 47.81
  Q 39.19 48.97 39.15 49.02
  Q 33.87 54.95 36.25 62.79
  Q 34.54 62.85 33.41 61.80
  A 1.01 0.93 -66.3 0 1 33.12 60.95
  L 34.18 52.99
  A 1.47 1.06 -65.2 0 0 34.00 52.07
  Q 33.26 50.99 32.41 51.84
  Q 31.98 52.26 31.66 53.16
  Q 30.05 57.69 31.03 62.65
  A 1.27 1.01 1.1 0 0 32.04 63.49
  L 35.04 64.00
  Q 32.17 66.83 29.80 70.09
  Q 27.43 73.35 28.90 76.81
  Q 29.46 78.13 30.05 76.83
  Q 33.04 70.25 37.10 63.94
  A 0.95 0.95 -73.7 0 1 37.90 63.50
  L 41.96 63.50
  Q 41.87 64.27 41.19 64.68
  Q 36.22 67.70 34.50 73.25
  Q 33.80 75.50 34.81 77.44
  Q 35.57 78.89 36.11 77.16
  Q 38.41 69.66 43.54 63.75
  Q 47.24 63.22 49.79 65.75
  Q 45.33 68.28 42.63 72.60
  Q 40.87 75.41 41.25 78.77
  Q 41.58 81.62 42.77 79.01
  Q 45.58 72.86 50.09 67.59
  Q 53.33 63.80 57.78 67.10
  A 0.35 0.35 -43.3 0 1 57.76 67.68
  Q 52.79 70.97 49.94 75.94
  Q 48.97 77.62 49.92 78.88
  A 1.42 1.08 34.0 0 1 50.21 79.74
  Q 50.14 80.96 50.31 81.73
  Q 50.69 83.50 51.52 81.89
  Q 55.14 74.87 60.24 68.30
  A 1.23 1.22 -62.0 0 1 61.58 67.88
  Q 63.26 68.41 63.94 67.89
  A 1.01 0.62 72.4 0 0 64.16 67.01
  Q 62.84 59.85 64.54 52.81
  Q 64.80 51.77 64.66 51.17
  Q 64.34 49.73 62.84 50.36
  A 2.77 2.77 86.8 0 0 61.26 52.13
  Q 59.20 59.12 59.52 65.86
  A 0.38 0.37 10.0 0 1 59.00 66.21
  L 55.53 64.83
  A 0.72 0.65 12.0 0 1 55.07 64.19
  Q 55.16 56.65 56.35 48.56
  Q 56.49 47.62 55.83 48.30
  Q 49.37 54.98 51.54 64.82
  L 46.64 62.80
  A 0.81 0.74 -79.7 0 1 46.18 62.07
  Q 46.13 56.73 48.04 51.81
  Q 48.41 50.86 49.48 49.56
  Q 50.35 48.50 50.97 47.27
  Q 51.21 46.80 50.71 46.96
  Q 45.92 48.56 44.33 52.99
  Q 43.70 54.74 43.93 57.57
  Q 44.12 59.91 44.36 62.24
  Q 44.44 63.06 43.75 63.04
  Z
  M 68.70 69.04
  Q 67.83 69.31 67.54 70.21
  A 1.27 0.99 -89.7 0 1 66.99 70.91
  Q 62.46 73.26 60.03 77.79
  Q 58.91 79.87 59.45 83.65
  Q 59.71 85.50 60.51 83.82
  Q 63.44 77.66 67.44 72.69
  Q 69.04 70.70 71.02 70.40
  Q 72.17 70.23 74.76 71.45
  Q 76.87 72.45 79.00 72.75
  Q 79.47 72.82 79.67 72.64
  A 0.49 0.29 30.2 0 0 79.34 72.06
  L 73.10 69.32
  A 0.79 0.66 -77.5 0 1 72.71 68.56
  L 74.05 53.63
  Q 74.24 51.51 72.95 53.17
  Q 67.74 59.89 69.10 68.44
  A 0.57 0.52 -14.1 0 1 68.70 69.04
  Z
  M 82.31 72.81
  Q 85.26 72.67 84.69 70.06
  Q 83.14 63.05 83.45 56.83
  Q 83.50 55.80 83.11 55.28
  Q 82.39 54.35 81.23 55.03
  A 1.46 1.18 88.4 0 0 80.65 55.79
  Q 78.25 63.22 80.43 70.51
  Q 81.09 72.71 79.11 73.88
  Q 74.89 76.39 72.78 80.43
  Q 70.98 83.88 72.57 87.45
  Q 72.91 88.22 73.19 87.43
  Q 75.97 79.49 81.48 73.19
  A 1.21 1.07 16.8 0 1 82.31 72.81
  Z
  M 28.03 65.49
  Q 24.12 68.47 22.83 73.99
  A 2.70 2.68 -59.3 0 0 23.43 76.39
  Q 25.14 78.32 25.30 76.47
  Q 25.41 75.18 25.41 75.17
  Q 26.40 69.44 30.69 63.98
  Q 31.11 63.45 30.44 63.60
  Q 28.65 64.00 28.42 64.69
  A 1.19 0.22 -74.4 0 1 28.03 65.49
  Z"
/>
<path fill="#e4e0dc" d="
  M 135.75 6.04
  Q 147.76 7.41 160.75 11.00
  Q 171.58 14.00 180.49 18.86
  Q 178.04 20.26 178.85 22.61
  Q 179.67 24.98 179.70 25.12
  Q 180.25 27.69 181.10 30.18
  Q 183.43 36.99 181.05 43.77
  Q 177.74 53.21 173.46 62.25
  Q 172.06 61.76 170.80 60.96
  Q 169.97 60.44 169.83 60.94
  A 1.08 0.66 38.5 0 0 170.15 61.81
  Q 172.32 64.13 178.06 68.69
  Q 181.05 71.06 180.12 75.26
  Q 180.01 75.76 180.15 76.22
  Q 181.81 81.71 180.21 87.25
  Q 179.70 87.66 179.46 88.25
  Q 175.53 81.76 169.99 76.95
  Q 173.40 74.40 177.36 74.48
  Q 177.64 74.49 178.11 74.60
  Q 179.00 74.80 178.89 74.27
  A 1.05 0.77 7.4 0 0 178.22 73.63
  Q 176.21 72.98 173.99 73.95
  A 0.41 0.40 -14.6 0 1 173.42 73.62
  Q 173.23 71.74 172.06 70.34
  Q 171.91 70.17 169.64 67.94
  Q 166.21 64.57 161.56 63.16
  Q 160.90 62.96 160.42 63.11
  Q 159.21 63.47 160.75 64.75
  Q 164.54 67.90 169.69 74.06
  Q 170.71 75.29 168.75 75.79
  L 160.75 71.21
  Q 156.82 66.05 151.25 63.46
  Q 149.28 62.54 150.31 64.42
  L 152.50 68.46
  L 143.25 66.71
  Q 140.98 63.93 137.55 63.16
  A 0.40 0.40 5.0 0 0 137.06 63.57
  Q 137.11 65.09 138.00 66.46
  L 131.50 66.21
  Q 129.60 62.76 125.81 62.13
  A 0.76 0.73 18.8 0 0 125.04 62.49
  Q 124.06 64.25 125.25 66.21
  Q 122.88 66.86 120.50 66.29
  Q 123.66 65.95 121.02 65.54
  Q 120.77 65.50 120.47 65.55
  Q 118.51 65.85 119.18 64.70
  Q 119.41 64.32 119.95 63.95
  Q 123.11 61.78 125.85 59.10
  Q 131.07 53.99 132.25 47.25
  Q 132.68 44.80 133.27 42.91
  Q 133.90 40.92 135.40 39.03
  Q 138.19 35.53 141.69 32.69
  Q 145.20 29.86 146.82 25.72
  A 1.35 1.34 46.4 0 0 146.84 24.77
  Q 145.61 21.22 143.14 18.35
  Q 139.50 14.13 135.81 9.94
  Q 134.48 8.42 135.75 6.04
  Z"
/>
<path fill="#dcd8d4" d="
  M 180.49 18.86
  Q 186.06 21.87 191.48 24.93
  Q 191.70 25.05 194.32 25.91
  Q 196.06 26.48 196.43 28.51
  A 1.15 0.98 -83.7 0 0 196.94 29.26
  Q 198.14 29.95 199.43 30.38
  Q 201.19 30.97 201.95 31.40
  Q 208.14 34.90 212.41 40.82
  Q 211.12 40.70 210.56 40.44
  Q 209.51 39.94 209.44 40.50
  A 0.97 0.78 22.9 0 0 209.88 41.32
  L 216.50 45.71
  Q 217.85 47.09 218.21 49.00
  Q 214.76 46.82 211.16 46.08
  Q 209.13 45.67 210.67 47.05
  Q 214.56 50.53 219.50 52.29
  Q 221.24 55.07 218.25 55.54
  Q 216.85 52.50 214.94 51.56
  Q 213.89 51.05 207.99 49.29
  Q 207.04 49.01 206.72 49.47
  A 0.47 0.37 24.1 0 0 207.04 50.08
  Q 213.35 52.07 218.21 56.50
  Q 219.46 57.59 218.54 57.95
  A 1.04 0.69 -83.9 0 0 218.04 58.56
  L 217.75 59.46
  Q 216.35 60.96 215.63 59.34
  Q 213.83 55.32 209.73 54.22
  Q 207.85 53.71 207.78 53.69
  Q 204.70 52.72 204.00 52.75
  Q 202.62 52.81 203.67 53.34
  Q 209.11 56.09 213.40 60.40
  A 0.91 0.62 38.0 0 1 213.67 61.24
  L 213.11 62.54
  A 0.91 0.71 -54.3 0 0 213.14 63.32
  L 216.29 67.91
  Q 213.85 66.90 212.98 68.36
  A 2.06 2.05 -40.4 0 0 212.83 70.17
  Q 214.66 74.86 212.79 74.00
  Q 212.21 70.33 210.44 68.31
  Q 208.47 66.07 210.26 64.65
  A 1.07 1.07 49.1 0 0 210.37 63.09
  Q 205.42 57.74 200.01 56.71
  Q 198.95 56.51 198.31 57.12
  A 0.43 0.39 37.6 0 0 198.43 57.76
  Q 202.95 60.58 207.30 63.65
  Q 209.54 65.24 207.44 66.72
  A 1.40 1.39 51.5 0 0 207.21 68.79
  Q 211.12 73.16 212.79 78.25
  Q 211.74 78.35 211.50 79.75
  Q 209.06 93.72 202.61 118.97
  Q 201.47 123.45 199.83 127.78
  Q 195.31 139.72 182.64 142.02
  A 2.21 2.20 -90.0 0 0 180.86 143.81
  Q 180.25 147.20 177.14 149.97
  Q 183.15 135.72 184.75 119.50
  Q 186.39 102.85 179.46 88.25
  Q 179.70 87.66 180.21 87.25
  Q 180.13 87.82 180.29 88.30
  A 0.74 0.65 -8.9 0 0 181.00 88.75
  Q 184.36 88.60 184.29 85.00
  Q 184.19 80.47 182.67 76.22
  A 1.07 1.03 -39.8 0 1 182.77 75.33
  Q 184.32 72.76 183.79 69.80
  A 1.51 1.38 17.3 0 0 183.31 68.98
  Q 178.84 64.97 173.46 62.25
  Q 177.74 53.21 181.05 43.77
  Q 183.43 36.99 181.10 30.18
  Q 180.25 27.69 179.70 25.12
  Q 179.67 24.98 178.85 22.61
  Q 178.04 20.26 180.49 18.86
  Z
  M 200.57 63.68
  Q 196.20 60.96 191.24 59.63
  A 0.96 0.49 19.6 0 0 190.33 59.75
  Q 190.11 60.04 190.76 60.52
  Q 195.72 64.15 200.31 68.23
  A 0.83 0.80 -63.1 0 1 200.56 69.04
  Q 200.26 70.26 200.44 70.81
  Q 202.34 76.80 203.50 83.02
  Q 203.77 84.42 204.33 83.11
  Q 207.01 76.82 203.31 70.69
  Q 202.52 69.37 203.62 68.32
  A 0.79 0.67 -35.0 0 0 203.83 67.53
  Q 202.85 65.09 200.57 63.68
  Z
  M 191.84 71.48
  Q 189.72 77.84 190.44 84.51
  A 1.20 1.16 -75.3 0 0 190.89 85.31
  Q 193.83 87.56 194.86 84.89
  Q 195.26 83.84 195.24 81.55
  Q 195.21 76.90 195.02 72.26
  Q 194.94 70.31 196.08 69.45
  A 0.77 0.77 -40.6 0 0 196.17 68.29
  Q 190.68 62.80 184.24 60.75
  Q 181.78 59.96 183.29 62.05
  Q 184.92 64.30 187.56 66.44
  Q 190.60 68.89 191.74 70.58
  A 1.13 0.95 -56.1 0 1 191.84 71.48
  Z"
/>
<path fill="#ae3d29" d="
  M 212.41 40.82
  Q 212.85 42.07 214.44 43.06
  Q 215.74 43.88 216.50 45.71
  L 209.88 41.32
  A 0.97 0.78 22.9 0 1 209.44 40.50
  Q 209.51 39.94 210.56 40.44
  Q 211.12 40.70 212.41 40.82
  Z"
/>
<path fill="#ae3d29" d="
  M 218.21 49.00
  L 220.25 52.21
  L 219.50 52.29
  Q 214.56 50.53 210.67 47.05
  Q 209.13 45.67 211.16 46.08
  Q 214.76 46.82 218.21 49.00
  Z"
/>
<path fill="#f14d41" d="
  M 51.54 64.82
  Q 50.23 65.11 49.79 65.75
  Q 47.24 63.22 43.54 63.75
  L 43.75 63.04
  Q 44.44 63.06 44.36 62.24
  Q 44.12 59.91 43.93 57.57
  Q 43.70 54.74 44.33 52.99
  Q 45.92 48.56 50.71 46.96
  Q 51.21 46.80 50.97 47.27
  Q 50.35 48.50 49.48 49.56
  Q 48.41 50.86 48.04 51.81
  Q 46.13 56.73 46.18 62.07
  A 0.81 0.74 -79.7 0 0 46.64 62.80
  L 51.54 64.82
  Z"
/>
<path fill="#f14d41" d="
  M 42.29 62.75
  Q 42.25 63.18 41.96 63.50
  L 37.90 63.50
  A 0.95 0.95 -73.7 0 0 37.10 63.94
  Q 33.04 70.25 30.05 76.83
  Q 29.46 78.13 28.90 76.81
  Q 27.43 73.35 29.80 70.09
  Q 32.17 66.83 35.04 64.00
  L 36.25 62.79
  Q 33.87 54.95 39.15 49.02
  Q 39.19 48.97 40.17 47.81
  Q 41.80 45.87 41.58 49.15
  Q 41.53 49.89 41.14 50.78
  Q 38.89 55.93 39.96 61.45
  A 1.01 0.68 87.8 0 0 40.49 62.18
  L 42.29 62.75
  Z"
/>
<path fill="#f14d41" d="
  M 49.79 65.75
  Q 50.23 65.11 51.54 64.82
  Q 49.37 54.98 55.83 48.30
  Q 56.49 47.62 56.35 48.56
  Q 55.16 56.65 55.07 64.19
  A 0.72 0.65 12.0 0 0 55.53 64.83
  L 59.00 66.21
  A 0.38 0.37 10.0 0 0 59.52 65.86
  Q 59.20 59.12 61.26 52.13
  A 2.77 2.77 86.8 0 1 62.84 50.36
  Q 64.34 49.73 64.66 51.17
  Q 64.80 51.77 64.54 52.81
  Q 62.84 59.85 64.16 67.01
  A 1.01 0.62 72.4 0 1 63.94 67.89
  Q 63.26 68.41 61.58 67.88
  A 1.23 1.22 -62.0 0 0 60.24 68.30
  Q 55.14 74.87 51.52 81.89
  Q 50.69 83.50 50.31 81.73
  Q 50.14 80.96 50.21 79.74
  A 1.42 1.08 34.0 0 0 49.92 78.88
  Q 48.97 77.62 49.94 75.94
  Q 52.79 70.97 57.76 67.68
  A 0.35 0.35 -43.3 0 0 57.78 67.10
  Q 53.33 63.80 50.09 67.59
  Q 45.58 72.86 42.77 79.01
  Q 41.58 81.62 41.25 78.77
  Q 40.87 75.41 42.63 72.60
  Q 45.33 68.28 49.79 65.75
  Z"
/>
<path fill="#ae3d29" d="
  M 218.25 55.54
  L 218.21 56.50
  Q 213.35 52.07 207.04 50.08
  A 0.47 0.37 24.1 0 1 206.72 49.47
  Q 207.04 49.01 207.99 49.29
  Q 213.89 51.05 214.94 51.56
  Q 216.85 52.50 218.25 55.54
  Z"
/>
<path fill="#f14d41" d="
  M 36.25 62.79
  L 35.04 64.00
  L 32.04 63.49
  A 1.27 1.01 1.1 0 1 31.03 62.65
  Q 30.05 57.69 31.66 53.16
  Q 31.98 52.26 32.41 51.84
  Q 33.26 50.99 34.00 52.07
  A 1.47 1.06 -65.2 0 1 34.18 52.99
  L 33.12 60.95
  A 1.01 0.93 -66.3 0 0 33.41 61.80
  Q 34.54 62.85 36.25 62.79
  Z"
/>
<path fill="#d5d1ce" d="
  M 219.50 52.29
  L 220.25 52.21
  Q 223.78 55.17 225.50 59.46
  Q 224.10 58.51 223.03 57.21
  Q 222.79 56.92 222.53 56.72
  Q 220.00 54.83 221.95 57.53
  Q 223.73 59.99 225.73 62.26
  Q 226.52 63.15 227.25 62.21
  Q 231.18 66.81 233.69 72.19
  Q 234.88 74.74 238.06 83.14
  Q 240.24 88.86 241.71 94.80
  Q 242.99 99.96 243.52 106.82
  Q 244.67 121.86 244.25 133.25
  Q 243.94 141.79 241.46 154.50
  Q 239.73 154.71 239.69 156.94
  Q 239.61 161.84 236.75 167.22
  Q 235.93 168.74 234.29 169.00
  Q 233.97 168.29 234.27 167.55
  Q 236.40 162.14 236.26 156.33
  Q 236.25 155.97 236.11 155.72
  Q 235.58 154.71 235.28 156.11
  Q 233.98 162.29 231.69 168.19
  Q 231.41 168.89 230.15 170.31
  A 0.59 0.57 45.9 0 0 230.15 171.07
  Q 232.95 174.42 231.33 178.55
  A 0.45 0.26 -61.6 0 0 231.34 178.94
  Q 231.46 179.07 231.65 178.89
  Q 234.25 176.40 233.75 172.75
  Q 233.48 170.76 234.29 170.00
  Q 236.27 169.09 238.60 171.59
  Q 235.63 175.62 223.94 192.19
  Q 202.39 222.72 166.97 236.53
  Q 169.71 234.14 172.96 232.58
  Q 177.96 230.17 179.25 229.35
  Q 194.65 219.45 208.86 207.89
  Q 214.36 203.42 217.60 197.35
  Q 218.92 194.89 216.26 195.75
  Q 212.29 197.03 208.77 199.24
  Q 198.20 205.87 187.52 212.31
  Q 176.75 218.79 169.98 221.87
  Q 153.63 229.27 135.81 232.56
  Q 135.14 232.69 133.25 231.79
  Q 128.59 230.32 125.31 228.19
  Q 123.62 227.09 124.64 225.58
  A 0.65 0.63 -49.0 0 0 124.60 224.81
  Q 121.36 221.16 120.50 216.25
  Q 120.05 213.66 118.81 215.81
  Q 118.10 217.04 117.87 218.40
  Q 117.65 219.63 118.20 221.03
  Q 119.49 224.29 121.90 226.88
  A 0.58 0.56 -46.7 0 1 121.91 227.63
  Q 120.60 229.25 122.56 230.19
  Q 126.36 232.00 131.25 232.04
  L 133.03 233.14
  Q 133.49 233.43 132.93 233.46
  Q 128.37 233.66 124.03 234.89
  Q 118.45 234.25 113.98 231.23
  A 0.68 0.60 29.0 0 1 113.71 230.47
  L 114.03 229.69
  A 0.72 0.67 -57.8 0 0 113.88 228.91
  Q 110.97 226.16 109.69 221.81
  Q 108.88 219.07 107.56 221.31
  Q 106.32 223.43 108.00 226.75
  Q 108.78 228.29 111.58 231.08
  A 0.60 0.55 -50.2 0 1 111.62 231.82
  Q 110.81 232.99 112.06 233.94
  Q 112.60 234.35 115.75 235.04
  Q 115.87 236.25 114.74 236.11
  A 1.62 0.56 15.4 0 0 113.77 236.17
  L 112.50 236.79
  L 106.47 234.48
  A 1.66 1.56 86.1 0 1 105.64 233.71
  Q 102.98 228.42 100.05 225.17
  Q 98.98 223.99 98.91 225.58
  Q 98.60 232.26 105.21 235.43
  Q 103.72 236.20 102.62 235.82
  Q 101.34 235.38 101.32 235.38
  Q 100.36 235.31 99.50 235.79
  Q 95.87 232.78 92.64 229.35
  Q 91.10 227.71 91.92 229.42
  Q 93.23 232.15 94.79 235.16
  Q 92.26 234.66 90.29 236.00
  Q 88.57 233.83 86.70 231.79
  Q 85.17 230.12 85.81 232.02
  Q 86.25 233.29 86.85 234.88
  L 82.00 235.29
  Q 80.22 233.74 78.83 231.82
  Q 78.52 231.39 78.22 231.11
  Q 76.20 229.20 77.14 231.53
  Q 77.27 231.86 77.60 232.27
  Q 78.50 233.38 78.62 234.79
  L 73.50 232.71
  L 73.04 228.80
  A 0.89 0.80 8.4 0 0 72.48 228.13
  Q 68.69 226.72 71.22 231.42
  Q 67.63 230.65 65.46 228.50
  Q 66.22 224.37 62.50 226.79
  L 55.78 222.48
  Q 65.03 221.18 76.25 220.75
  Q 86.94 220.34 93.94 212.19
  Q 96.42 209.30 107.66 192.85
  A 1.34 1.16 60.4 0 0 107.84 191.95
  Q 107.51 189.84 109.31 190.00
  Q 111.26 190.18 112.98 189.41
  A 0.38 0.33 -36.2 0 0 113.12 188.81
  Q 112.79 188.56 112.25 188.54
  Q 124.87 187.97 132.50 186.25
  Q 163.90 179.16 177.14 149.97
  Q 180.25 147.20 180.86 143.81
  A 2.21 2.20 -90.0 0 1 182.64 142.02
  Q 195.31 139.72 199.83 127.78
  Q 201.47 123.45 202.61 118.97
  Q 209.06 93.72 211.50 79.75
  Q 211.74 78.35 212.79 78.25
  Q 213.41 76.16 212.79 74.00
  Q 214.66 74.86 212.83 70.17
  A 2.06 2.05 -40.4 0 1 212.98 68.36
  Q 213.85 66.90 216.29 67.91
  Q 218.95 70.67 219.45 74.75
  Q 219.51 75.26 219.72 74.81
  Q 221.06 71.90 219.39 69.07
  Q 217.50 65.87 215.50 62.75
  Q 214.34 60.94 216.19 61.31
  Q 219.74 62.03 221.56 65.13
  Q 223.30 68.08 225.38 70.79
  Q 225.70 71.20 225.64 70.69
  Q 224.84 62.87 217.75 59.46
  L 218.04 58.56
  A 1.04 0.69 -83.9 0 1 218.54 57.95
  Q 219.46 57.59 218.21 56.50
  L 218.25 55.54
  Q 221.24 55.07 219.50 52.29
  Z
  M 220.05 176.73
  A 0.78 0.78 9.9 0 1 219.36 175.75
  Q 220.83 170.36 220.55 165.25
  Q 220.50 164.36 220.07 163.89
  Q 219.28 163.03 218.35 163.88
  A 1.57 1.17 79.4 0 0 217.93 164.74
  Q 217.38 168.92 217.09 173.13
  Q 216.83 176.85 216.19 178.11
  Q 214.85 180.71 211.57 181.14
  Q 211.23 181.18 211.55 181.29
  L 216.44 183.00
  A 1.98 1.78 -77.9 0 1 217.61 185.03
  Q 217.01 190.46 218.78 187.64
  Q 219.18 187.00 219.26 186.11
  Q 219.62 182.26 220.12 178.43
  A 0.52 0.50 -82.6 0 1 220.68 177.98
  Q 224.80 178.49 224.67 183.69
  Q 224.65 184.45 225.21 183.94
  Q 228.79 180.64 226.94 175.72
  A 1.95 1.61 43.8 0 1 226.83 174.76
  Q 227.14 172.93 227.32 171.08
  Q 227.44 169.91 228.19 167.02
  Q 228.99 163.93 228.10 160.72
  Q 227.66 159.10 227.01 160.17
  Q 226.82 160.49 226.77 161.00
  Q 226.16 166.94 224.86 172.78
  Q 223.91 177.06 220.05 176.73
  Z
  M 206.44 188.88
  Q 207.30 190.33 207.96 191.72
  A 1.56 1.54 -24.4 0 0 209.99 192.47
  Q 213.16 191.08 211.67 188.57
  Q 210.32 186.30 208.84 184.10
  A 0.86 0.81 -49.2 0 1 208.80 183.25
  Q 210.42 180.18 210.50 176.25
  Q 210.59 171.55 210.52 169.26
  A 1.09 0.81 -79.8 0 0 210.11 168.43
  Q 209.34 167.96 208.81 169.06
  Q 207.26 172.33 206.50 180.25
  Q 206.24 183.00 203.88 186.05
  A 0.49 0.49 -52.6 0 0 203.97 186.75
  Q 204.53 187.17 205.12 187.55
  Q 205.98 188.12 206.44 188.88
  Z
  M 198.50 187.72
  Q 200.82 181.86 200.35 175.62
  Q 200.27 174.43 199.64 173.56
  Q 197.51 170.64 196.90 174.75
  Q 196.69 176.11 196.84 177.47
  Q 197.60 184.65 194.32 190.04
  A 0.93 0.92 -46.5 0 0 194.34 191.04
  Q 196.98 195.00 201.63 196.46
  Q 204.78 197.45 203.69 194.33
  Q 202.33 190.42 198.75 188.42
  A 0.57 0.56 -64.7 0 1 198.50 187.72
  Z
  M 182.46 196.75
  Q 179.55 197.58 175.69 197.16
  Q 175.28 197.12 175.55 196.81
  Q 177.52 194.55 176.94 191.54
  Q 176.66 190.06 176.64 189.94
  Q 176.22 187.03 175.69 186.06
  Q 174.71 184.29 173.84 185.61
  Q 173.51 186.11 173.42 186.98
  Q 172.95 191.86 173.45 196.75
  A 1.33 1.23 -31.5 0 1 173.20 197.64
  L 170.46 201.52
  A 1.42 0.87 -68.3 0 1 169.71 202.08
  L 166.56 202.65
  A 0.48 0.43 84.2 0 1 166.05 202.19
  Q 165.93 197.21 164.15 192.59
  Q 163.92 192.00 163.46 191.72
  Q 162.29 190.99 162.23 192.41
  Q 162.19 193.43 162.17 193.59
  Q 161.50 199.12 162.44 203.56
  Q 162.80 205.30 162.00 206.46
  L 160.94 208.05
  Q 160.65 208.49 161.25 208.52
  Q 165.14 208.72 168.59 210.64
  Q 171.07 212.01 173.23 209.90
  A 0.61 0.59 33.5 0 0 173.01 208.92
  L 166.16 206.20
  A 1.73 1.50 36.6 0 0 164.62 206.32
  Q 163.07 207.39 163.21 206.25
  Q 165.26 203.67 168.75 203.73
  Q 170.44 203.76 171.65 202.82
  A 1.48 1.48 -45.5 0 1 173.42 202.80
  Q 176.29 204.88 179.75 205.49
  Q 181.90 205.87 182.54 204.29
  A 0.57 0.54 23.9 0 0 182.25 203.59
  L 174.61 199.96
  Q 173.23 199.30 174.73 199.00
  L 182.50 197.46
  L 192.77 200.25
  Q 196.27 201.21 193.70 198.54
  Q 191.32 196.06 186.56 195.49
  A 0.47 0.43 10.0 0 1 186.15 194.95
  Q 186.52 193.56 188.00 193.30
  Q 188.72 193.18 188.98 193.09
  Q 195.39 190.90 188.24 191.75
  A 0.39 0.38 -86.4 0 1 187.82 191.27
  Q 189.15 186.21 187.57 181.46
  Q 186.62 178.62 185.75 181.48
  Q 184.56 185.41 184.87 189.49
  Q 185.18 193.65 182.46 196.75
  Z
  M 153.29 210.75
  Q 151.74 212.72 148.81 213.74
  Q 147.77 214.09 148.75 214.59
  Q 153.56 217.03 158.44 217.31
  Q 161.60 217.50 163.33 215.92
  Q 163.72 215.57 163.19 215.59
  Q 157.95 215.86 153.76 212.76
  Q 152.85 212.08 153.79 211.25
  Q 155.29 210.86 156.66 210.13
  Q 157.63 209.60 156.94 209.35
  Q 156.81 209.31 156.08 209.39
  L 155.07 209.50
  A 0.52 0.44 89.9 0 1 154.60 208.94
  Q 154.95 203.27 152.94 198.56
  Q 152.52 197.58 151.71 197.80
  A 0.86 0.67 88.5 0 0 151.19 198.50
  Q 150.59 203.68 150.99 208.87
  Q 151.07 209.87 151.64 210.28
  Q 152.31 210.77 153.29 210.75
  Z
  M 141.90 202.85
  A 0.15 0.14 -71.7 0 0 141.69 202.96
  Q 140.67 209.08 141.72 215.19
  A 0.60 0.58 83.8 0 0 142.32 215.69
  Q 145.74 215.60 145.16 211.82
  Q 144.70 208.86 144.19 205.92
  Q 143.83 203.89 141.90 202.85
  Z
  M 133.21 221.30
  L 133.47 220.89
  A 0.57 0.52 -54.1 0 0 133.39 220.19
  Q 129.77 216.96 128.19 212.31
  Q 127.33 209.80 126.19 212.44
  Q 125.70 213.57 125.70 214.77
  Q 125.70 215.81 126.34 216.99
  Q 128.09 220.24 131.09 222.46
  A 0.52 0.48 -55.4 0 1 131.19 223.14
  Q 130.74 223.84 130.91 224.48
  Q 131.09 225.13 132.07 225.47
  Q 137.30 227.27 143.53 226.10
  Q 144.77 225.87 143.52 225.75
  Q 138.67 225.29 133.79 222.94
  A 1.23 1.10 28.7 0 1 133.21 221.30
  Z
  M 150.57 220.61
  Q 147.34 220.19 143.93 217.77
  A 0.69 0.65 39.1 0 0 143.07 217.83
  L 141.07 219.86
  A 0.43 0.41 37.5 0 0 141.17 220.51
  Q 147.17 224.14 153.69 221.44
  Q 155.49 220.69 153.54 220.75
  Q 152.03 220.80 150.57 220.61
  Z"
/>
<path fill="#f14d41" d="
  M 69.10 68.44
  Q 67.74 59.89 72.95 53.17
  Q 74.24 51.51 74.05 53.63
  L 72.71 68.56
  A 0.79 0.66 -77.5 0 0 73.10 69.32
  L 79.34 72.06
  A 0.49 0.29 30.2 0 1 79.67 72.64
  Q 79.47 72.82 79.00 72.75
  Q 76.87 72.45 74.76 71.45
  Q 72.17 70.23 71.02 70.40
  Q 69.04 70.70 67.44 72.69
  Q 63.44 77.66 60.51 83.82
  Q 59.71 85.50 59.45 83.65
  Q 58.91 79.87 60.03 77.79
  Q 62.46 73.26 66.99 70.91
  A 1.27 0.99 -89.7 0 0 67.54 70.21
  Q 67.83 69.31 68.70 69.04
  A 0.57 0.52 -14.1 0 0 69.10 68.44
  Z"
/>
<path fill="#ae3d29" d="
  M 217.75 59.46
  Q 224.84 62.87 225.64 70.69
  Q 225.70 71.20 225.38 70.79
  Q 223.30 68.08 221.56 65.13
  Q 219.74 62.03 216.19 61.31
  Q 214.34 60.94 215.50 62.75
  Q 217.50 65.87 219.39 69.07
  Q 221.06 71.90 219.72 74.81
  Q 219.51 75.26 219.45 74.75
  Q 218.95 70.67 216.29 67.91
  L 213.14 63.32
  A 0.91 0.71 -54.3 0 1 213.11 62.54
  L 213.67 61.24
  A 0.91 0.62 38.0 0 0 213.40 60.40
  Q 209.11 56.09 203.67 53.34
  Q 202.62 52.81 204.00 52.75
  Q 204.70 52.72 207.78 53.69
  Q 207.85 53.71 209.73 54.22
  Q 213.83 55.32 215.63 59.34
  Q 216.35 60.96 217.75 59.46
  Z"
/>
<path fill="#f14d41" d="
  M 81.48 73.19
  Q 75.97 79.49 73.19 87.43
  Q 72.91 88.22 72.57 87.45
  Q 70.98 83.88 72.78 80.43
  Q 74.89 76.39 79.11 73.88
  Q 81.09 72.71 80.43 70.51
  Q 78.25 63.22 80.65 55.79
  A 1.46 1.18 88.4 0 1 81.23 55.03
  Q 82.39 54.35 83.11 55.28
  Q 83.50 55.80 83.45 56.83
  Q 83.14 63.05 84.69 70.06
  Q 85.26 72.67 82.31 72.81
  A 1.21 1.07 16.8 0 0 81.48 73.19
  Z"
/>
<path fill="#f14d41" d="
  M 25.00 65.46
  Q 23.39 61.54 24.96 57.50
  L 26.50 55.46
  Q 28.01 54.87 27.34 56.65
  Q 26.00 60.26 27.31 63.78
  A 0.78 0.68 60.8 0 1 27.14 64.60
  Q 26.23 65.36 25.00 65.46
  Z"
/>
<path fill="#ae3d29" d="
  M 225.50 59.46
  L 227.25 62.21
  Q 226.52 63.15 225.73 62.26
  Q 223.73 59.99 221.95 57.53
  Q 220.00 54.83 222.53 56.72
  Q 222.79 56.92 223.03 57.21
  Q 224.10 58.51 225.50 59.46
  Z"
/>
<path fill="#c5422c" d="
  M 212.79 74.00
  Q 213.41 76.16 212.79 78.25
  Q 211.12 73.16 207.21 68.79
  A 1.40 1.39 51.5 0 1 207.44 66.72
  Q 209.54 65.24 207.30 63.65
  Q 202.95 60.58 198.43 57.76
  A 0.43 0.39 37.6 0 1 198.31 57.12
  Q 198.95 56.51 200.01 56.71
  Q 205.42 57.74 210.37 63.09
  A 1.07 1.07 49.1 0 1 210.26 64.65
  Q 208.47 66.07 210.44 68.31
  Q 212.21 70.33 212.79 74.00
  Z"
/>
<path fill="#f14d41" d="
  M 94.00 66.21
  Q 91.13 66.03 91.04 69.00
  Q 88.31 63.98 90.58 57.29
  Q 90.83 56.55 91.07 57.29
  L 94.00 66.21
  Z"
/>
<path fill="#f7f7f6" d="
  M 24.96 57.50
  Q 23.39 61.54 25.00 65.46
  Q 24.65 65.61 24.50 65.96
  Q 21.37 68.54 22.00 64.25
  Q 22.08 63.73 21.96 61.50
  L 24.96 57.50
  Z"
/>
<path fill="#c5422c" d="
  M 200.57 63.68
  Q 202.85 65.09 203.83 67.53
  A 0.79 0.67 -35.0 0 1 203.62 68.32
  Q 202.52 69.37 203.31 70.69
  Q 207.01 76.82 204.33 83.11
  Q 203.77 84.42 203.50 83.02
  Q 202.34 76.80 200.44 70.81
  Q 200.26 70.26 200.56 69.04
  A 0.83 0.80 -63.1 0 0 200.31 68.23
  Q 195.72 64.15 190.76 60.52
  Q 190.11 60.04 190.33 59.75
  A 0.96 0.49 19.6 0 1 191.24 59.63
  Q 196.20 60.96 200.57 63.68
  Z"
/>
<path fill="#f14d41" d="
  M 106.00 66.21
  L 101.50 66.46
  Q 100.08 64.87 99.68 62.29
  Q 99.29 59.78 101.56 60.91
  Q 104.76 62.49 106.00 66.21
  Z"
/>
<path fill="#e44a2f" d="
  M 173.46 62.25
  Q 178.84 64.97 183.31 68.98
  A 1.51 1.38 17.3 0 1 183.79 69.80
  Q 184.32 72.76 182.77 75.33
  A 1.07 1.03 -39.8 0 0 182.67 76.22
  Q 184.19 80.47 184.29 85.00
  Q 184.36 88.60 181.00 88.75
  A 0.74 0.65 -8.9 0 1 180.29 88.30
  Q 180.13 87.82 180.21 87.25
  Q 181.81 81.71 180.15 76.22
  Q 180.01 75.76 180.12 75.26
  Q 181.05 71.06 178.06 68.69
  Q 172.32 64.13 170.15 61.81
  A 1.08 0.66 38.5 0 1 169.83 60.94
  Q 169.97 60.44 170.80 60.96
  Q 172.06 61.76 173.46 62.25
  Z"
/>
<path fill="#d44730" d="
  M 191.74 70.58
  Q 190.60 68.89 187.56 66.44
  Q 184.92 64.30 183.29 62.05
  Q 181.78 59.96 184.24 60.75
  Q 190.68 62.80 196.17 68.29
  A 0.77 0.77 -40.6 0 1 196.08 69.45
  Q 194.94 70.31 195.02 72.26
  Q 195.21 76.90 195.24 81.55
  Q 195.26 83.84 194.86 84.89
  Q 193.83 87.56 190.89 85.31
  A 1.20 1.16 -75.3 0 1 190.44 84.51
  Q 189.72 77.84 191.84 71.48
  A 1.13 0.95 -56.1 0 0 191.74 70.58
  Z"
/>
<path fill="#f14d41" d="
  M 21.96 61.50
  Q 22.08 63.73 22.00 64.25
  Q 21.37 68.54 24.50 65.96
  Q 24.82 66.70 24.29 67.23
  Q 23.60 67.90 23.50 68.05
  Q 20.44 73.07 19.75 79.00
  Q 19.55 80.74 19.00 79.00
  Q 17.88 75.47 19.21 72.00
  Q 19.48 71.17 20.49 70.20
  Q 19.93 68.26 18.25 66.96
  Q 19.97 64.32 20.19 63.69
  Q 20.77 61.95 21.96 61.50
  Z"
/>
<path fill="#f14d41" d="
  M 117.00 66.21
  L 113.00 66.21
  Q 111.86 64.93 111.52 63.36
  Q 111.15 61.63 112.71 62.47
  Q 115.73 64.11 117.00 66.21
  Z"
/>
<path fill="#f14d41" d="
  M 131.50 66.21
  L 125.25 66.21
  Q 124.06 64.25 125.04 62.49
  A 0.76 0.73 18.8 0 1 125.81 62.13
  Q 129.60 62.76 131.50 66.21
  Z"
/>
<path fill="#f14d41" d="
  M 42.29 62.75
  L 43.75 63.04
  L 43.54 63.75
  Q 38.41 69.66 36.11 77.16
  Q 35.57 78.89 34.81 77.44
  Q 33.80 75.50 34.50 73.25
  Q 36.22 67.70 41.19 64.68
  Q 41.87 64.27 41.96 63.50
  Q 42.25 63.18 42.29 62.75
  Z"
/>
<path fill="#f14d41" d="
  M 143.25 66.71
  L 138.00 66.46
  Q 137.11 65.09 137.06 63.57
  A 0.40 0.40 5.0 0 1 137.55 63.16
  Q 140.98 63.93 143.25 66.71
  Z"
/>
<path fill="#e44a2f" d="
  M 169.99 76.95
  Q 169.09 76.50 168.75 75.79
  Q 170.71 75.29 169.69 74.06
  Q 164.54 67.90 160.75 64.75
  Q 159.21 63.47 160.42 63.11
  Q 160.90 62.96 161.56 63.16
  Q 166.21 64.57 169.64 67.94
  Q 171.91 70.17 172.06 70.34
  Q 173.23 71.74 173.42 73.62
  A 0.41 0.40 -14.6 0 0 173.99 73.95
  Q 176.21 72.98 178.22 73.63
  A 1.05 0.77 7.4 0 1 178.89 74.27
  Q 179.00 74.80 178.11 74.60
  Q 177.64 74.49 177.36 74.48
  Q 173.40 74.40 169.99 76.95
  Z"
/>
<path fill="#f14d41" d="
  M 28.42 64.69
  Q 28.65 64.00 30.44 63.60
  Q 31.11 63.45 30.69 63.98
  Q 26.40 69.44 25.41 75.17
  Q 25.41 75.18 25.30 76.47
  Q 25.14 78.32 23.43 76.39
  A 2.70 2.68 -59.3 0 1 22.83 73.99
  Q 24.12 68.47 28.03 65.49
  A 1.19 0.22 -74.4 0 0 28.42 64.69
  Z"
/>
<path fill="#e44a2f" d="
  M 160.75 71.21
  L 152.50 68.46
  L 150.31 64.42
  Q 149.28 62.54 151.25 63.46
  Q 156.82 66.05 160.75 71.21
  Z"
/>
<path fill="#002d72" d="
  M 94.00 66.21
  L 101.50 66.46
  L 106.00 66.21
  Q 109.49 66.82 113.00 66.21
  L 117.00 66.21
  L 120.50 66.29
  Q 122.88 66.86 125.25 66.21
  L 131.50 66.21
  L 138.00 66.46
  L 143.25 66.71
  L 152.50 68.46
  L 160.75 71.21
  L 168.75 75.79
  Q 169.09 76.50 169.99 76.95
  Q 175.53 81.76 179.46 88.25
  Q 186.39 102.85 184.75 119.50
  Q 183.15 135.72 177.14 149.97
  Q 163.90 179.16 132.50 186.25
  Q 124.87 187.97 112.25 188.54
  L 66.39 188.50
  A 0.40 0.39 6.4 0 1 66.00 188.02
  L 75.21 144.50
  L 88.00 83.79
  L 89.50 76.21
  L 91.04 69.00
  Q 91.13 66.03 94.00 66.21
  Z
  M 111.04 89.75
  L 95.21 164.75
  L 94.58 167.69
  A 0.49 0.42 5.8 0 0 95.07 168.20
  Q 110.09 168.66 119.75 167.75
  Q 142.96 165.57 153.26 144.29
  Q 156.70 137.18 159.00 126.50
  Q 161.30 115.84 159.79 107.00
  Q 157.74 93.96 145.50 89.29
  L 139.94 87.72
  Q 135.57 86.55 130.25 86.79
  L 124.75 86.79
  L 116.75 86.79
  L 112.56 86.59
  A 0.86 0.77 14.0 0 0 111.80 86.99
  Q 111.09 88.25 111.04 89.75
  Z"
/>
<path fill="#f7f7f6" d="
  M 18.25 66.96
  Q 19.93 68.26 20.49 70.20
  Q 18.73 70.11 18.04 71.12
  A 1.64 0.56 -64.1 0 1 17.37 71.80
  Q 15.61 72.60 15.96 70.00
  Q 16.27 67.88 18.25 66.96
  Z"
/>
<path fill="#f14d41" d="
  M 15.96 70.00
  Q 15.61 72.60 17.37 71.80
  A 1.64 0.56 -64.1 0 0 18.04 71.12
  Q 18.73 70.11 20.49 70.20
  Q 19.48 71.17 19.21 72.00
  Q 16.79 72.70 17.15 75.01
  A 1.94 1.60 56.5 0 1 17.05 75.97
  Q 15.47 79.72 15.94 83.75
  A 1.38 0.75 72.8 0 1 15.75 84.69
  Q 15.26 85.29 14.67 83.78
  Q 13.40 80.50 14.75 77.29
  Q 15.22 76.59 14.96 75.75
  Q 15.93 74.83 15.71 73.50
  L 15.96 70.00
  Z"
/>
<path fill="#d5d1ce" d="
  M 15.71 73.50
  Q 15.93 74.83 14.96 75.75
  Q 13.91 76.63 12.71 76.00
  Q 13.71 74.22 15.71 73.50
  Z"
/>
<path fill="#cc8278" fill-opacity="0.996" d="
  M 14.96 75.75
  Q 15.22 76.59 14.75 77.29
  Q 13.25 77.54 12.29 78.75
  Q 12.00 77.28 12.71 76.00
  Q 13.91 76.63 14.96 75.75
  Z"
/>
<path fill="#f14d41" d="
  M 89.50 76.21
  L 88.00 83.79
  Q 85.93 85.93 85.25 88.25
  Q 84.91 89.40 84.00 89.46
  L 83.55 86.49
  A 1.75 1.15 29.5 0 0 83.13 85.67
  Q 82.25 84.70 83.19 83.19
  Q 86.22 78.30 89.50 76.21
  Z"
/>
<path fill="#e4e0dc" d="
  M 88.00 83.79
  L 75.21 144.50
  Q 69.26 143.70 64.25 144.00
  Q 55.78 144.52 49.46 149.25
  Q 44.55 152.93 40.18 161.09
  Q 36.64 167.71 33.44 176.19
  Q 29.85 185.70 31.90 194.44
  Q 32.25 195.92 31.91 196.69
  Q 31.40 197.87 30.00 198.29
  Q 21.01 187.69 15.25 175.04
  Q 17.31 175.57 17.00 173.50
  Q 15.34 162.55 15.65 154.51
  Q 16.05 144.29 23.21 138.57
  Q 26.02 136.33 32.49 134.26
  Q 43.14 130.86 45.44 129.69
  Q 52.25 126.20 57.47 120.85
  Q 58.31 119.99 66.81 109.43
  Q 74.33 100.09 81.92 90.80
  Q 82.30 90.33 82.88 90.05
  Q 83.45 89.77 84.00 89.46
  Q 84.91 89.40 85.25 88.25
  Q 85.93 85.93 88.00 83.79
  Z"
/>
<path fill="#d44730" d="
  M 10.46 84.00
  Q 10.63 85.24 10.71 86.49
  Q 10.75 87.13 10.98 87.97
  Q 11.67 90.51 9.00 88.71
  Q 10.21 86.57 10.46 84.00
  Z"
/>
<path fill="#f14d41" d="
  M 116.75 86.79
  Q 115.57 92.19 111.04 89.75
  Q 111.09 88.25 111.80 86.99
  A 0.86 0.77 14.0 0 1 112.56 86.59
  L 116.75 86.79
  Z"
/>
<path fill="#e4e0dc" d="
  M 124.75 86.79
  Q 124.02 88.31 124.21 90.00
  Q 124.76 94.93 128.06 91.31
  Q 129.13 90.14 130.25 86.79
  Q 135.57 86.55 139.94 87.72
  Q 141.12 96.54 145.50 89.29
  Q 157.74 93.96 159.79 107.00
  Q 159.89 110.08 158.94 107.56
  Q 158.37 106.07 158.17 105.08
  Q 157.66 102.66 157.64 102.61
  Q 156.48 99.57 154.60 96.91
  Q 154.04 96.12 153.40 96.45
  A 1.16 0.37 -79.4 0 0 152.97 97.25
  Q 152.84 97.78 152.21 98.00
  Q 146.08 100.17 139.69 101.42
  Q 133.08 102.72 126.68 104.79
  Q 120.06 106.94 118.09 112.52
  Q 117.04 115.48 117.86 123.04
  Q 118.85 132.22 118.69 135.19
  Q 118.30 142.50 111.34 144.42
  Q 106.84 145.67 102.11 145.31
  A 1.88 1.88 -80.8 0 0 100.13 146.74
  Q 98.29 154.23 96.87 162.29
  Q 96.85 162.45 96.78 163.70
  Q 96.69 165.20 95.21 164.75
  L 111.04 89.75
  Q 115.57 92.19 116.75 86.79
  L 124.75 86.79
  Z"
/>
<path fill="#f14d41" d="
  M 130.25 86.79
  Q 129.13 90.14 128.06 91.31
  Q 124.76 94.93 124.21 90.00
  Q 124.02 88.31 124.75 86.79
  L 130.25 86.79
  Z"
/>
<path fill="#f14d41" d="
  M 139.94 87.72
  L 145.50 89.29
  Q 141.12 96.54 139.94 87.72
  Z"
/>
<path fill="#e44a2f" d="
  M 7.71 90.50
  Q 8.60 92.20 8.39 94.07
  A 0.59 0.57 -86.2 0 1 7.81 94.59
  Q 7.02 94.57 6.25 94.21
  L 7.71 90.50
  Z"
/>
<path fill="#dcd8d4" d="
  M 159.79 107.00
  Q 161.30 115.84 159.00 126.50
  Q 156.70 137.18 153.26 144.29
  Q 142.96 165.57 119.75 167.75
  Q 110.09 168.66 95.07 168.20
  A 0.49 0.42 5.8 0 1 94.58 167.69
  L 95.21 164.75
  Q 96.69 165.20 96.78 163.70
  Q 96.85 162.45 96.87 162.29
  Q 98.29 154.23 100.13 146.74
  A 1.88 1.88 -80.8 0 1 102.11 145.31
  Q 106.84 145.67 111.34 144.42
  Q 118.30 142.50 118.69 135.19
  Q 118.85 132.22 117.86 123.04
  Q 117.04 115.48 118.09 112.52
  Q 120.06 106.94 126.68 104.79
  Q 133.08 102.72 139.69 101.42
  Q 146.08 100.17 152.21 98.00
  Q 152.84 97.78 152.97 97.25
  A 1.16 0.37 -79.4 0 1 153.40 96.45
  Q 154.04 96.12 154.60 96.91
  Q 156.48 99.57 157.64 102.61
  Q 157.66 102.66 158.17 105.08
  Q 158.37 106.07 158.94 107.56
  Q 159.89 110.08 159.79 107.00
  Z"
/>
<path fill="#c5422c" d="
  M 5.21 98.00
  Q 7.29 101.59 4.04 103.75
  Q 4.10 100.76 5.21 98.00
  Z"
/>
<path fill="#dcd8d4" d="
  M 75.21 144.50
  L 66.00 188.02
  A 0.40 0.39 6.4 0 0 66.39 188.50
  L 112.25 188.54
  Q 112.79 188.56 113.12 188.81
  A 0.38 0.33 -36.2 0 1 112.98 189.41
  Q 111.26 190.18 109.31 190.00
  Q 107.51 189.84 107.84 191.95
  A 1.34 1.16 60.4 0 1 107.66 192.85
  Q 96.42 209.30 93.94 212.19
  Q 86.94 220.34 76.25 220.75
  Q 65.03 221.18 55.78 222.48
  Q 40.69 212.67 30.00 198.29
  Q 31.40 197.87 31.91 196.69
  Q 32.25 195.92 31.90 194.44
  Q 29.85 185.70 33.44 176.19
  Q 36.64 167.71 40.18 161.09
  Q 44.55 152.93 49.46 149.25
  Q 55.78 144.52 64.25 144.00
  Q 69.26 143.70 75.21 144.50
  Z"
/>
<path fill="#96090a" d="
  M 241.46 154.50
  L 238.60 171.59
  Q 236.27 169.09 234.29 170.00
  L 234.29 169.00
  Q 235.93 168.74 236.75 167.22
  Q 239.61 161.84 239.69 156.94
  Q 239.73 154.71 241.46 154.50
  Z"
/>
<path fill="#96090a" d="
  M 234.29 169.00
  L 234.29 170.00
  Q 233.48 170.76 233.75 172.75
  Q 234.25 176.40 231.65 178.89
  Q 231.46 179.07 231.34 178.94
  A 0.45 0.26 -61.6 0 1 231.33 178.55
  Q 232.95 174.42 230.15 171.07
  A 0.59 0.57 45.9 0 1 230.15 170.31
  Q 231.41 168.89 231.69 168.19
  Q 233.98 162.29 235.28 156.11
  Q 235.58 154.71 236.11 155.72
  Q 236.25 155.97 236.26 156.33
  Q 236.40 162.14 234.27 167.55
  Q 233.97 168.29 234.29 169.00
  Z"
/>
<path fill="#9a1515" d="
  M 220.05 176.73
  Q 223.91 177.06 224.86 172.78
  Q 226.16 166.94 226.77 161.00
  Q 226.82 160.49 227.01 160.17
  Q 227.66 159.10 228.10 160.72
  Q 228.99 163.93 228.19 167.02
  Q 227.44 169.91 227.32 171.08
  Q 227.14 172.93 226.83 174.76
  A 1.95 1.61 43.8 0 0 226.94 175.72
  Q 228.79 180.64 225.21 183.94
  Q 224.65 184.45 224.67 183.69
  Q 224.80 178.49 220.68 177.98
  A 0.52 0.50 -82.6 0 0 220.12 178.43
  Q 219.62 182.26 219.26 186.11
  Q 219.18 187.00 218.78 187.64
  Q 217.01 190.46 217.61 185.03
  A 1.98 1.78 -77.9 0 0 216.44 183.00
  L 211.55 181.29
  Q 211.23 181.18 211.57 181.14
  Q 214.85 180.71 216.19 178.11
  Q 216.83 176.85 217.09 173.13
  Q 217.38 168.92 217.93 164.74
  A 1.57 1.17 79.4 0 1 218.35 163.88
  Q 219.28 163.03 220.07 163.89
  Q 220.50 164.36 220.55 165.25
  Q 220.83 170.36 219.36 175.75
  A 0.78 0.78 9.9 0 0 220.05 176.73
  Z"
/>
<path fill="#ae3d29" d="
  M 205.12 187.55
  Q 204.53 187.17 203.97 186.75
  A 0.49 0.49 -52.6 0 1 203.88 186.05
  Q 206.24 183.00 206.50 180.25
  Q 207.26 172.33 208.81 169.06
  Q 209.34 167.96 210.11 168.43
  A 1.09 0.81 -79.8 0 1 210.52 169.26
  Q 210.59 171.55 210.50 176.25
  Q 210.42 180.18 208.80 183.25
  A 0.86 0.81 -49.2 0 0 208.84 184.10
  Q 210.32 186.30 211.67 188.57
  Q 213.16 191.08 209.99 192.47
  A 1.56 1.54 -24.4 0 1 207.96 191.72
  Q 207.30 190.33 206.44 188.88
  Q 205.98 188.12 205.12 187.55
  Z"
/>
<path fill="#ae3d29" d="
  M 198.75 188.42
  Q 202.33 190.42 203.69 194.33
  Q 204.78 197.45 201.63 196.46
  Q 196.98 195.00 194.34 191.04
  A 0.93 0.92 -46.5 0 1 194.32 190.04
  Q 197.60 184.65 196.84 177.47
  Q 196.69 176.11 196.90 174.75
  Q 197.51 170.64 199.64 173.56
  Q 200.27 174.43 200.35 175.62
  Q 200.82 181.86 198.50 187.72
  A 0.57 0.56 -64.7 0 0 198.75 188.42
  Z"
/>
<path fill="#ae3d29" d="
  M 182.50 197.46
  L 182.46 196.75
  Q 185.18 193.65 184.87 189.49
  Q 184.56 185.41 185.75 181.48
  Q 186.62 178.62 187.57 181.46
  Q 189.15 186.21 187.82 191.27
  A 0.39 0.38 -86.4 0 0 188.24 191.75
  Q 195.39 190.90 188.98 193.09
  Q 188.72 193.18 188.00 193.30
  Q 186.52 193.56 186.15 194.95
  A 0.47 0.43 10.0 0 0 186.56 195.49
  Q 191.32 196.06 193.70 198.54
  Q 196.27 201.21 192.77 200.25
  L 182.50 197.46
  Z"
/>
<path fill="#ae3d29" d="
  M 182.46 196.75
  L 182.50 197.46
  L 174.73 199.00
  Q 173.23 199.30 174.61 199.96
  L 182.25 203.59
  A 0.57 0.54 23.9 0 1 182.54 204.29
  Q 181.90 205.87 179.75 205.49
  Q 176.29 204.88 173.42 202.80
  A 1.48 1.48 -45.5 0 0 171.65 202.82
  Q 170.44 203.76 168.75 203.73
  Q 165.26 203.67 163.21 206.25
  Q 162.57 206.17 162.00 206.46
  Q 162.80 205.30 162.44 203.56
  Q 161.50 199.12 162.17 193.59
  Q 162.19 193.43 162.23 192.41
  Q 162.29 190.99 163.46 191.72
  Q 163.92 192.00 164.15 192.59
  Q 165.93 197.21 166.05 202.19
  A 0.48 0.43 84.2 0 0 166.56 202.65
  L 169.71 202.08
  A 1.42 0.87 -68.3 0 0 170.46 201.52
  L 173.20 197.64
  A 1.33 1.23 -31.5 0 0 173.45 196.75
  Q 172.95 191.86 173.42 186.98
  Q 173.51 186.11 173.84 185.61
  Q 174.71 184.29 175.69 186.06
  Q 176.22 187.03 176.64 189.94
  Q 176.66 190.06 176.94 191.54
  Q 177.52 194.55 175.55 196.81
  Q 175.28 197.12 175.69 197.16
  Q 179.55 197.58 182.46 196.75
  Z"
/>
<path fill="#b9afa7" d="
  M 166.97 236.53
  Q 153.19 242.37 136.50 243.25
  Q 119.60 244.14 105.50 241.79
  Q 108.98 240.35 105.18 239.35
  Q 101.74 238.45 99.50 235.79
  Q 100.36 235.31 101.32 235.38
  Q 101.34 235.38 102.62 235.82
  Q 103.72 236.20 105.21 235.43
  Q 105.12 237.43 106.64 237.57
  Q 107.64 237.65 107.71 237.67
  Q 110.67 238.26 113.69 238.41
  A 0.35 0.33 -9.4 0 0 114.04 237.95
  Q 113.64 237.04 112.50 236.79
  L 113.77 236.17
  A 1.62 0.56 15.4 0 1 114.74 236.11
  Q 115.87 236.25 115.75 235.04
  Q 119.92 235.66 124.03 234.89
  Q 128.37 233.66 132.93 233.46
  Q 133.49 233.43 133.03 233.14
  L 131.25 232.04
  Q 132.49 232.48 133.25 231.79
  Q 135.14 232.69 135.81 232.56
  Q 153.63 229.27 169.98 221.87
  Q 176.75 218.79 187.52 212.31
  Q 198.20 205.87 208.77 199.24
  Q 212.29 197.03 216.26 195.75
  Q 218.92 194.89 217.60 197.35
  Q 214.36 203.42 208.86 207.89
  Q 194.65 219.45 179.25 229.35
  Q 177.96 230.17 172.96 232.58
  Q 169.71 234.14 166.97 236.53
  Z"
/>
<path fill="#c5422c" d="
  M 153.79 211.25
  Q 153.64 210.90 153.29 210.75
  Q 152.31 210.77 151.64 210.28
  Q 151.07 209.87 150.99 208.87
  Q 150.59 203.68 151.19 198.50
  A 0.86 0.67 88.5 0 1 151.71 197.80
  Q 152.52 197.58 152.94 198.56
  Q 154.95 203.27 154.60 208.94
  A 0.52 0.44 89.9 0 0 155.07 209.50
  L 156.08 209.39
  Q 156.81 209.31 156.94 209.35
  Q 157.63 209.60 156.66 210.13
  Q 155.29 210.86 153.79 211.25
  Z"
/>
<path fill="#c5422c" d="
  M 141.90 202.85
  Q 143.83 203.89 144.19 205.92
  Q 144.70 208.86 145.16 211.82
  Q 145.74 215.60 142.32 215.69
  A 0.60 0.58 83.8 0 1 141.72 215.19
  Q 140.67 209.08 141.69 202.96
  A 0.15 0.14 -71.7 0 1 141.90 202.85
  Z"
/>
<path fill="#c5422c" d="
  M 162.00 206.46
  Q 162.57 206.17 163.21 206.25
  Q 163.07 207.39 164.62 206.32
  A 1.73 1.50 36.6 0 1 166.16 206.20
  L 173.01 208.92
  A 0.61 0.59 33.5 0 1 173.23 209.90
  Q 171.07 212.01 168.59 210.64
  Q 165.14 208.72 161.25 208.52
  Q 160.65 208.49 160.94 208.05
  L 162.00 206.46
  Z"
/>
<path fill="#c5422c" d="
  M 153.29 210.75
  Q 153.64 210.90 153.79 211.25
  Q 152.85 212.08 153.76 212.76
  Q 157.95 215.86 163.19 215.59
  Q 163.72 215.57 163.33 215.92
  Q 161.60 217.50 158.44 217.31
  Q 153.56 217.03 148.75 214.59
  Q 147.77 214.09 148.81 213.74
  Q 151.74 212.72 153.29 210.75
  Z"
/>
<path fill="#c5422c" d="
  M 133.21 221.30
  A 1.23 1.10 28.7 0 0 133.79 222.94
  Q 138.67 225.29 143.52 225.75
  Q 144.77 225.87 143.53 226.10
  Q 137.30 227.27 132.07 225.47
  Q 131.09 225.13 130.91 224.48
  Q 130.74 223.84 131.19 223.14
  A 0.52 0.48 -55.4 0 0 131.09 222.46
  Q 128.09 220.24 126.34 216.99
  Q 125.70 215.81 125.70 214.77
  Q 125.70 213.57 126.19 212.44
  Q 127.33 209.80 128.19 212.31
  Q 129.77 216.96 133.39 220.19
  A 0.57 0.52 -54.1 0 1 133.47 220.89
  L 133.21 221.30
  Z"
/>
<path fill="#c5422c" d="
  M 133.25 231.79
  Q 132.49 232.48 131.25 232.04
  Q 126.36 232.00 122.56 230.19
  Q 120.60 229.25 121.91 227.63
  A 0.58 0.56 -46.7 0 0 121.90 226.88
  Q 119.49 224.29 118.20 221.03
  Q 117.65 219.63 117.87 218.40
  Q 118.10 217.04 118.81 215.81
  Q 120.05 213.66 120.50 216.25
  Q 121.36 221.16 124.60 224.81
  A 0.65 0.63 -49.0 0 1 124.64 225.58
  Q 123.62 227.09 125.31 228.19
  Q 128.59 230.32 133.25 231.79
  Z"
/>
<path fill="#c5422c" d="
  M 150.57 220.61
  Q 152.03 220.80 153.54 220.75
  Q 155.49 220.69 153.69 221.44
  Q 147.17 224.14 141.17 220.51
  A 0.43 0.41 37.5 0 1 141.07 219.86
  L 143.07 217.83
  A 0.69 0.65 39.1 0 1 143.93 217.77
  Q 147.34 220.19 150.57 220.61
  Z"
/>
<path fill="#c5422c" d="
  M 124.03 234.89
  Q 119.92 235.66 115.75 235.04
  Q 112.60 234.35 112.06 233.94
  Q 110.81 232.99 111.62 231.82
  A 0.60 0.55 -50.2 0 0 111.58 231.08
  Q 108.78 228.29 108.00 226.75
  Q 106.32 223.43 107.56 221.31
  Q 108.88 219.07 109.69 221.81
  Q 110.97 226.16 113.88 228.91
  A 0.72 0.67 -57.8 0 1 114.03 229.69
  L 113.71 230.47
  A 0.68 0.60 29.0 0 0 113.98 231.23
  Q 118.45 234.25 124.03 234.89
  Z"
/>
<path fill="#c5422c" d="
  M 112.50 236.79
  Q 113.64 237.04 114.04 237.95
  A 0.35 0.33 -9.4 0 1 113.69 238.41
  Q 110.67 238.26 107.71 237.67
  Q 107.64 237.65 106.64 237.57
  Q 105.12 237.43 105.21 235.43
  Q 98.60 232.26 98.91 225.58
  Q 98.98 223.99 100.05 225.17
  Q 102.98 228.42 105.64 233.71
  A 1.66 1.56 86.1 0 0 106.47 234.48
  L 112.50 236.79
  Z"
/>
<path fill="#9a1515" d="
  M 65.46 228.50
  L 62.50 226.79
  Q 66.22 224.37 65.46 228.50
  Z"
/>
<path fill="#c5422c" d="
  M 73.50 232.71
  Q 71.84 232.59 71.22 231.42
  Q 68.69 226.72 72.48 228.13
  A 0.89 0.80 8.4 0 1 73.04 228.80
  L 73.50 232.71
  Z"
/>
<path fill="#c5422c" d="
  M 99.50 235.79
  Q 101.74 238.45 105.18 239.35
  Q 108.98 240.35 105.50 241.79
  L 102.75 241.46
  Q 101.37 239.41 99.50 238.75
  Q 96.24 237.60 94.79 235.16
  Q 93.23 232.15 91.92 229.42
  Q 91.10 227.71 92.64 229.35
  Q 95.87 232.78 99.50 235.79
  Z"
/>
<path fill="#c5422c" d="
  M 82.00 235.29
  Q 82.43 236.52 83.50 237.21
  L 78.62 234.79
  Q 78.50 233.38 77.60 232.27
  Q 77.27 231.86 77.14 231.53
  Q 76.20 229.20 78.22 231.11
  Q 78.52 231.39 78.83 231.82
  Q 80.22 233.74 82.00 235.29
  Z"
/>
<path fill="#c5422c" d="
  M 90.29 236.00
  L 94.50 240.21
  Q 92.46 240.51 91.07 239.14
  Q 88.42 237.48 86.85 234.88
  Q 86.25 233.29 85.81 232.02
  Q 85.17 230.12 86.70 231.79
  Q 88.57 233.83 90.29 236.00
  Z"
/>
<path fill="#b9afa7" d="
  M 86.85 234.88
  Q 88.42 237.48 91.07 239.14
  L 83.50 237.21
  Q 82.43 236.52 82.00 235.29
  L 86.85 234.88
  Z"
/>
<path fill="#b9afa7" d="
  M 94.79 235.16
  Q 96.24 237.60 99.50 238.75
  Q 101.37 239.41 102.75 241.46
  L 94.50 240.21
  L 90.29 236.00
  Q 92.26 234.66 94.79 235.16
  Z"
/>
</svg>
